<?xml version="1.0" encoding="utf-8"?>
<!-- Generator: Adobe Illustrator 19.2.1, SVG Export Plug-In . SVG Version: 6.00 Build 0)  -->
<svg version="1.1" id="layer" xmlns="http://www.w3.org/2000/svg" xmlns:xlink="http://www.w3.org/1999/xlink" x="0px" y="0px"
	 viewBox="0 0 652 652" style="enable-background:new 0 0 652 652;" xml:space="preserve">
<style type="text/css">
	.st0{fill:#00842D;}
</style>
<g>
	<path class="st0" d="M384.1,190.2c3.2-5.7,7.5-11.3,12.4-16.1c7.5-7.3,16.9-11.4,23.1-11.4c6.4,0,8.9,2.2,10,2.2c1,0,1.9-1.5,3.6-2
		c0.6-0.1,0.5-0.3,1-0.3c0.7,0,2.1,1.3,2.1,2c0,0.6-0.2,0.6-0.3,1c-0.4,1.6-1.8,2.5-1.8,3.6c0,1.1,3.2,3,3.2,10.8
		c0,7.5-4.8,18.9-11.7,27.1c-4.2,5-7.7,7.2-9.1,8.5c-0.8,0.8-1.1,2.3-2.1,3.1c-1,0.9-1.5,0.1-1.8,0.8c-0.3,0.7-1.4,0.9-2.1,0.7
		c-0.7-0.2-0.1,0.3-0.8,0.7c-0.7,0.4-0.8,0.2-1.6,0.5c-0.8,0.2-0.4,0.7-2.6,1.1c0.7,0.4,4.3-0.1,5.1-0.1c0.8,0,3.2-0.7,4-0.7
		c0.8,0,0.8-0.2,1.6-0.2c0.8,0,0.7,0.1,1.2,0.1c0.5,0,2-0.7,3,0c0.4-0.3,2-0.2,2.4-0.2c0.5,0,0.6,0.5,1.2,0.6c0.6,0.1,1.6,0,2.4,0.2
		c0.2,0.1,0.5,0.1,0.9,0.6c1.6-0.1,3,0.8,3.4,1.3c0.7,0.8,1.2,0.2,1.5,0.6c0.3,0.4,1.5,0.7,1.7,1.4c0.1,0.4-0.1,0.6,0.1,0.8
		c0.2,0.2,1.1,0.2,1.3,0.4c0.2,0.1,0.5,0.5,0.7,0.7c0.2,0.4,1,0.6,0.8,1.5c1.3,0,2.3,1.5,2.3,2.3v0.8c0,0,0.3,0.4,0.8,0.5
		c0.5,0.1,1.3,2,1,2.8c-0.2,0.7,0.1,0.6,0.1,1c0,7.2-13.5,12.9-31.6,12.9c-6.9,0-9.7-2.8-10-3.8c-0.2-0.6-0.2-0.8-0.2-1.3
		c-0.2-0.4-1-1.4-0.4-2.4c0,0-0.3-0.6-0.3-1.4c0.1-1.6,0.7-1.5,0.7-2.1c0-0.3-0.1-0.6-0.1-0.9c0-0.8,0.4-0.9,0.6-2.1
		c0.2-0.9,0.4-0.2,0.8-1c0.5-0.8,0.5-0.2,0.5-1.3c0-1,0.3-1.1,1.3-1.5c0,0,0.2-1.5,1.4-1.6c0.5,0,0.2-0.6,0.5-1.1
		c0.2-0.6,0.9-0.1,1.1-0.7c0.1-0.4,1.3-1.4,2.5-1.6c-4.5-0.1-7.2,1-9.1,0.9c-1.4-0.1-1.8-0.3-7.7,0.9c-7.3,1.6-20.5,8.4-27.1,12.5
		c-8.2,5.1-29.5,20-36.5,32.9c-1.1,2-3.6,14.2-6.5,25.2c-3.3,12.6-7.4,24.7-7.6,26.9c1.8-2.5,3.8-4.5,5.9-4.5c3.7,0,2.8,4.5,3.2,4.9
		c0.6,0.3,0.6-0.9,0.6-2.1s0.2-3.8,2-6.6c2-3.1,5.4-6.4,9.7-9.7c4.1-3.2,6.9-11.7,9.1-17.9s6.2-13.1,11.8-13.1c3.9,0,6.2,3.4,7,4.8
		c0.9,1.7,2.1,5.4,3.4,5.2c3.2-0.6,11-17.8,17.6-24.6c3.1-3.2,6.5-7.1,12.4-7.1c10.4,0,8.9,14.5,13,14.5c2.8,0,4.6-4.2,5.9-5.9
		c2.7-3.8,11.1-10.6,16.1-10.6c4.8,0,5.6,3.9,5.6,7.4c0,2.8-0.7,5.3,2.1,5.3c1.7,0,6.8-9,13.2-9c2.5,0,5.2,1.6,5.2,4.8
		c0,3-0.5,4.6-0.5,5.5c0,0.9,0.8,1.5,2,1.5c1.4,0,2.8-0.4,3.9-0.4c2.8,0,5.2,1.7,5.2,5.4c0,4.3-2.3,7.3-5.1,10.5
		c-1.2,1.3-1.5,2.3-0.6,3.8c1.5,2.4,3.9,3,3.9,5.1c0,5.1-3.3,6.8-6.4,7.5c-2.9,0.7-8.5,0.9-8.5,4.8c0,3.4,4.5,5.7,4.5,11.6
		c0,2.5-1,4.7-4.4,6.6c-3.8,2.1-11.3,2.4-12.5,2.4c-3.5,0-8.2-0.7-11-0.7c-2.8,0-5.3,0.1-5.3,1.7c0,3.1,6.4,5.4,6.4,11.9
		c0,6.7-10.3,7.9-16.3,7.9c-7.1,0-12.7-1.3-18.7-3.4c-3.1-1-9.4-4.3-14-4.3c-2.8,0-4.2,0.9-4.2,2.1c0,2,4.8,5.5,4.8,10.4
		c0,4.2-3.5,5.8-6.7,5.8c-11.7,0-19.4-13.7-36.3-13.7c-4.3,0-6,1.7-11.1,1.7c-6.5,0-8.4-2.2-8.3-6c-4.2,1.8-9.2,6-9.2,11.5
		c0,4.4,0.4,6.7,2.1,8.4c1.6,1.7,3.7,2.3,4.1,3.8c1.2,1.1-0.5,4.2,0.3,9.8c0.6,4.3,1.9,9.9,2.6,11.4c0.6,1.3-4.1,1.8-5.4,1.8
		c-2.1,0-9.4,0.2-9.6-1.8c-0.7-5.5-5.4-26-7.1-30.6c-2.3-6.1-3.3-5.5-7.2-8.5c-3.3-2.8-18.8-13.3-27.1-13.3c-2.2,0-1-0.3-2.8-0.3
		c-1.2,0-0.2-0.2-0.9-0.2c-0.7,0-0.6,0.6-1.7,0.6c-0.7,0-0.2,2-0.7,2c-0.7,0-0.5,0.7-0.6,1.5c-0.1,0.8-0.8,1.3-0.9,2
		c-0.1,0.7-0.9,0-0.9,0.8c0,0.8,0.4,0.8,0,1.3c-0.7,0.9-0.6,1.4-1.1,1.4c-0.6,0-0.6,0.2-0.6,0.5c0,1.1,0.5,0.9-0.2,1.5
		c-0.7,0.6-1.6,0.6-1.6,1.5c0,0.4-0.2,0.6-0.3,0.9c-0.5,0-0.9,0.5-1.2,0.8c-0.2,0.4-0.1-0.2-0.6,0.6c-0.5,0.8-0.3,0.7-0.9,0.7
		c-1.6,0-1,0.8-3.4,0.8c-7.7,0-17-13.5-17-24.1c0-7.4,1.1-7.3,1.3-8.8c0.2-1.5,1.4-3,2.3-3.1c0.9-0.1,0.6-0.5,1.6-0.3
		c-0.1-0.6,0.8-0.7,1.3-1c0.7-0.4,1.2-0.4,2.1,0.2c0.3-0.2,0.6-0.6,1.3-0.6c0.7,0,0.9,0.7,1.4,0.7c0.8,0,0.6-0.2,1.3-0.2
		c0.7,0,1,0.1,1.8,0.6c0.3-0.1,0.6-0.4,1-0.2c0.4,0.1,1,0.4,1.1,0.8c0.5,0,1-0.1,2,0.6c0.3,0.2,0.7,0.7,0.8,1
		c0.7,0.1,0.3-0.4,1.4,0.1c1,0.6,1,0.7,1.6,1.5c0.6,0.8,0.5,0.1,1.3,0.6c1.3,0.8,0.7,1.3,1.3,1.7c0.3,0,0.5,0,0.9,0.3
		c0.6,0.5,0.1,0.8,0.6,1.1c0.2,0.1,0.5,0,0.6,0.8c0.1,0.6,0.9,0.9,1.6,1.8c0.4,0.6,1.6,1.7,2,1.7c0.5,0,0.3-0.5-0.4-1.4
		c-0.9-1.2-0.9-0.7-1.6-2.5c-0.2-0.6-0.8-0.3-0.8-1.3c0-0.7-1-1.5-1-2.1c0-0.6,0-0.8-0.4-1c-0.3-0.2-0.4-0.3-0.6-0.7
		c-0.4-0.9,0.1-0.9,0.1-1.5c0-0.6-0.6,0.1-0.7-0.3c-0.1-0.5,0-1,0-1.5s-0.5-0.2-0.5-1c0-0.7,0.1-0.5,0.1-1.3c0-0.8-0.5-0.6-0.6-1.3
		c-0.1-0.7,0.2-0.6,0.2-1.4c0-0.8-0.2-0.1-0.2-0.8c0-0.8,0.3-0.6,0.3-1.6c0-0.3,0.2-0.8,0.4-1.1c0.1-0.5-0.4-0.5,0-1
		c1.2-1.7,3.1-4.6,12.6-4.6c11.8,0,22.4,2.9,26.9,8.9c0.3,0.5,0.8,0.5,0.9,1.5c0.1,0.8,0.4,0.9,0.4,2.2c0,0.7-0.4,1.4-0.6,2.2
		c-0.2,1.4,0.2,2.9-0.6,2.9c-0.7,0-0.2,2.4-0.9,2.4c-0.5,0-0.1,0.8-1.1,0.8c-0.8,0,0,2.3-1.2,2.6c-0.3,0.1-1.2-0.2-1.4,0.9
		c-0.1,0.5-0.6,1.6-1.4,1.7c-1.2,0.2-0.7,0.2-1.3,0.7c-1.5,1.4-0.5,1.6-0.9,2.1c-1.1,1.2-1.4-1.3-2.2-0.3c-0.3,0.5-0.6,0.5-0.6,0.9
		c0,1-0.2,0.7-1,0.5c-0.9-0.3-1.7,0.8-1.4,1.2c0.5,0.6-0.1,0.7-0.7,0.2c-0.2-0.2-0.7-0.1-1.1-0.2c-0.6-0.2-1.3,0-1.3,0.6
		c0,0.9,0.1,0.9-0.2,0.9s-0.2-0.9-0.8-0.9c-0.6,0-1.2,0.1-1.2,0.1c0.2,0.7,9,5,11.2,6c5.2,2.9,9.1,6,11.6,6
		c3.5,0,12.8-23.3,12.2-34.2c-0.2-3.3-0.3-4.1-0.2-4.6c0.2-1-2.2-0.9-2.2-5.5c0-1,0.2-3.2,1-4.3c0.5-0.6,1.7-1.3,2.5-1.3
		c0.8,0,2.9,1.6,3.1,2.5c0.9-1.4,3.5-12.9,3.5-16.5c0-1.3-0.5-2.9-0.9-3.3c-0.5-0.5-4.6-1.3-8.2-5.9c-0.2-0.3-0.7-0.6-1-0.3
		c-0.2,0.2,0,0.3,0,1.2c0,1.2-1.8,4.3-4.9,4.3c-5.2,0-6.6-2.3-12.3-2.3c-2.8,0-4.8,1-6.3,2.3c-2.8,2.3-7.6,4.5-9.8,4.5
		c-5.3,0-2.7-7.4-5.9-7.4c-2.4,0-2.4,3.9-3.3,6.4c-1.5,4.2-11.1,15.5-16.4,15.5c-5.2,0-3.2-9.1-6.2-9.1c-1.9,0-3,2.7-3.6,4.5
		c-2.3,7.6-5.4,13.1-8.5,16.7c-3.1,3.6-7.3,10.1-12,10.1c-4.6,0-3.5-7.3-5.6-9c-1-0.8-3.1-1.7-4.3,0.5c-2.4,4.7-5.1,13.9-11.9,13.9
		c-4.3,0-5.2-3.1-5.3-5.3c-0.1-2.2-0.1-2.7-0.5-3.9c-0.3-1.3-0.7-2.5-2.1-2.5c-0.9,0-2,0.6-2.9,2.9c-0.9,2.3-4.2,7.3-10.1,7.3
		c-5.2,0-7-2.1-7.1-3.7c-0.1-2.1,0.4-5.1-3.6-4c-4.5,1.2-7.2-5.5-7.2-8.2c0-4.9,3.4-8.3,3.4-10c0-2.1-4.7-3.2-4.7-8.3
		c0-11.4,12.1-8.4,12.1-13.7c0-4.9-8.6-7-8.6-12.1c0-10.3,13.5-12.1,16.1-12.1c2.5,0,5.4,0.8,6.8,0.8c1.4,0,5.1-0.7,5.1-2.3
		c0-1.6-1.5-3.9-2.9-5.8c-1.4-1.9-3.2-3.6-3.2-5.8c0-7.2,7.5-9.8,12.8-9.8c10.4,0,17.6,2.1,20.3,3.3c2.9,1.3,5.4,3.5,8,3.5
		c1.3,0,2.2-0.5,2.2-1.6c0-2.4-4-5.4-4-10c0-3.6,3.2-7.4,8.8-7.4c5.5,0,13.5,3.2,17.7,5.8c4.1,2.5,11.3,9.5,14.7,9.5
		c3.6,0-0.5-11,7.5-11c6.8,0,15.4,7.4,21,18c1,2,4,6.2,6.6,7.6c4.2,2.3,9.1,9.9,9.8,15.6c0.2,1.7,1.4,2.8,1.7,2.8
		c-0.4-1.7-0.6-5.2,1.7-5.6c2.2-0.5,5.8,2.3,6.7,3.6c0.7-1.4-1.2-6.4-1.7-7.7c-0.5-1.2-3.7-12-4.5-14c-0.8-2-4.4-10.6-5.5-12.8
		c-2-3.8-6-5.3-8-6.3c-2.9-1.6-6-5.4-6.8-6.1c-0.8-0.7-0.8-0.6-1.3-0.6c-0.4,0-1.1,2.7-5,2.7c-4,0-8.9-6.2-13.7-8.9
		c-6.9-3.8-16.1-5-19.5-5.4c-2.4-0.3-10.5-2.1-14.3-4.5c-2.5-1.6-3.4-3.9-3.4-5.8c0-3.9,4.9-6.2,6-6.7c1.1-0.5,2.4-1.2,2.4-2
		c0-1.1-2.1-2.1-3.6-3c-2-1.1-5-1.5-9-1.6c-4-0.1-10.5-1.1-14.2-2.8c-3.7-1.6-11.7-7.3-11.7-12c0-3.4,1.7-5.8,4.5-7.2
		c2.8-1.4,7.3-2.8,7.3-5c0-1.5-1.6-1.8-2.8-2.7c-1.3-0.9-8.2-2.2-10.5-2.7c-3.4-0.7-17.7-3.5-17.7-12.2c0-8.3,12.5-8.7,12.5-10.4
		c0-1.8-3.7-3-7.6-5.4c-4.6-2.9-9.6-6.9-9.6-10.9c0-7.8,11.2-5.5,11.2-8.4c0-0.6-0.7-1.7-1.1-2.2l-3.5-3.4c-1.2-1.2-2.4-3.6-2.4-4.6
		c0-3.2,3.4-3.1,3.4-4.6c0-0.9-0.4-1.1-0.4-2.1c0-2.1,2.3-4.4,6.8-3.2c1.5,0.4,2.4,0.5,3.8,0.2c1.4-0.2,2.2-2.2,5.1-2.2
		c3.9,0,5.7,4.2,6.6,5.3c0.8,1,1.2,2,2,2c1.2,0,1.4-3,2.5-4.5c0.8-1,3.1-2.8,5.1-2.8c6.2,0,11.2,5.2,13.7,10.9
		c0.5,1.2,1.3,2.7,2.1,2.7c2.4,0,4.6-10.3,12-10.3c4.6,0,6.7,1.6,8.4,3.1c2.8,2.5,3.2,7.8,4.5,11.5c1.1,3.4,0.5,12.8,0.5,14.8
		c0,2,0.5,7.3,2.1,7.3c3,0,5.8-7.5,12.8-7.5c3.1,0,7.8,4.3,7.8,14.1c0,10.7-4.7,14.3-4.7,22.1c0,1.5,0.2,3.1,1.6,3.1
		c1.4,0,2.2-2.3,3.1-3.3c1.3-1.4,3.6-2.3,6.8-2.3c3.8,0,5.5,3.6,5.5,8.3c0,3.3-2,16.5-2,23.2c0,6.7,2.3,10.2,2.3,18.1
		c0,6.2-3,10.2-3,12.9c0,1.2,1.5,3.2,2.7,2.8c-1.3-1.6,0-5.8,1-6.4c0.8-0.5,2.2-0.1,2.9,0.1c-0.8-5.3,1.3-10.3,3.1-10.6
		c2.6-0.6,7.6,4.4,8.1,5.2c0.7-0.7,1.4-1.4,2.4-1.4c1.5,0,3.1,1.1,4.5,2.7c0.4-0.6,0.5-1,0.5-1.8c0-1.3-2.5-7.9-2.5-13.4
		c0-6.7,3.1-12.9,3.1-18.1c0-9.9-3.1-15.9-3.1-20.6c0-9.9,3-15.1,7.6-15.1c4.5,0,7,4.5,9.9,4.5c2.1,0,3.3-4,3.7-6.4
		c1.6-11.3,2.5-35.7,14.9-41.6c2.6-1.3,5.8-0.4,8,2c4.4,4.5,5.2,9.8,8.5,9.8c2.3,0,5.4-5.8,6.6-8.3c1.7-3.9,7.8-10.4,14.1-10.4
		c10.6,0,6.8,11.5,12,11.5c5.4,0,9.6-9.9,18.5-9.9c2.6,0,5.4,2.7,5.4,5.9c0,2.1-0.2,3.7-0.2,4.7c0,1,0,2.3,1.2,2.3
		c1.1,0,4.6-3.7,7.1-3.7c4.5,0,3.5,4.4,5.5,5.8c1.2,0.8,5.6,1.1,5.6,5.8c0,5.9-5.6,5.8-5.6,8.5c0,2,4.9,3.4,4.9,6.6
		c0,3.5-3.5,7.3-6.4,7.6c-2.2,0.2-9.7,0-9.7,3.2c0,0.7,1.9,1.7,3.5,3.1c2,1.7,4.2,3.7,4.2,6.7c0,4.2-4.6,8.2-18.9,8.2
		c-2.3,0-3-0.2-5.4-0.2c-1,0-3,0.1-4.8,0.6c-2.6,0.7-5,1.6-5,2.9c0,4.1,8.1,4,8.1,9.1c0,3.8-2.7,6.3-6.1,8.3
		c-2.3,1.4-11.3,4.9-16.6,4.9c-10.7,0-12.1-1.3-15.2-1.3c-2.7,0-4.8,0.9-4.8,2.5c0,1.6,1.6,2.6,4,3.9c1.5,0.8,7.6,2.9,7.6,8
		c0,5.3-8.8,8.2-12.6,8.9c-9.8,2-15.4,4.7-22.1,11.2c-3.5,3.4-10.7,12.3-18,8.8c-3.1,4.5-7.7,9-8.3,12.8c-1,6.6,8.8,37.4,13,37.4
		c2.7,0,6.5-3.5,12-7.2c3.7-2.4,7.5-5,11.9-8.1c19.2-13.1,35-19.7,35-22.3c0-2-1.6-3.7-2.2-4.7c-0.4-0.9-1-1.3-1.5-2.1
		c-0.5-0.8-0.3-1-0.7-1.7c-0.4-0.7-0.8-1.2-1.1-2.1c-0.2-0.8-0.2-0.9-0.1-1.6c-0.7-0.2-0.7-0.8-0.7-1.5c0-0.7,0.1-0.7,0.1-1.4
		c0-0.7-0.5-0.2-0.5-1.3c0-1.4,0.5-1.3,0.5-2.1c0-0.2-0.8-0.7-0.8-1.3c0-1,0.8-1.3,0.8-2c0-0.7-0.6-0.5-0.6-1.1c0-2.3,0.7-2,0.9-2.6
		c-0.1-0.5,0.1-2,0.9-2.5c0.8-0.6,1.7-1.7,2.4-1.6C382.9,191,383.2,190.1,384.1,190.2"/>
	<polygon class="st0" points="176.1,571.3 176.1,512.3 153.7,512.3 153.7,505.6 211.2,505.6 211.2,512.3 188.6,512.3 188.6,571.3 	
		"/>
	<path class="st0" d="M268.8,562.5c-0.9,4.4-4.6,9.7-12.1,9.7c-8.7,0-13-6.8-13-15.5v-27.9l12.2-0.9v30.4c0,5.7,2.6,8.5,6.5,8.5
		C265.4,566.8,267.5,564.7,268.8,562.5"/>
	<path class="st0" d="M282.4,562.9c0,4.3,0.6,6.9,3.7,6.9c-1.7,1.2-4.6,1.9-7,1.9c-5,0-8.9-2.6-8.9-9.1v-33.8l12.2-0.9V562.9z"/>
	<path class="st0" d="M326.2,531.9c5.9-2.9,12.1-9.2,15.3-14.7h1.6v11.2h10.5v4.7h-10.5v27c0,4.1,2.4,7.6,7.4,7.6
		c2.3,0,4.9-1.1,6.4-3.4c-1.2,3.6-4.7,7.9-12.2,7.9c-8.9,0-13.6-6.7-13.6-15.4v-23.7h-4.8V531.9z"/>
	<path class="st0" d="M220.4,537.2c1.9-5.5,5.9-10.3,12.2-10.3c1.4,0,2.7,0.3,3.8,0.7l-1,8.4c-5.8-3.8-12.5,0-14.1,7v28.3h-11.9
		v-42.6l11.1-0.9L220.4,537.2z"/>
	<path class="st0" d="M304.7,568.2c-5.3,0-9.3-3.6-11.6-7.4l-1.1,7.8c3.2,2,8,3.9,13.3,3.9c10.5,0,16.7-6.5,16.7-13.3
		c0-8.1-5.9-11.4-11.1-14.2c-4.8-2.6-9.6-4.1-9.6-8.4c0-2.2,1.8-5,6.3-5c3.6,0,6.6,2.3,9.2,5.7l1.4-7.2c-2.6-1.3-6.3-2.7-11-2.7
		c-10.1,0-15.2,6.3-15.2,13c0,6.9,4.9,10.8,9.9,13.6c5,2.8,10.1,4.4,10.1,8.6C312.1,565.6,309.1,568.2,304.7,568.2"/>
	<polygon class="st0" points="475.3,486.6 475.3,420.6 487.4,419.6 487.4,486.6 	"/>
	<path class="st0" d="M269.6,446.9c5.9-2.9,12.1-9.2,15.3-14.7h1.6v11.2H297v4.7h-10.5v27c0,4.1,2.4,7.6,7.4,7.6
		c2.3,0,4.9-1.1,6.4-3.4c-1.2,3.6-4.7,7.9-12.2,7.9c-8.9,0-13.5-6.7-13.5-15.4v-23.7h-4.8V446.9z"/>
	<path class="st0" d="M308.7,424.3c0,2.7,2.2,4.7,4.8,4.7c2.6,0,4.8-2,4.8-4.7c0-2.6-2.2-4.7-4.8-4.7
		C310.9,419.6,308.7,421.7,308.7,424.3"/>
	<polygon class="st0" points="319.6,486.6 319.6,443.1 307.5,444.1 307.5,486.6 	"/>
	<path class="st0" d="M420.9,478.6c0,4.3,0.6,6.9,3.6,6.9c-1.7,1.2-4.6,1.9-7,1.9c-5,0-8.9-2.6-8.9-9.1v-23c0-4.9-2.7-7.5-6.3-7.5
		c-2.5,0-5,1.2-6.6,3.3c1.4-4.1,5.3-8.6,12.5-8.6c8.1,0,12.6,6,12.6,13.6V478.6z"/>
	<polygon class="st0" points="394.2,486.6 382,486.6 382,444 394.2,443.1 	"/>
	<path class="st0" d="M350.7,483.6c-6,0-9.6-5.6-9.6-18.5c0-12.9,3.6-18.5,9.6-18.5c5.9,0,9.5,5.7,9.5,18.5
		C360.2,478,356.6,483.6,350.7,483.6 M350.7,442.4c-11.3,0-22.3,8.9-22.3,22.7c0,13.9,11,22.7,22.3,22.7c11.2,0,22.2-8.8,22.2-22.7
		C373,451.3,361.9,442.4,350.7,442.4"/>
	<path class="st0" d="M463.9,478.6c0,4.3,0.6,6.9,3.4,6.9c-1.6,1.2-4.3,1.9-6.4,1.9c-4.7,0-8.3-2.6-8.3-9.1v-15
		c-8.2,4.2-11.1,7.7-11.1,13.1c0,7,6.9,7.9,9.6,4.3c-1.4,3.9-5.1,6.7-9.5,6.7c-6.3,0-11.3-4.3-11.3-10.5c0-10.2,12.9-13.1,22.3-17.7
		v-4.3c0-4.4-2.4-6.7-7.5-6.7c-3,0-7,0.9-9.6,2v-5.2c2-0.8,6.9-1.8,11.5-1.8c8.1,0,16.9,2.9,16.9,15.6V478.6z"/>
	<path class="st0" d="M262.3,478.6c0,4.3,0.6,6.9,3.4,6.9c-1.5,1.2-4.3,1.9-6.4,1.9c-4.7,0-8.3-2.6-8.3-9.1v-15
		c-8.2,4.2-11.1,7.7-11.1,13.1c0,7,6.9,7.9,9.6,4.3c-1.4,3.9-5.1,6.7-9.5,6.7c-6.3,0-11.3-4.3-11.3-10.5c0-10.2,12.9-13.1,22.3-17.7
		v-4.3c0-4.4-2.4-6.7-7.5-6.7c-3,0-7,0.9-9.6,2v-5.2c2-0.8,6.9-1.8,11.5-1.8c8.1,0,17,2.9,17,15.6V478.6z"/>
	<polygon class="st0" points="168.7,441.4 168.7,486.6 160.9,486.6 160.9,419.9 163.9,419.9 212.4,466.2 212.4,420.6 219.7,420.6 
		219.7,487.4 217,487.4 	"/>
</g>
</svg>
