<svg id="Layer_1" data-name="Layer 1" xmlns="http://www.w3.org/2000/svg" viewBox="0 0 447.81 447.81"><defs><style>.cls-1{fill:#0077c0;}.cls-2{fill:#fff;}.cls-3{fill:#231f20;}</style></defs><rect class="cls-1" width="447.81" height="447.81"/><path class="cls-2" d="M73.5,197.69c25.27,13.35,73.33,61.11,96.55,93.87,3.42,4.82,4.93,6.4,10,6.4,7.25,0,18.93-4.92,31.11-10.13,18.23-7.8,40.91-17.5,65-17.5,36.94,0,63.75,23.22,63.75,55.2,0,7.54-.35,14.49-.64,18.93,9.8,8.94,39.05,34.8,68.46,52.73,26.34,16.06,59,21.76,78.89,21.76,9.7,0,14.78,6.23,14.78,12.39a11.89,11.89,0,0,1-6.6,10.51,18.31,18.31,0,0,1-8.67,1.95c-35.78,0-61.22-4.06-100.92-26.2C358.41,402.67,333.27,384.23,320,374c0,0-30.21-3.89-56.29-3.89s-50.35,2.45-76.42,10.76S144.71,395,106.74,395a226.57,226.57,0,0,1-33.24-2.18Z" transform="translate(-73.5 -197.69)"/><path class="cls-3" d="M168.59,303.78s2.2,4.15,11.48,4.15c22,0,57.45-27.62,96.07-27.62,32.26,0,53.77,20.05,53.77,45.22,0,12.22-1,23-1,23s36.31,34.48,73.57,57.2C432.58,424,468,428.93,486.6,428.93c6.36,0,6.6,4.89-.49,4.89-34,0-57.93-3.67-96.07-24.93s-73.57-50.36-73.57-50.36.24-2.69.49-5.62-2-5.62-6.6-5.62-27.13,1.22-37.4-9.54A51,51,0,0,1,259,310.62c-1-5.62-8.31-9.78-17.36-6.84-24,7.77-44.73,21-58.42,21C166.14,324.8,168.59,303.78,168.59,303.78Z" transform="translate(-73.5 -197.69)"/><path class="cls-2" d="M304,325.62a11.67,11.67,0,0,1-10,4.95c-7.11,0-14.73-3.93-17.39-19.3,0,0,5.46-7.11,16.63-7.11,10.29,0,16.13,10.16,13.21,16.89,0,0-3.05-13.46-13.08-13.46-9.14,0-12.44,5-12.44,5s2.15,14.6,12.06,14.6S304,325.62,304,325.62Z" transform="translate(-73.5 -197.69)"/><path class="cls-2" d="M298.53,314.45a3.68,3.68,0,1,1-3.68-3.68A3.68,3.68,0,0,1,298.53,314.45Z" transform="translate(-73.5 -197.69)"/><path class="cls-2" d="M108.92,612V501.51h17.29v19.81q4.28-11.15,11.58-16.66t17.94-5.52c1.32,0,2.28,0,2.88.05a11,11,0,0,1,1.79.26v19.6q-.69-.1-1.59-.15c-.6,0-1.49-.06-2.68-.06q-14.32,0-21.82,8.1t-7.5,23.57V612Z" transform="translate(-73.5 -197.69)"/><path class="cls-2" d="M168.27,576.1h17.19q1,11.24,7.8,17t19.33,5.77q11.53,0,18.19-4.69a14.88,14.88,0,0,0,6.66-12.84q0-6.09-3.33-9.34t-13-5.62l-20-5.36q-16.89-4.23-23.5-11.2T171.05,530q0-14.64,10.68-23.26T211,498.11q19,0,30.22,9.18t11.23,24.65v.42H235.06q-.6-8.77-6.91-13.57T211,514q-10.83,0-16.44,3.91t-5.62,11.46a10.52,10.52,0,0,0,3.53,8.4q3.53,3,13.17,5.31l17.29,4.23q18.48,4.55,25.44,11.61t7,20.17q0,17.22-11.68,26.77T211,615.4q-20.48,0-31.45-10.11T168.27,576.1Z" transform="translate(-73.5 -197.69)"/><path class="cls-2" d="M272,645.5v-144H289.5v15.58q6.66-9.9,15-14.55t19.73-4.64q21.27,0,33.94,15.89t12.67,42.6q0,27-12.82,43t-34,16a44.14,44.14,0,0,1-19.73-4.18,40.35,40.35,0,0,1-14.76-12.74v47Zm16.9-88q0,20.63,7.9,31t23.7,10.36q15.11,0,23.31-11.39t8.2-32.34q0-18.88-8.5-29.71t-23.21-10.84q-15.1,0-23.25,11.14T288.91,557.53Z" transform="translate(-73.5 -197.69)"/><path class="cls-2" d="M387.1,612V460h17.49v56.84a42.19,42.19,0,0,1,14.86-14.18,39.94,39.94,0,0,1,19.63-4.8q21.17,0,34,16.1t12.82,43.12q0,26.61-12.67,42.45T439.28,615.4a40.17,40.17,0,0,1-34.69-17.33V612ZM404,556q0,20.64,8.14,31.77t23.26,11.14q14.72,0,23.21-10.83t8.5-29.71q0-20.94-8.2-32.34t-23.31-11.4q-15.8,0-23.7,10.37T404,556Z" transform="translate(-73.5 -197.69)"/></svg>