<?xml version="1.0" encoding="UTF-8"?>
<svg version="1.1" xmlns="http://www.w3.org/2000/svg" width="759" height="258">
<path d="M0 0 C250.47 0 500.94 0 759 0 C759 85.14 759 170.28 759 258 C508.53 258 258.06 258 0 258 C0 172.86 0 87.72 0 0 Z " fill="#FCFDFD" transform="translate(0,0)"/>
<path d="M0 0 C19.15162909 16.63051395 32.51454032 37.93203502 39.875 62.1875 C40.26816406 63.40179688 40.66132813 64.61609375 41.06640625 65.8671875 C46.96426565 86.17925507 46.23478578 112.12164122 39.875 132.1875 C39.53597656 133.41984375 39.19695312 134.6521875 38.84765625 135.921875 C32.85474585 156.13994994 21.19059942 172.96382152 6.875 188.1875 C6.3490625 188.77789062 5.823125 189.36828125 5.28125 189.9765625 C-9.40043459 205.78184541 -29.74386142 215.29862663 -50.125 221.1875 C-51.25164062 221.51621094 -52.37828125 221.84492188 -53.5390625 222.18359375 C-64.59391968 225.16869084 -75.64480099 225.33378315 -87.04174805 225.30102539 C-88.40295917 225.30074263 -89.76417044 225.30090299 -91.12538147 225.3014679 C-94.78578404 225.30175239 -98.4461532 225.29591231 -102.10654807 225.28889394 C-105.9448757 225.2826021 -109.78320427 225.28205202 -113.62153625 225.28086853 C-120.87436733 225.2777723 -128.12718317 225.26958213 -135.38000757 225.25951904 C-143.6437067 225.24830461 -151.9074066 225.24283407 -160.17111146 225.23782361 C-177.15574976 225.22739792 -194.14037326 225.20983185 -211.125 225.1875 C-211.47336205 214.6525366 -211.73945816 204.11895275 -211.90218258 193.57939243 C-211.98031055 188.68439704 -212.08613338 183.7933543 -212.2565918 178.90063477 C-212.42024138 174.17347301 -212.50938203 169.45009616 -212.54815865 164.72031975 C-212.57576547 162.92131855 -212.6296915 161.12251326 -212.71095085 159.32513618 C-213.30487771 145.63685144 -213.30487771 145.63685144 -209.6768074 141.56028366 C-205.56745526 138.2536715 -200.95702191 136.2075297 -196.125 134.1875 C-194.14333125 133.21340708 -192.16354831 132.23544464 -190.1875 131.25 C-178.86946807 126.39463127 -168.74925101 125.97847594 -157.125 130.1875 C-148.36560661 134.59305087 -141.11824106 140.37992021 -134.125 147.1875 C-133.48949219 147.77273437 -132.85398437 148.35796875 -132.19921875 148.9609375 C-121.88144884 158.70676895 -116.15976153 171.43060307 -110.30859375 184.1171875 C-105.6455655 194.08865481 -101.38995899 199.15233964 -91.23828125 203.42578125 C-86.50961821 205.13019769 -82.19919802 205.33991129 -77.1875 205.3125 C-76.48431641 205.31636719 -75.78113281 205.32023438 -75.05664062 205.32421875 C-71.26961425 205.31712029 -67.81635569 204.99078367 -64.125 204.1875 C-65.12297607 204.17348145 -65.12297607 204.17348145 -66.14111328 204.15917969 C-69.17814019 204.10523981 -72.21366579 204.02163938 -75.25 203.9375 C-76.29671875 203.92332031 -77.3434375 203.90914062 -78.421875 203.89453125 C-84.5834282 203.69954539 -88.45328562 203.34355563 -93.125 199.1875 C-97.33602699 193.37918691 -97.91324426 187.20398409 -97.125 180.1875 C-94.75450129 175.26415653 -91.83559452 172.85342039 -87.125 170.1875 C-83.69335938 169.68579102 -83.69335938 169.68579102 -79.96875 169.69140625 C-79.30339233 169.68995102 -78.63803467 169.68849579 -77.95251465 169.68699646 C-76.55407302 169.68864702 -75.15561162 169.70011346 -73.75732422 169.72094727 C-71.63039104 169.74992655 -69.50595263 169.74153635 -67.37890625 169.72851562 C-55.70183909 169.7818469 -55.70183909 169.7818469 -50.125 173.1875 C-46.75010626 177.31237013 -45.34432672 181.10697201 -44.125 186.1875 C-39.49155566 177.0478039 -36.05235926 167.62020713 -32.65893555 157.96923828 C-30.16011303 150.91416859 -27.43094038 144.01020482 -24.5 137.125 C-21.3316346 129.65343305 -18.91021339 122.21083887 -16.8125 114.375 C-14.06640532 104.14085168 -10.00724239 94.95308275 -5.1237793 85.55932617 C-2.26765606 79.99503925 -0.16767611 75.50356382 -0.125 69.1875 C-0.785 68.1975 -1.445 67.2075 -2.125 66.1875 C-6.48419494 65.40284491 -9.44506203 65.98569097 -13.125 68.3125 C-20.82937878 74.62289585 -24.7249403 85.55994074 -26.125 95.1875 C-26.38131853 98.97833417 -26.43710849 102.7642908 -26.5 106.5625 C-26.90266503 118.31976104 -27.77119068 126.11107571 -36.3125 134.75 C-37.19292969 135.55566406 -38.07335937 136.36132812 -38.98046875 137.19140625 C-42.05207579 140.05040661 -42.10011817 140.79561111 -42.375 145.125 C-42.3445175 149.87264919 -41.15052227 153.93822634 -39.79296875 158.45703125 C-38.81280361 162.46367122 -38.92303698 166.08091859 -39.125 170.1875 C-41.2421875 170.921875 -41.2421875 170.921875 -44.125 171.1875 C-47.1328125 169.640625 -47.1328125 169.640625 -50.25 167.4375 C-51.28382813 166.72078125 -52.31765625 166.0040625 -53.3828125 165.265625 C-54.28773438 164.57984375 -55.19265625 163.8940625 -56.125 163.1875 C-56.69992188 162.76984375 -57.27484375 162.3521875 -57.8671875 161.921875 C-61.46324217 156.96333999 -61.48284275 150.02700145 -61.4375 144.125 C-61.43403564 143.3611499 -61.43057129 142.5972998 -61.42700195 141.81030273 C-61.21789102 130.24912556 -59.57684071 118.59826043 -57.36767578 107.2578125 C-54.85213388 93.82621296 -54.59948376 80.53606377 -54.62402344 66.89550781 C-54.62500732 63.03377284 -54.58298705 59.17395566 -54.5390625 55.3125 C-54.53386211 52.83073325 -54.5311672 50.3489597 -54.53125 47.8671875 C-54.5066571 46.15606277 -54.5066571 46.15606277 -54.48156738 44.41036987 C-54.55683539 35.68131737 -56.80350305 30.15484358 -62.375 23.5 C-72.17910219 15.25564134 -81.71725313 10.6828479 -94.69140625 10.8515625 C-97.30245482 10.96244076 -97.30245482 10.96244076 -99.125 13.1875 C-98.97295621 17.06461658 -98.3917802 20.37482315 -97.17993164 24.06640625 C-93.60205827 35.21084016 -93.64755777 45.97916662 -93.68164062 57.6050415 C-93.71773554 78.51865933 -92.35648981 98.49637112 -88.65942383 119.06030273 C-87.21850339 127.49189243 -86.94284853 135.83340379 -86.9375 144.375 C-86.92525391 145.41591797 -86.91300781 146.45683594 -86.90039062 147.52929688 C-86.87619203 160.23355733 -86.87619203 160.23355733 -90.5078125 165.00390625 C-92.27582065 166.29788323 -94.00476661 167.22054595 -96 168.125 C-98.73380359 169.41443569 -100.47510541 170.4887535 -102.8125 172.5 C-105.125 174.1875 -105.125 174.1875 -107.76953125 173.79296875 C-108.93548828 173.49326172 -108.93548828 173.49326172 -110.125 173.1875 C-110.15212153 171.270912 -110.17145097 169.3542127 -110.1875 167.4375 C-110.19910156 166.37015625 -110.21070312 165.3028125 -110.22265625 164.203125 C-110.13859402 161.60728348 -109.76597283 159.66821165 -109.125 157.1875 C-108.98367213 155.21162764 -108.90497266 153.23069351 -108.875 151.25 C-108.84921875 150.23035156 -108.8234375 149.21070313 -108.796875 148.16015625 C-109.27020926 143.87197323 -110.89197487 141.35861592 -113.9921875 138.4140625 C-114.65476562 137.88554687 -115.31734375 137.35703125 -116 136.8125 C-124.31219428 129.7051926 -126.56166492 122.69726297 -128.76171875 112.12890625 C-130.34751962 104.93322021 -132.61223224 99.98178396 -137.125 94.1875 C-137.96499009 93.08214244 -138.80482174 91.97666447 -139.64453125 90.87109375 C-153.51137463 71.83235293 -153.51137463 71.83235293 -174.125 62.1875 C-177.06955042 61.90903815 -179.98103378 61.85429646 -182.9375 61.875 C-183.72141113 61.87701416 -184.50532227 61.87902832 -185.31298828 61.88110352 C-191.61281212 61.9894527 -197.17100671 63.1132749 -203.125 65.1875 C-204.45635841 65.52863586 -205.78945457 65.86314326 -207.125 66.1875 C-205.9186933 59.8211433 -204.10830163 54.01616051 -201.5625 48.0625 C-201.03523315 46.82862549 -201.03523315 46.82862549 -200.49731445 45.56982422 C-194.62972177 32.19331798 -187.00908127 20.9050948 -177.125 10.1875 C-176.26132813 9.24132813 -175.39765625 8.29515625 -174.5078125 7.3203125 C-128.13904054 -41.24994418 -50.63190096 -42.70307414 0 0 Z " fill="#010101" transform="translate(212.125,31.8125)"/>
<path d="M0 0 C46.53 0 93.06 0 141 0 C141 0.33 141 0.66 141 1 C140.0884314 1.02187378 140.0884314 1.02187378 139.15844727 1.04418945 C126.1771872 1.39020967 113.68830681 2.18037626 101 5 C99.76378906 5.26554688 98.52757813 5.53109375 97.25390625 5.8046875 C64.97498709 13.52430203 37.36489813 34.87199207 19.85498047 62.828125 C14.29918762 72.09197534 6 86.05112289 6 97 C6.59167969 96.79503906 7.18335938 96.59007813 7.79296875 96.37890625 C8.58316406 96.10949219 9.37335937 95.84007813 10.1875 95.5625 C10.96480469 95.29566406 11.74210938 95.02882813 12.54296875 94.75390625 C22.99573126 91.54661982 38.12643443 90.84631112 48 96 C59.98358326 103.79587242 68.6232365 115.63048737 77 127 C77.81017578 128.08087891 77.81017578 128.08087891 78.63671875 129.18359375 C82.42570317 134.65657125 83.60299595 140.56728369 85 147 C87.39495109 157.58234203 90.62653262 163.44139762 99.1328125 170.2265625 C102.23302513 173.17111592 103.85479074 175.68447323 104.328125 179.97265625 C104.30234375 180.99230469 104.2765625 182.01195312 104.25 183.0625 C104.23453125 184.08472656 104.2190625 185.10695312 104.203125 186.16015625 C104 189 104 189 103.48828125 190.98046875 C102.81582633 193.76174228 102.90645712 196.39405507 102.9375 199.25 C102.94652344 200.32765625 102.95554687 201.4053125 102.96484375 202.515625 C102.97644531 203.33546875 102.98804687 204.1553125 103 205 C106.86372194 204.44220916 109.32330495 203.37329474 112.5 201.125 C114.97090694 199.38590909 117.21578177 197.89440466 119.9375 196.5625 C122.91921299 194.30362652 123.34492352 191.53260506 124 188 C124.33381116 184.47529277 124.38029543 180.97661344 124.375 177.4375 C124.37483887 176.40898926 124.37467773 175.38047852 124.37451172 174.32080078 C124.16925788 159.782347 122.04395042 145.19234803 119.43408203 130.90112305 C117.15922899 117.59640081 117.64177814 104.03640709 117.61914062 90.5793457 C117.58182808 77.35857976 117.2040626 65.59045577 113 53 C112.35218645 50.19708926 112.05565008 47.89380432 112 45 C113.15234375 43.32421875 113.15234375 43.32421875 115 42 C126.7155497 39.99316973 137.00876765 44.71741369 146.55078125 51.07421875 C150.15069247 53.90477095 152.70164037 57.05890256 155 61 C155.51046875 61.78705322 156.0209375 62.57410645 156.546875 63.38500977 C158.63140019 68.57075648 158.4667219 73.38840553 158.46875 78.9296875 C158.47822159 80.10100723 158.48769318 81.27232697 158.49745178 82.47914124 C158.51838702 86.27801577 158.51196773 90.07609492 158.5 93.875 C158.50034744 95.80449997 158.50034744 95.80449997 158.5007019 97.77297974 C158.47721846 116.67183287 157.37546719 134.62478239 153.55029297 153.12866211 C151.4319528 164.18181152 149.23521591 180.42256852 153.625 191.1015625 C157.37648988 196.28117637 163.11691142 200.38243504 169.35546875 201.71875 C170.22816406 201.8115625 171.10085937 201.904375 172 202 C172.25797426 196.75452347 172.01473429 192.54200286 170.5 187.5 C167.73559657 177.87826572 167.73559657 177.87826572 169 173 C170.99033885 169.9671027 173.40720393 167.5227205 176 165 C183.48226191 157.29942276 184.37928848 149.03958284 184.5 138.6875 C184.89192971 125.42703632 186.29288505 112.15669666 195.875 102.015625 C199.35485682 98.97075028 201.72822719 97.11561571 206.4375 96.6875 C210 97 210 97 212 98.5 C213.8698473 103.17461826 212.66225467 107.3956189 210.80761719 111.88867188 C209.20204413 115.27925825 207.54507908 118.64073286 205.875 122 C201.12367122 131.78862461 197.39368076 141.44486078 194.60083008 151.98388672 C192.15930069 160.98558281 188.73888163 169.4447815 185.12988281 178.03491211 C181.70859799 186.18614091 178.58244123 194.39442756 175.72485352 202.76025391 C173.70298739 208.54266666 171.13540006 213.73842162 168 219 C167.67 219 167.34 219 167 219 C166.84144531 218.33613281 166.68289062 217.67226562 166.51953125 216.98828125 C165.0376942 211.38022389 163.75312617 207.68367278 159 204 C153.82001214 202.27333738 148.28162057 202.73499241 142.85864258 202.70483398 C141.41648543 202.69332008 139.97437071 202.67287709 138.5324707 202.64331055 C136.44192739 202.60046075 134.35264766 202.58444254 132.26171875 202.57421875 C131.01350342 202.55963623 129.76528809 202.54505371 128.47924805 202.5300293 C123.50647733 203.20174241 120.40915901 205.40295312 117.125 209.125 C115.00578567 214.54076995 115.12198354 220.44972727 117.25 225.875 C119.29016273 229.51814773 121.23372 232.11686 125 234 C126.88472859 234.15344209 128.77427874 234.24959571 130.6640625 234.31640625 C131.78554687 234.35830078 132.90703125 234.40019531 134.0625 234.44335938 C135.238125 234.48267578 136.41375 234.52199219 137.625 234.5625 C138.80835938 234.60568359 139.99171875 234.64886719 141.2109375 234.69335938 C144.14050328 234.79967426 147.07015588 234.90170642 150 235 C145.76433453 239.23566547 138.91104563 238.30524078 133.234375 238.31689453 C123.46559012 238.13706008 115.07733177 234.79987853 108 228 C103.50081037 222.23521047 100.52714596 216.02968483 97.75 209.3125 C88.91497129 188.97632836 73.59929763 170.41555955 52.5 162 C37.39877221 157.68536349 25.48908239 161.7835656 12.11303711 169.09375 C10.40077484 170.04843779 8.70002536 171.02368826 7 172 C5.68042046 172.55793999 5.68042046 172.55793999 4.33418274 173.12715149 C1.63110791 174.8778706 1.63110791 174.8778706 1.36076355 178.47380066 C1.32845077 179.93816607 1.32390323 181.40329294 1.34057617 182.86791992 C1.33006131 183.68108075 1.31954645 184.49424158 1.30871296 185.33204365 C1.28030652 187.96525436 1.286006 190.59713862 1.29296875 193.23046875 C1.28044637 194.85569108 1.26569049 196.48089779 1.24865723 198.1060791 C1.20118278 204.1330669 1.19697506 210.16033267 1.1875 216.1875 C1.125625 229.655625 1.06375 243.12375 1 257 C46.87 257 92.74 257 140 257 C140 257.33 140 257.66 140 258 C93.8 258 47.6 258 0 258 C0 172.86 0 87.72 0 0 Z " fill="#FDFDFD" transform="translate(0,0)"/>
<path d="M0 0 C4.3049777 -0.07451364 8.60960734 -0.12877223 12.91503906 -0.16479492 C14.37767075 -0.17982196 15.84025782 -0.20024955 17.30273438 -0.22631836 C19.4128728 -0.26297267 21.52241226 -0.27978676 23.6328125 -0.29296875 C24.90012207 -0.3086792 26.16743164 -0.32438965 27.47314453 -0.34057617 C32.15598661 0.11162961 35.53637179 1.51475703 38.8515625 4.87890625 C40.94038441 8.73683243 40.51086551 12.74048621 40 17 C38.64997474 20.24006063 37.80043735 21.51973759 34.8125 23.3125 C34.214375 23.539375 33.61625 23.76625 33 24 C34.093125 24.4125 35.18625 24.825 36.3125 25.25 C39.61323628 26.49556086 41.21087251 27.93752952 43 31 C43.78607483 35.33651281 43.98763212 39.93938483 42.05078125 43.98046875 C37.97665604 49.1855814 33.21522281 50.11311286 27 51 C24.83708832 51.0777124 22.67209527 51.10796236 20.5078125 51.09765625 C19.30898438 51.09443359 18.11015625 51.09121094 16.875 51.08789062 C15.01875 51.07532227 15.01875 51.07532227 13.125 51.0625 C11.86429687 51.05798828 10.60359375 51.05347656 9.3046875 51.04882812 C6.20307614 51.0370796 3.10156275 51.02065167 0 51 C0 48.69 0 46.38 0 44 C2.475 43.505 2.475 43.505 5 43 C5 31.45 5 19.9 5 8 C3.35 7.67 1.7 7.34 0 7 C0 4.69 0 2.38 0 0 Z " fill="#050505" transform="translate(286,100)"/>
<path d="M0 0 C6.7665216 -1.76335413 13.46165027 -3.11124092 20 0 C26.81237712 7.11881178 31.18244266 16.33040515 35.52978516 25.08911133 C36.96942789 28.08415686 36.96942789 28.08415686 39 31 C39 23.41 39 15.82 39 8 C36.525 7.505 36.525 7.505 34 7 C34 4.69 34 2.38 34 0 C40.93 0 47.86 0 55 0 C55 2.31 55 4.62 55 7 C53.02 7 51.04 7 49 7 C49 21.19 49 35.38 49 50 C44.38 50 39.76 50 35 50 C31.83495298 46.8151508 30.46543518 45.02963384 28.5625 41.1875 C28.08006836 40.32342529 27.59763672 39.45935059 27.10058594 38.5690918 C26.1420382 36.85209558 25.20244695 35.12435601 24.28369141 33.38574219 C22.59365765 30.2448122 20.70373475 27.29595868 18.75 24.3125 C17.8425 22.889375 16.935 21.46625 16 20 C16 27.59 16 35.18 16 43 C17.65 43.33 19.3 43.66 21 44 C21 45.98 21 47.96 21 50 C14.07 50 7.14 50 0 50 C0 48.02 0 46.04 0 44 C2.475 43.505 2.475 43.505 5 43 C5.33 31.12 5.66 19.24 6 7 C4.02 7 2.04 7 0 7 C0 4.69 0 2.38 0 0 Z " fill="#020202" transform="translate(350,171)"/>
<path d="M0 0 C1.010625 0.556875 2.02125 1.11375 3.0625 1.6875 C4.5165625 2.3371875 4.5165625 2.3371875 6 3 C8.03412421 2.07137808 10.03247172 1.06246527 12 0 C14.97397436 -0.58071689 16.88685329 -0.39532022 20 0 C22.69105198 2.17574416 24.45532928 3.91065856 26 7 C26.08471364 8.81341842 26.10721083 10.62994161 26.09765625 12.4453125 C26.09443359 13.52167969 26.09121094 14.59804687 26.08789062 15.70703125 C26.07532227 17.39892578 26.07532227 17.39892578 26.0625 19.125 C26.05798828 20.26066406 26.05347656 21.39632812 26.04882812 22.56640625 C26.03701615 25.37765638 26.02054507 28.1888023 26 31 C27.32 31 28.64 31 30 31 C30 33.31 30 35.62 30 38 C24.39 38 18.78 38 13 38 C12.67 29.09 12.34 20.18 12 11 C10.35 11 8.7 11 7 11 C7 17.6 7 24.2 7 31 C7.99 31 8.98 31 10 31 C10 33.31 10 35.62 10 38 C4.72 38 -0.56 38 -6 38 C-6.495 24.14 -6.495 24.14 -7 10 C-8.65 10.33 -10.3 10.66 -12 11 C-12 17.6 -12 24.2 -12 31 C-11.01 31 -10.02 31 -9 31 C-9 33.31 -9 35.62 -9 38 C-15.6 38 -22.2 38 -29 38 C-29 35.69 -29 33.38 -29 31 C-28.01 30.67 -27.02 30.34 -26 30 C-26 23.4 -26 16.8 -26 10 C-27.32 9.34 -28.64 8.68 -30 8 C-29.67 5.69 -29.34 3.38 -29 1 C-26.70858714 0.94615479 -24.41681812 0.90727913 -22.125 0.875 C-20.21074219 0.84019531 -20.21074219 0.84019531 -18.2578125 0.8046875 C-15 1 -15 1 -13 3 C-12.154375 2.505 -11.30875 2.01 -10.4375 1.5 C-6.53927904 -0.20104187 -4.21193707 -0.45127897 0 0 Z " fill="#050505" transform="translate(599,113)"/>
<path d="M0 0 C5.61 0 11.22 0 17 0 C17 15.18 17 30.36 17 46 C18.32 46 19.64 46 21 46 C21 48.31 21 50.62 21 53 C18.54101345 53.08076963 16.08466258 53.14037143 13.625 53.1875 C12.92632812 53.21263672 12.22765625 53.23777344 11.5078125 53.26367188 C9.4765625 53.29296875 9.4765625 53.29296875 6 53 C5.34 52.01 4.68 51.02 4 50 C3.401875 50.495 2.80375 50.99 2.1875 51.5 C-2.52048577 53.71552272 -6.88272413 53.67048645 -12 53 C-15.85868899 51.07065551 -16.80372054 49.37225416 -18.8125 45.5625 C-21.08767969 38.56697624 -21.42083519 30.19749726 -18.3125 23.4375 C-16.00608428 19.54696245 -13.04350689 17.02175345 -9 15 C-4.44452917 14.74214316 -1.1219364 15.00148538 3 17 C3.33 14.03 3.66 11.06 4 8 C2.68 7.67 1.36 7.34 0 7 C0 4.69 0 2.38 0 0 Z " fill="#080808" transform="translate(391,98)"/>
<path d="M0 0 C5.28 0 10.56 0 16 0 C16 6.27 16 12.54 16 19 C18.31 17.68 20.62 16.36 23 15 C26.5698891 14.43909232 29.58228852 14.83078291 33 16 C36.78456479 18.92998564 39.22559117 22.24529634 40 27 C40.14411629 29.45551985 40.22054408 31.91543102 40.25 34.375 C40.27578125 35.66148437 40.3015625 36.94796875 40.328125 38.2734375 C39.8512787 43.689049 38.01533956 46.86083854 34.4375 50.875 C30.95946236 53.57047917 27.63032339 53.5817049 23.34765625 53.375 C20.38154385 52.90121166 18.33867645 51.87094116 16 50 C15.67 50.99 15.34 51.98 15 53 C11.04 53 7.08 53 3 53 C3 38.48 3 23.96 3 9 C1.68 8.34 0.36 7.68 -1 7 C-0.67 4.69 -0.34 2.38 0 0 Z " fill="#050505" transform="translate(631,98)"/>
<path d="M0 0 C1.093125 0.495 2.18625 0.99 3.3125 1.5 C3.3125 5.46 3.3125 9.42 3.3125 13.5 C0.3425 13.5 -2.6275 13.5 -5.6875 13.5 C-6.3475 11.85 -7.0075 10.2 -7.6875 8.5 C-9.0075 8.83 -10.3275 9.16 -11.6875 9.5 C-11.16868887 13.6724106 -9.97598726 15.75416821 -7.125 18.8125 C-6.48433594 19.50988281 -5.84367187 20.20726562 -5.18359375 20.92578125 C-4.68988281 21.44527344 -4.19617188 21.96476562 -3.6875 22.5 C-3.0275 21.51 -2.3675 20.52 -1.6875 19.5 C1.3515625 19.20703125 1.3515625 19.20703125 4.9375 19.3125 C6.12601562 19.33957031 7.31453125 19.36664063 8.5390625 19.39453125 C9.45429688 19.42933594 10.36953125 19.46414062 11.3125 19.5 C11.3125 21.48 11.3125 23.46 11.3125 25.5 C10.3225 25.83 9.3325 26.16 8.3125 26.5 C7.00642973 29.05942919 6.44069989 31.63501105 6.3125 34.5 C8.14682766 37.25149149 9.4445568 38.2106856 12.5625 39.25 C13.14 39.3325 13.7175 39.415 14.3125 39.5 C14.3125 41.48 14.3125 43.46 14.3125 45.5 C12.04192623 45.55398987 9.77098712 45.59278742 7.5 45.625 C5.60314453 45.65980469 5.60314453 45.65980469 3.66796875 45.6953125 C0.3125 45.5 0.3125 45.5 -2.6875 43.5 C-4.110625 44.180625 -4.110625 44.180625 -5.5625 44.875 C-10.99766638 47.4422488 -16.82391912 47.28918636 -22.6875 46.5 C-26.51944719 44.93501989 -28.91781377 42.73819089 -31.125 39.1875 C-32.47533162 32.73591557 -32.29079193 28.09131507 -28.6875 22.5 C-26 19.625 -26 19.625 -23.6875 17.5 C-24.0175 16.84 -24.3475 16.18 -24.6875 15.5 C-25.2134826 11.74298142 -25.51512888 8.07249487 -23.7109375 4.64453125 C-17.61597077 -2.92743661 -8.72699844 -3.28234701 0 0 Z " fill="#040404" transform="translate(317.6875,175.5)"/>
<path d="M0 0 C5.61 0 11.22 0 17 0 C17.33 5.94 17.66 11.88 18 18 C19.65 17.01 21.3 16.02 23 15 C27.28931609 14.09826878 30.23984367 14.51479383 33.9375 16.875 C37.07233016 20.10482501 37.15419399 22.04240836 37.31640625 26.4453125 C37.35830078 27.52167969 37.40019531 28.59804687 37.44335938 29.70703125 C37.48267578 30.83496094 37.52199219 31.96289062 37.5625 33.125 C37.60568359 34.26066406 37.64886719 35.39632812 37.69335938 36.56640625 C37.7996604 39.37747768 37.90169405 42.18863945 38 45 C38.99 45.33 39.98 45.66 41 46 C41 48.31 41 50.62 41 53 C35.39 53 29.78 53 24 53 C23.67 44.09 23.34 35.18 23 26 C21.02 26 19.04 26 17 26 C17 32.27 17 38.54 17 45 C18.32 45.33 19.64 45.66 21 46 C21 47.98 21 49.96 21 52 C14.07 52 7.14 52 0 52 C0 50.02 0 48.04 0 46 C1.485 45.505 1.485 45.505 3 45 C3.33 32.79 3.66 20.58 4 8 C2.35 7.67 0.7 7.34 -1 7 C-0.67 4.69 -0.34 2.38 0 0 Z " fill="#050505" transform="translate(515,169)"/>
<path d="M0 0 C1 1 1 1 1.09765625 4.37890625 C1.09098369 5.77347077 1.07902532 7.16801743 1.0625 8.5625 C1.05798828 9.27341797 1.05347656 9.98433594 1.04882812 10.71679688 C1.03700864 12.47790013 1.01907263 14.23896036 1 16 C-1.97 16 -4.94 16 -8 16 C-8.66 13.36 -9.32 10.72 -10 8 C-16.24208718 7.49660153 -16.24208718 7.49660153 -21.9375 9.75 C-25.94354478 14.12023067 -26.31590674 17.45385579 -26.375 23.375 C-26.40335937 24.66148438 -26.43171875 25.94796875 -26.4609375 27.2734375 C-25.92819679 31.58051071 -24.72502275 33.66504436 -22 37 C-18.68629 39.20914 -17.6553979 39.22481553 -13.8125 39.125 C-12.91144531 39.10695312 -12.01039063 39.08890625 -11.08203125 39.0703125 C-10.39496094 39.04710937 -9.70789063 39.02390625 -9 39 C-8.67 36.36 -8.34 33.72 -8 31 C-5.03 31 -2.06 31 1 31 C1 35.95 1 40.9 1 46 C-7.80489066 49.84213411 -18.32727433 50.70922206 -27.69921875 48.30859375 C-33.54235767 45.64857432 -36.85718072 41.16741587 -39.8125 35.5625 C-42.33899706 28.012049 -42.37113363 18.43942625 -39.5 11 C-36.19147551 4.84730534 -31.08071264 0.51252748 -24.5625 -1.9375 C-15.95842259 -4.30545977 -8.34069149 -2.87455975 0 0 Z " fill="#040404" transform="translate(524,102)"/>
<path d="M0 0 C4.19677192 2.51806315 6.90761912 5.44023823 9.125 9.875 C9.2751182 12.28843878 9.3465537 14.7070643 9.375 17.125 C9.40078125 18.42953125 9.4265625 19.7340625 9.453125 21.078125 C9.04813777 25.7644058 7.81010969 29.02752297 4.625 32.51953125 C-2.11515624 37.76772582 -8.55216294 37.65843427 -16.875 36.875 C-21.14148519 35.53968784 -23.74219875 33.54830928 -26.2421875 29.85546875 C-29.62682117 23.19124177 -29.97304891 16.72012018 -27.75 9.625 C-25.67315599 4.70719014 -22.34629788 2.04109254 -17.515625 -0.23828125 C-12.00821132 -2.08766425 -5.4744439 -2.02890574 0 0 Z " fill="#050505" transform="translate(433.875,185.125)"/>
<path d="M0 0 C2.8100346 1.79363911 4.50940468 3.01880935 6 6 C6.15306901 7.81171098 6.24946661 9.6283794 6.31640625 11.4453125 C6.35830078 12.52167969 6.40019531 13.59804687 6.44335938 14.70703125 C6.48267578 15.83496094 6.52199219 16.96289062 6.5625 18.125 C6.60568359 19.26066406 6.64886719 20.39632812 6.69335938 21.56640625 C6.7996604 24.37747768 6.90169405 27.18863945 7 30 C7.99 30.33 8.98 30.66 10 31 C10 32.98 10 34.96 10 37 C4.39 37 -1.22 37 -7 37 C-7.495 24.13 -7.495 24.13 -8 11 C-9.98 11 -11.96 11 -14 11 C-14 17.27 -14 23.54 -14 30 C-12.68 30.33 -11.36 30.66 -10 31 C-10 32.98 -10 34.96 -10 37 C-16.93 37 -23.86 37 -31 37 C-31 35.02 -31 33.04 -31 31 C-30.01 30.67 -29.02 30.34 -28 30 C-28 23.4 -28 16.8 -28 10 C-29.32 9.34 -30.64 8.68 -32 8 C-31.67 5.69 -31.34 3.38 -31 1 C-26.38 1 -21.76 1 -17 1 C-17 1.99 -17 2.98 -17 4 C-16.1646875 3.566875 -16.1646875 3.566875 -15.3125 3.125 C-9.90204813 0.49288828 -6.01920684 -0.80256091 0 0 Z " fill="#030303" transform="translate(630,184)"/>
<path d="M0 0 C2.56340195 1.79438137 3.86718437 3.10388247 5.5 5.75 C5.93237305 8.31542969 5.93237305 8.31542969 6.01171875 11.171875 C6.04716797 12.19667969 6.08261719 13.22148438 6.11914062 14.27734375 C6.15297852 15.87255859 6.15297852 15.87255859 6.1875 17.5 C6.22166016 18.57894531 6.25582031 19.65789062 6.29101562 20.76953125 C6.37340663 23.42958377 6.44258645 26.08931035 6.5 28.75 C7.82 29.08 9.14 29.41 10.5 29.75 C10.5 32.06 10.5 34.37 10.5 36.75 C5.55 36.75 0.6 36.75 -4.5 36.75 C-4.5 35.43 -4.5 34.11 -4.5 32.75 C-5.428125 33.41 -6.35625 34.07 -7.3125 34.75 C-12.16996864 37.52569636 -17.05211792 37.57020412 -22.5 36.75 C-25.125 35.3125 -25.125 35.3125 -26.5 32.75 C-27.62128906 28.48751108 -27.97909971 25.04638746 -26.4375 20.875 C-23.14585482 17.26480852 -20.37324426 15.86005011 -15.44140625 15.5703125 C-12.45441589 15.56327601 -9.48390796 15.61963509 -6.5 15.75 C-6.83 13.44 -7.16 11.13 -7.5 8.75 C-10.47 8.255 -10.47 8.255 -13.5 7.75 C-13.5 8.74 -13.5 9.73 -13.5 10.75 C-17.46 10.75 -21.42 10.75 -25.5 10.75 C-25.375 7.5 -25.375 7.5 -24.5 3.75 C-17.61127331 -2.06714698 -8.42997429 -3.0107051 0 0 Z " fill="#070707" transform="translate(557.5,114.25)"/>
<path d="M0 0 C2.44576922 1.80214574 3.79067763 3.17148781 5.375 5.75 C5.71557617 8.31542969 5.71557617 8.31542969 5.66796875 11.171875 C5.6534668 12.70908203 5.6534668 12.70908203 5.63867188 14.27734375 C5.61353516 15.34082031 5.58839844 16.40429688 5.5625 17.5 C5.54219727 19.11841797 5.54219727 19.11841797 5.52148438 20.76953125 C5.48616584 23.4301942 5.43684199 26.08984296 5.375 28.75 C6.695 29.08 8.015 29.41 9.375 29.75 C9.375 31.73 9.375 33.71 9.375 35.75 C7.08358714 35.80384521 4.79181812 35.84272087 2.5 35.875 C1.22382812 35.89820313 -0.05234375 35.92140625 -1.3671875 35.9453125 C-4.625 35.75 -4.625 35.75 -6.625 33.75 C-7.24375 34.245 -7.8625 34.74 -8.5 35.25 C-12.89650585 37.36032281 -16.82648981 37.47489809 -21.625 36.75 C-25.18180172 34.64495409 -26.31968936 33.66593192 -27.625 29.75 C-28.00070107 25.69242848 -28.05682525 23.46970875 -25.9375 19.9375 C-21.76012914 15.98593297 -17.94035149 15.50131096 -12.3125 15.625 C-11.24386719 15.64304688 -10.17523437 15.66109375 -9.07421875 15.6796875 C-8.26597656 15.70289063 -7.45773437 15.72609375 -6.625 15.75 C-6.955 13.44 -7.285 11.13 -7.625 8.75 C-10.1 8.255 -10.1 8.255 -12.625 7.75 C-12.955 8.74 -13.285 9.73 -13.625 10.75 C-17.585 10.75 -21.545 10.75 -25.625 10.75 C-25.25765306 4.38265306 -25.25765306 4.38265306 -22.25 1.375 C-15.77453968 -2.63361829 -7.06185093 -2.43512101 0 0 Z " fill="#050505" transform="translate(586.625,185.25)"/>
<path d="M0 0 C3.48532834 2.07883221 5.04788305 5.266192 6.51171875 8.92578125 C6.90617815 12.27868614 6.76171875 15.6747526 6.76171875 19.05078125 C0.16171875 19.05078125 -6.43828125 19.05078125 -13.23828125 19.05078125 C-12.57828125 21.03078125 -11.91828125 23.01078125 -11.23828125 25.05078125 C-5.89198523 26.05321175 -1.61453359 25.8996632 3.76171875 25.05078125 C6.76171875 30.80078125 6.76171875 30.80078125 6.76171875 33.05078125 C-0.88840309 36.21634891 -7.98459251 36.96223154 -16.23828125 36.05078125 C-20.75593303 33.94773646 -23.45870926 31.16866568 -26.23828125 27.05078125 C-28.23904534 20.98223852 -28.07420219 13.70605954 -26.17578125 7.67578125 C-19.39880031 -1.50593487 -10.73578479 -4.45039409 0 0 Z " fill="#050505" transform="translate(360.23828125,114.94921875)"/>
<path d="M0 0 C5.28 0 10.56 0 16 0 C16 1.32 16 2.64 16 4 C14.35 4 12.7 4 11 4 C11.25394531 5.00417969 11.50789063 6.00835937 11.76953125 7.04296875 C13.94455298 15.67521873 16.02702257 24.31889932 18 33 C20.31 24.75 22.62 16.5 25 8 C27.31 8 29.62 8 32 8 C34.29557251 14.65716027 36.26154337 21.36745966 38.1328125 28.15625 C38.71837531 30.8750773 38.71837531 30.8750773 40 32 C40.26478149 30.83428467 40.26478149 30.83428467 40.53491211 29.64501953 C41.33311968 26.1377359 42.13525881 22.63136309 42.9375 19.125 C43.21529297 17.90167969 43.49308594 16.67835937 43.77929688 15.41796875 C44.18051758 13.66806641 44.18051758 13.66806641 44.58984375 11.8828125 C44.83597412 10.80402832 45.08210449 9.72524414 45.33569336 8.61376953 C46 6 46 6 47 4 C45.35 4 43.7 4 42 4 C42 2.68 42 1.36 42 0 C46.95 0 51.9 0 57 0 C57 1.32 57 2.64 57 4 C55.68 4.33 54.36 4.66 53 5 C50.03 17.21 47.06 29.42 44 42 C41.03 42 38.06 42 35 42 C34.66226563 40.91460937 34.32453125 39.82921875 33.9765625 38.7109375 C33.52607249 37.26561539 33.07554993 35.82030343 32.625 34.375 C32.40328125 33.66214844 32.1815625 32.94929688 31.953125 32.21484375 C31.73398437 31.51230469 31.51484375 30.80976562 31.2890625 30.0859375 C31.09006348 29.4470459 30.89106445 28.8081543 30.68603516 28.14990234 C29.81648583 25.42490186 28.90452992 22.71358975 28 20 C26.02 27.26 24.04 34.52 22 42 C19.03 42 16.06 42 13 42 C11.71519002 37.05287412 10.43352133 32.10494933 9.15478516 27.15625 C8.71912983 25.47210593 8.28260974 23.78818531 7.84521484 22.10449219 C7.21746159 19.68742865 6.59280029 17.26958435 5.96875 14.8515625 C5.77188599 14.0963028 5.57502197 13.34104309 5.37219238 12.56289673 C4 7.22774341 4 7.22774341 4 5 C2.68 4.67 1.36 4.34 0 4 C0 2.68 0 1.36 0 0 Z " fill="#127E90" transform="translate(285,38)"/>
<path d="M0 0 C0 3.63 0 7.26 0 11 C-2.97 11 -5.94 11 -9 11 C-9.66 9.68 -10.32 8.36 -11 7 C-13.31 7 -15.62 7 -18 7 C-18.33 7.99 -18.66 8.98 -19 10 C-18.13117187 10.15855469 -17.26234375 10.31710938 -16.3671875 10.48046875 C-9.58976643 11.85263118 -4.75430108 12.84950716 0 18 C1.5547669 21.10953379 1.28644437 23.56266761 1 27 C-1.48670393 31.97340785 -3.8973543 33.94823687 -9 36 C-11.76310463 36.25904106 -14.25200517 36.37706755 -17 36.3125 C-17.68578125 36.31572266 -18.3715625 36.31894531 -19.078125 36.32226562 C-23.41143637 36.2767824 -26.97301744 35.57933222 -31 34 C-31 30.7 -31 27.4 -31 24 C-27.7 24 -24.4 24 -21 24 C-21 25.65 -21 27.3 -21 29 C-18.03 28.67 -15.06 28.34 -12 28 C-12 27.01 -12 26.02 -12 25 C-12.96421875 24.76925781 -13.9284375 24.53851563 -14.921875 24.30078125 C-16.18515625 23.97464844 -17.4484375 23.64851563 -18.75 23.3125 C-20.00296875 22.99925781 -21.2559375 22.68601563 -22.546875 22.36328125 C-26.46025337 20.81829363 -27.87383218 19.59448669 -30 16 C-30.98293169 11.37443911 -30.64780551 7.26861912 -28.5 3.0625 C-19.89656937 -4.03533027 -10.12920961 -2.57249768 0 0 Z " fill="#070707" transform="translate(706,115)"/>
<path d="M0 0 C0 3.63 0 7.26 0 11 C-3.3 11 -6.6 11 -10 11 C-10.33 9.68 -10.66 8.36 -11 7 C-13.31 7 -15.62 7 -18 7 C-18.33 7.99 -18.66 8.98 -19 10 C-18.13117188 10.15855469 -17.26234375 10.31710938 -16.3671875 10.48046875 C-3.59788938 13.0657517 -3.59788938 13.0657517 0 18 C0.97220574 23.16435687 0.86591476 27.42852507 -1.6875 32.0625 C-6.39934478 36.01026184 -10.96615562 36.31653308 -16.9375 36.25 C-17.97293945 36.26160156 -17.97293945 36.26160156 -19.02929688 36.2734375 C-23.39420018 36.2568881 -26.94515498 35.59909381 -31 34 C-31 30.7 -31 27.4 -31 24 C-28.03 24 -25.06 24 -22 24 C-21.67 25.65 -21.34 27.3 -21 29 C-18.03 28.67 -15.06 28.34 -12 28 C-12 27.01 -12 26.02 -12 25 C-12.96421875 24.75765625 -13.9284375 24.5153125 -14.921875 24.265625 C-16.81679688 23.76289063 -16.81679688 23.76289063 -18.75 23.25 C-20.00296875 22.92515625 -21.2559375 22.6003125 -22.546875 22.265625 C-26.10455139 20.96168026 -27.73763208 19.99818661 -30 17 C-31.58423671 12.46182193 -31.45105691 8.9368105 -29.375 4.625 C-21.28803388 -4.31322571 -10.6831917 -2.71319154 0 0 Z " fill="#070707" transform="translate(446,115)"/>
<path d="M0 0 C0 3.63 0 7.26 0 11 C-2.97 11 -5.94 11 -9 11 C-9.33 9.68 -9.66 8.36 -10 7 C-12.31 7 -14.62 7 -17 7 C-17.33 7.99 -17.66 8.98 -18 10 C-17.27554688 10.09796875 -16.55109375 10.1959375 -15.8046875 10.296875 C-9.86742726 11.21517125 -5.62165986 12.08936473 -1 16 C1.83438524 20.25157785 1.637752 24.00959059 1 29 C-0.84819135 32.41204556 -2.08427814 33.61585671 -5.64453125 35.109375 C-9.50074209 36.13290943 -13.10541767 36.29433706 -17.0625 36.25 C-17.75666016 36.25773437 -18.45082031 36.26546875 -19.16601562 36.2734375 C-23.21850071 36.25804344 -26.35489452 35.79057813 -30 34 C-30 30.7 -30 27.4 -30 24 C-27.03 24 -24.06 24 -21 24 C-20.67 25.65 -20.34 27.3 -20 29 C-17.03 28.67 -14.06 28.34 -11 28 C-11 27.01 -11 26.02 -11 25 C-11.96421875 24.75765625 -12.9284375 24.5153125 -13.921875 24.265625 C-15.81679688 23.76289063 -15.81679688 23.76289063 -17.75 23.25 C-19.00296875 22.92515625 -20.2559375 22.6003125 -21.546875 22.265625 C-25.10491889 20.96154557 -26.74294614 20.00391354 -29 17 C-30.3402471 12.90602115 -30.47425976 9.1856494 -28.875 5.1875 C-21.25356467 -3.70417455 -10.54008221 -3.83275717 0 0 Z " fill="#060606" transform="translate(704,186)"/>
<path d="M0 0 C3.3 0 6.6 0 10 0 C10.33 12.54 10.66 25.08 11 38 C12.485 38.495 12.485 38.495 14 39 C14 40.32 14 41.64 14 43 C11.03 43 8.06 43 5 43 C5 42.01 5 41.02 5 40 C4.195625 40.495 3.39125 40.99 2.5625 41.5 C-1.7763487 43.32688366 -5.35604715 43.94076393 -10 43 C-12.75569447 40.81840855 -14.43588747 39.12822506 -16 36 C-16.17603147 33.58750308 -16.26744968 31.16849105 -16.3125 28.75 C-16.34988281 27.44546875 -16.38726562 26.1409375 -16.42578125 24.796875 C-15.93549926 20.42481905 -14.76868372 18.37230666 -12 15 C-8.72872414 12.81914943 -7.72623277 12.75112141 -3.9375 12.8125 C-2.62072266 12.82216797 -2.62072266 12.82216797 -1.27734375 12.83203125 C1 13 1 13 3 14 C3 11.03 3 8.06 3 5 C2.01 4.67 1.02 4.34 0 4 C0 2.68 0 1.36 0 0 Z " fill="#167B8B" transform="translate(397,37)"/>
<path d="M0 0 C2.64 0 5.28 0 8 0 C8 3.96 8 7.92 8 12 C11.3 12 14.6 12 18 12 C18 14.64 18 17.28 18 20 C14.7 20 11.4 20 8 20 C8.14017826 22.97953359 8.28686342 25.95849304 8.4375 28.9375 C8.47681641 29.78763672 8.51613281 30.63777344 8.55664062 31.51367188 C8.59853516 32.32255859 8.64042969 33.13144531 8.68359375 33.96484375 C8.72025146 34.7137085 8.75690918 35.46257324 8.79467773 36.23413086 C8.81771063 38.02461326 8.81771063 38.02461326 10 39 C12.67058851 39.14115161 15.32432238 39.04247107 18 39 C18.33 41.64 18.66 44.28 19 47 C13.22446512 49.56690439 7.20351538 49.72982534 1 49 C-2.07365786 47.19196596 -3.43019732 46.13960536 -5 43 C-5.08449628 41.2595583 -5.10723024 39.51590278 -5.09765625 37.7734375 C-5.09443359 36.7421875 -5.09121094 35.7109375 -5.08789062 34.6484375 C-5.07951172 33.56820312 -5.07113281 32.48796875 -5.0625 31.375 C-5.05798828 30.28703125 -5.05347656 29.1990625 -5.04882812 28.078125 C-5.03701776 25.38536211 -5.02054778 22.69270812 -5 20 C-6.98 20 -8.96 20 -11 20 C-11.5 16.8125 -11.5 16.8125 -11 13 C-9.09897946 11.52881394 -7.10473224 10.5188455 -4.98046875 9.3984375 C-1.56894918 6.98951441 -1.06485289 3.92664502 0 0 Z " fill="#050505" transform="translate(492,173)"/>
<path d="M0 0 C2.64 0 5.28 0 8 0 C8 3.63 8 7.26 8 11 C11.63 11 15.26 11 19 11 C19 13.64 19 16.28 19 19 C15.37 19 11.74 19 8 19 C8.1404983 21.7920301 8.28715383 24.58349796 8.4375 27.375 C8.47681641 28.1690625 8.51613281 28.963125 8.55664062 29.78125 C8.68893404 34.02601221 8.68893404 34.02601221 10 38 C12.64 38 15.28 38 18 38 C19.25664978 40.90600261 20 42.79604584 20 46 C13.90553419 48.87409467 7.60482507 48.78910694 1 48 C-2.54459791 46.18939989 -3.74941959 43.75174124 -5 40 C-5.08143855 38.37280518 -5.1075302 36.74248281 -5.09765625 35.11328125 C-5.09443359 34.17548828 -5.09121094 33.23769531 -5.08789062 32.27148438 C-5.07951172 31.29501953 -5.07113281 30.31855469 -5.0625 29.3125 C-5.05798828 28.32443359 -5.05347656 27.33636719 -5.04882812 26.31835938 C-5.03704303 23.87884526 -5.02059011 21.43945311 -5 19 C-6.65 19 -8.3 19 -10 19 C-10 16.69 -10 14.38 -10 12 C-8.906875 11.505 -7.81375 11.01 -6.6875 10.5 C-2.1339992 7.95593882 -1.38295015 4.88100054 0 0 Z " fill="#050505" transform="translate(651,174)"/>
<path d="M0 0 C1.051875 -0.00386719 1.051875 -0.00386719 2.125 -0.0078125 C4 0.125 4 0.125 6 1.125 C6 5.745 6 10.365 6 15.125 C2.37 15.125 -1.26 15.125 -5 15.125 C-5 13.805 -5 12.485 -5 11.125 C-6.32 11.125 -7.64 11.125 -9 11.125 C-9 17.395 -9 23.665 -9 30.125 C-6.36 30.455 -3.72 30.785 -1 31.125 C-1 33.105 -1 35.085 -1 37.125 C-9.25 37.125 -17.5 37.125 -26 37.125 C-26 35.145 -26 33.165 -26 31.125 C-25.01 30.795 -24.02 30.465 -23 30.125 C-23 23.525 -23 16.925 -23 10.125 C-24.32 9.465 -25.64 8.805 -27 8.125 C-26.67 5.815 -26.34 3.505 -26 1.125 C-21.38 1.125 -16.76 1.125 -12 1.125 C-11.34 2.775 -10.68 4.425 -10 6.125 C-9.38125 5.320625 -8.7625 4.51625 -8.125 3.6875 C-5.39586176 0.39648036 -4.10369359 -0.01508711 0 0 Z " fill="#050505" transform="translate(473,183.875)"/>
<path d="M0 0 C3.99030456 1.92267065 6.33054922 4.94561954 8 9 C8.87750708 14.99969954 8.09112183 19.93149237 5.36328125 25.30859375 C2.81331434 28.47230628 0.07679206 29.82609011 -3.90234375 30.46875 C-13.11024563 30.56355465 -13.11024563 30.56355465 -16.625 27.8125 C-20.5739015 23.13616927 -21.46727639 19.37240369 -21.31640625 13.34765625 C-20.79316983 9.46537121 -19.43087871 6.07864868 -17 3 C-11.69953288 -0.95258201 -6.37802289 -0.93210619 0 0 Z " fill="#127E90" transform="translate(723,50)"/>
<path d="M0 0 C11.55 0 23.1 0 35 0 C35 3.63 35 7.26 35 11 C33.35 11 31.7 11 30 11 C29.67 9.35 29.34 7.7 29 6 C26.36 5.67 23.72 5.34 21 5 C21 15.89 21 26.78 21 38 C23.31 38 25.62 38 28 38 C28 39.32 28 40.64 28 42 C21.07 42 14.14 42 7 42 C7 40.68 7 39.36 7 38 C9.31 38 11.62 38 14 38 C14 27.11 14 16.22 14 5 C11.36 5.33 8.72 5.66 6 6 C5.67 7.65 5.34 9.3 5 11 C3.35 11 1.7 11 0 11 C0 7.37 0 3.74 0 0 Z " fill="#127B8C" transform="translate(516,38)"/>
<path d="M0 0 C3.62531608 1.8741654 5.69121639 4.07364917 7 8 C7 10.97 7 13.94 7 17 C1.06 17 -4.88 17 -11 17 C-10.34 18.98 -9.68 20.96 -9 23 C-5.26025568 24.86987216 -0.53209172 24.30641834 3.5 23.5 C3.995 23.335 4.49 23.17 5 23 C5.33 24.65 5.66 26.3 6 28 C1.00186334 30.98931618 -4.35665918 30.61111044 -10 30 C-13.60456689 28.32201196 -15.34930803 27.30820938 -17.1171875 23.75390625 C-18.77820297 18.57241993 -18.77675054 13.35826221 -18 8 C-13.91336971 0.40338051 -8.23378924 -1.14743464 0 0 Z " fill="#157D8E" transform="translate(492,50)"/>
<path d="M0 0 C3.3 0 6.6 0 10 0 C10.33 7.92 10.66 15.84 11 24 C16.76887492 24.5547002 16.76887492 24.5547002 20 22 C20.2208564 19.04935852 20.28060989 16.31631769 20.1875 13.375 C20.17396484 12.57320312 20.16042969 11.77140625 20.14648438 10.9453125 C20.11109051 8.96325622 20.05728234 6.98154449 20 5 C19.34 4.67 18.68 4.34 18 4 C18 2.68 18 1.36 18 0 C21.3 0 24.6 0 28 0 C28 8.58 28 17.16 28 26 C29.32 26 30.64 26 32 26 C32 27.32 32 28.64 32 30 C29.03 30 26.06 30 23 30 C22.67 29.01 22.34 28.02 22 27 C21.195625 27.495 20.39125 27.99 19.5625 28.5 C15.41247705 30.24737808 11.43049474 31.22442764 7 30 C4.39394023 27.82227185 3.15310694 26.11808671 2.68701172 22.71435547 C2.60608245 20.02740197 2.65128289 17.37374435 2.75 14.6875 C2.76804687 13.75615234 2.78609375 12.82480469 2.8046875 11.86523438 C2.85165112 9.57575803 2.91730525 7.28841816 3 5 C2.01 4.67 1.02 4.34 0 4 C0 2.68 0 1.36 0 0 Z " fill="#147E8F" transform="translate(579,50)"/>
<path d="M0 0 C3.0625 1.1875 3.0625 1.1875 5 3 C5.3125 5.6875 5.3125 5.6875 5 8 C3.02 8 1.04 8 -1 8 C-1 7.01 -1 6.02 -1 5 C-2.98 5.33 -4.96 5.66 -7 6 C-7.33 8.64 -7.66 11.28 -8 14 C-5.03 14 -2.06 14 1 14 C1 15.65 1 17.3 1 19 C-1.97 19 -4.94 19 -8 19 C-8 25.93 -8 32.86 -8 40 C-5.69 40 -3.38 40 -1 40 C-1 41.32 -1 42.64 -1 44 C-6.94 44 -12.88 44 -19 44 C-19 42.68 -19 41.36 -19 40 C-17.68 40 -16.36 40 -15 40 C-15 33.07 -15 26.14 -15 19 C-16.32 19 -17.64 19 -19 19 C-19 17.35 -19 15.7 -19 14 C-17.68 14 -16.36 14 -15 14 C-15.061875 12.948125 -15.12375 11.89625 -15.1875 10.8125 C-14.98949851 6.78646977 -14.42518953 5.14376421 -12 2 C-7.94943244 -0.70037837 -4.75146675 -0.5325637 0 0 Z " fill="#1C8090" transform="translate(470,36)"/>
<path d="M0 0 C1.15628906 -0.02126953 1.15628906 -0.02126953 2.3359375 -0.04296875 C4.90976236 0.21617061 6.48047982 0.74352308 8.625 2.1875 C9.375 5.3125 9.375 5.3125 9.625 8.1875 C7.645 8.1875 5.665 8.1875 3.625 8.1875 C3.295 7.5275 2.965 6.8675 2.625 6.1875 C0.95888095 6.144779 -0.70882885 6.14686168 -2.375 6.1875 C-4.34322886 8.15572886 -4.03748381 11.53558709 -4.375 14.1875 C-1.075 14.1875 2.225 14.1875 5.625 14.1875 C5.625 15.8375 5.625 17.4875 5.625 19.1875 C2.325 19.1875 -0.975 19.1875 -4.375 19.1875 C-4.045 25.7875 -3.715 32.3875 -3.375 39.1875 C-1.065 39.5175 1.245 39.8475 3.625 40.1875 C3.625 41.5075 3.625 42.8275 3.625 44.1875 C-2.645 44.1875 -8.915 44.1875 -15.375 44.1875 C-15.375 42.8675 -15.375 41.5475 -15.375 40.1875 C-13.395 39.6925 -13.395 39.6925 -11.375 39.1875 C-11.045 32.5875 -10.715 25.9875 -10.375 19.1875 C-12.025 19.1875 -13.675 19.1875 -15.375 19.1875 C-15.375 17.5375 -15.375 15.8875 -15.375 14.1875 C-13.725 14.1875 -12.075 14.1875 -10.375 14.1875 C-10.49875 12.3621875 -10.49875 12.3621875 -10.625 10.5 C-10.63700396 7.1148826 -10.41413893 6.24881766 -8.5 3.25 C-5.56673679 0.40300924 -3.98115071 0.03306604 0 0 Z " fill="#0F7D8D" transform="translate(694.375,35.8125)"/>
<path d="M0 0 C1.875 1.4375 1.875 1.4375 2.875 3.4375 C4.07978665 13.88556786 0.37383272 20.9699228 -5.953125 29.00390625 C-6.33984375 29.47699219 -6.7265625 29.95007813 -7.125 30.4375 C-7.125 27.22207538 -6.54186331 26.00154796 -5.125 23.1875 C-3.25621071 19.08283781 -2.40912269 16.00121784 -3.125 11.4375 C-5.61101752 8.03073525 -8.17997089 6.73586401 -12.125 5.4375 C-21.55416244 4.56063344 -30.137527 5.112518 -38.125 10.4375 C-39.445 10.4375 -40.765 10.4375 -42.125 10.4375 C-41.7066538 5.55679436 -39.80369365 3.55639244 -36.125 0.4375 C-24.92943613 -7.05125525 -11.79268852 -5.89634426 0 0 Z " fill="#F4F4F4" transform="translate(216.125,46.5625)"/>
<path d="M0 0 C3.97490046 3.25799877 5.96725575 5.17403518 6.625 10.41796875 C2.03162511 9.87113841 -1.29272893 8.54784931 -5.375 6.41796875 C-11.63307493 4.33194377 -20.59116367 4.17243136 -26.87890625 6.2421875 C-29.36644597 7.63915657 -31.08367717 8.83532309 -32.375 11.41796875 C-32.94830927 17.03639957 -31.65217148 20.60976462 -29.15234375 25.5 C-28.89582031 26.13292969 -28.63929687 26.76585938 -28.375 27.41796875 C-28.705 28.07796875 -29.035 28.73796875 -29.375 29.41796875 C-35.62023529 20.96853277 -39.82936187 14.2511001 -38.375 3.41796875 C-35.32697879 -1.53506572 -29.27369259 -2.76445129 -23.9375 -4.26953125 C-15.47495032 -5.3015495 -7.2887055 -4.855141 0 0 Z " fill="#F5F5F5" transform="translate(76.375,46.58203125)"/>
<path d="M0 0 C1.8871875 -0.00386719 1.8871875 -0.00386719 3.8125 -0.0078125 C7 0.125 7 0.125 9 1.125 C9 3.765 9 6.405 9 9.125 C7.35 9.125 5.7 9.125 4 9.125 C3.34 7.805 2.68 6.485 2 5.125 C-0.31 5.125 -2.62 5.125 -5 5.125 C-5.33 6.445 -5.66 7.765 -6 9.125 C-4.453125 9.7746875 -4.453125 9.7746875 -2.875 10.4375 C6.22620107 14.35120107 6.22620107 14.35120107 9 17.125 C9.30078125 19.18359375 9.30078125 19.18359375 9.3125 21.5625 C9.32925781 22.34496094 9.34601562 23.12742187 9.36328125 23.93359375 C8.91392045 26.64425408 8.15823513 27.47220635 6 29.125 C2.63849548 30.24550151 0.03713274 30.25796652 -3.5 30.25 C-4.6446875 30.25257812 -5.789375 30.25515625 -6.96875 30.2578125 C-10 30.125 -10 30.125 -13 29.125 C-13 26.485 -13 23.845 -13 21.125 C-11.35 21.125 -9.7 21.125 -8 21.125 C-8 22.445 -8 23.765 -8 25.125 C-4.37 25.125 -0.74 25.125 3 25.125 C2.67 23.475 2.34 21.825 2 20.125 C1.33613281 19.96644531 0.67226563 19.80789062 -0.01171875 19.64453125 C-5.52893896 18.18669642 -9.59080106 17.01151848 -13 12.125 C-13.7446324 8.15362719 -13.37266878 6.68400317 -11.125 3.3125 C-7.52982961 -0.38841069 -5.05798132 -0.01036472 0 0 Z " fill="#167F8F" transform="translate(628,49.875)"/>
<path d="M0 0 C3.3 0 6.6 0 10 0 C10 13.2 10 26.4 10 40 C11.32 40 12.64 40 14 40 C14 41.32 14 42.64 14 44 C9.05 44 4.1 44 -1 44 C-1 42.68 -1 41.36 -1 40 C0.32 40 1.64 40 3 40 C2.67 28.78 2.34 17.56 2 6 C1.01 5.67 0.02 5.34 -1 5 C-0.67 3.35 -0.34 1.7 0 0 Z " fill="#077E90" transform="translate(363,36)"/>
<path d="M0 0 C1.27875 -0.061875 2.5575 -0.12375 3.875 -0.1875 C4.95394531 -0.23970703 4.95394531 -0.23970703 6.0546875 -0.29296875 C6.69664062 -0.19628906 7.33859375 -0.09960938 8 0 C8.66 0.99 9.32 1.98 10 3 C10.495 2.505 10.99 2.01 11.5 1.5 C15.11630158 -0.66978095 17.82231616 -0.20888419 22 0 C22 2.97 22 5.94 22 9 C20.02 9 18.04 9 16 9 C16 7.68 16 6.36 16 5 C14.02 5.66 12.04 6.32 10 7 C10 13.27 10 19.54 10 26 C11.98 26 13.96 26 16 26 C16 27.32 16 28.64 16 30 C10.39 30 4.78 30 -1 30 C-1 28.68 -1 27.36 -1 26 C0.32 26 1.64 26 3 26 C3 19.07 3 12.14 3 5 C1.68 4.67 0.36 4.34 -1 4 C-0.67 2.68 -0.34 1.36 0 0 Z " fill="#218191" transform="translate(736,50)"/>
<path d="M0 0 C1.27875 -0.061875 2.5575 -0.12375 3.875 -0.1875 C4.95394531 -0.23970703 4.95394531 -0.23970703 6.0546875 -0.29296875 C6.69664062 -0.19628906 7.33859375 -0.09960938 8 0 C8.66 0.99 9.32 1.98 10 3 C10.495 2.505 10.99 2.01 11.5 1.5 C15.11630158 -0.66978095 17.82231616 -0.20888419 22 0 C22 2.97 22 5.94 22 9 C20.35 9 18.7 9 17 9 C16.67 7.68 16.34 6.36 16 5 C14.02 5.66 12.04 6.32 10 7 C10 13.27 10 19.54 10 26 C11.98 26 13.96 26 16 26 C16 27.32 16 28.64 16 30 C10.39 30 4.78 30 -1 30 C-1 28.68 -1 27.36 -1 26 C0.32 26 1.64 26 3 26 C3 19.07 3 12.14 3 5 C1.68 4.67 0.36 4.34 -1 4 C-0.67 2.68 -0.34 1.36 0 0 Z " fill="#298492" transform="translate(553,50)"/>
<path d="M0 0 C1.32 0 2.64 0 4 0 C4 2.64 4 5.28 4 8 C6.97 8 9.94 8 13 8 C13 9.65 13 11.3 13 13 C10.03 13 7.06 13 4 13 C4.14017826 15.97953359 4.28686342 18.95849304 4.4375 21.9375 C4.47681641 22.78763672 4.51613281 23.63777344 4.55664062 24.51367188 C4.61948242 25.72700195 4.61948242 25.72700195 4.68359375 26.96484375 C4.72025146 27.7137085 4.75690918 28.46257324 4.79467773 29.23413086 C4.81771063 31.02461326 4.81771063 31.02461326 6 32 C7.34747084 32.23075082 8.70377565 32.41153063 10.0625 32.5625 C11.361875 32.706875 12.66125 32.85125 14 33 C14 34.32 14 35.64 14 37 C11.41991408 38.29004296 9.44258426 38.20410224 6.5625 38.25 C5.11037109 38.28867188 5.11037109 38.28867188 3.62890625 38.328125 C1 38 1 38 -0.64599609 36.79858398 C-2.4602017 34.38869348 -2.34490057 32.88926636 -2.29296875 29.89453125 C-2.28330078 28.91162109 -2.27363281 27.92871094 -2.26367188 26.91601562 C-2.23853516 25.89185547 -2.21339844 24.86769531 -2.1875 23.8125 C-2.17396484 22.77673828 -2.16042969 21.74097656 -2.14648438 20.67382812 C-2.11111389 18.11536301 -2.06175544 15.5579422 -2 13 C-3.65 13 -5.3 13 -7 13 C-7 11.68 -7 10.36 -7 9 C-6.401875 8.814375 -5.80375 8.62875 -5.1875 8.4375 C-1.90018201 6.27726247 -1.35145313 3.64892345 0 0 Z " fill="#107C8E" transform="translate(648,42)"/>
<path d="M0 0 C3.3 0 6.6 0 10 0 C10 12.87 10 25.74 10 39 C11.32 39 12.64 39 14 39 C14 40.32 14 41.64 14 43 C9.05 43 4.1 43 -1 43 C-1 41.68 -1 40.36 -1 39 C0.98 38.505 0.98 38.505 3 38 C3 27.11 3 16.22 3 5 C2.01 4.67 1.02 4.34 0 4 C0 2.68 0 1.36 0 0 Z " fill="#0D7E92" transform="translate(415,37)"/>
<path d="M0 0 C3.3 0 6.6 0 10 0 C10 12.87 10 25.74 10 39 C7.20822431 36.20822431 7.68786516 34.36816428 7.5859375 30.4609375 C7.54726563 29.15898438 7.50859375 27.85703125 7.46875 26.515625 C7.43729237 25.13542138 7.40604509 23.75521296 7.375 22.375 C7.33682066 20.98695459 7.29776895 19.59893289 7.2578125 18.2109375 C7.16327057 14.80742815 7.07772103 11.40392835 7 8 C6.39251097 14.59950874 5.87121131 21.12113136 5.9375 27.75 C5.94652344 28.94109375 5.95554687 30.1321875 5.96484375 31.359375 C5.97644531 32.23078125 5.98804688 33.1021875 6 34 C5.34 34 4.68 34 4 34 C4 29.38 4 24.76 4 20 C0.7 19.67 -2.6 19.34 -6 19 C-8.75668002 22.95523655 -9.5317879 26.22423661 -10 31 C-11.85776765 27.86501708 -12.20140476 25.62528568 -12 22 C-11.34 21.67 -10.68 21.34 -10 21 C-9.34444881 18.47266765 -9.34444881 18.47266765 -9 16 C-9.99 15.67 -10.98 15.34 -12 15 C-8.72872414 12.81914943 -7.72623277 12.75112141 -3.9375 12.8125 C-2.62072266 12.82216797 -2.62072266 12.82216797 -1.27734375 12.83203125 C1 13 1 13 3 14 C3 11.03 3 8.06 3 5 C2.01 4.67 1.02 4.34 0 4 C0 2.68 0 1.36 0 0 Z " fill="#127888" transform="translate(397,37)"/>
<path d="M0 0 C3.9375 0.5625 3.9375 0.5625 5.6640625 2.25390625 C7.21120407 5.05869358 7.30692845 6.87450696 7.25 10.0625 C7.24613281 11.0009375 7.24226562 11.939375 7.23828125 12.90625 C6.93128053 15.61742518 6.4063701 17.27874436 4.9375 19.5625 C1.80889505 21.12680248 -0.61852925 20.91877284 -4.0625 20.5625 C-6.90392547 18.3767881 -7.87818909 16.72156862 -8.44140625 13.1796875 C-8.63338975 9.03036678 -8.37416699 6.21180622 -6.5625 2.4375 C-3.97072224 0.49366668 -3.11152634 0.18909829 0 0 Z " fill="#F4FCFC" transform="translate(717.0625,54.4375)"/>
<path d="M0 0 C3.3 0 6.6 0 10 0 C10 8.58 10 17.16 10 26 C11.32 26 12.64 26 14 26 C14 27.32 14 28.64 14 30 C9.05 30 4.1 30 -1 30 C-1 28.68 -1 27.36 -1 26 C0.32 26 1.64 26 3 26 C3 19.07 3 12.14 3 5 C1.68 4.67 0.36 4.34 -1 4 C-0.67 2.68 -0.34 1.36 0 0 Z " fill="#158191" transform="translate(345,50)"/>
<path d="M0 0 C2.79573999 0.46595666 4.5387695 1.18451473 7 2.5 C7.13526139 4.74834496 7.23210804 6.99902514 7.3125 9.25 C7.39951172 11.12945312 7.39951172 11.12945312 7.48828125 13.046875 C7 16.5 7 16.5 4.71875 18.96875 C1.10710614 21.00289424 -1.05104263 20.42916644 -5 19.5 C-6.75954753 14.99115945 -7.51828487 11.33732548 -7 6.5 C-4.26315789 0.71052632 -4.26315789 0.71052632 0 0 Z " fill="#F6FCFD" transform="translate(394,54.5)"/>
<path d="M0 0 C3.3 0 6.6 0 10 0 C10 8.58 10 17.16 10 26 C11.32 26 12.64 26 14 26 C14 27.32 14 28.64 14 30 C9.05 30 4.1 30 -1 30 C-1 28.68 -1 27.36 -1 26 C0.32 25.67 1.64 25.34 3 25 C3.33 18.4 3.66 11.8 4 5 C2.68 4.67 1.36 4.34 0 4 C0 2.68 0 1.36 0 0 Z " fill="#0A7F92" transform="translate(433,50)"/>
<path d="M0 0 C1.31291016 -0.03867187 1.31291016 -0.03867187 2.65234375 -0.078125 C5.4818869 0.30709643 6.31382925 1.05694757 8.0625 3.25 C5.4225 2.59 2.7825 1.93 0.0625 1.25 C0.0625 1.91 0.0625 2.57 0.0625 3.25 C0.7225 3.58 1.3825 3.91 2.0625 4.25 C1.27875 4.53875 0.495 4.8275 -0.3125 5.125 C-3.03421632 6.09912254 -3.03421632 6.09912254 -4.9375 8.25 C-5.2675 9.57 -5.5975 10.89 -5.9375 12.25 C-1.9775 12.25 1.9825 12.25 6.0625 12.25 C6.3925 10.93 6.7225 9.61 7.0625 8.25 C8.0525 7.92 9.0425 7.59 10.0625 7.25 C10.0625 9.89 10.0625 12.53 10.0625 15.25 C8.94230469 15.31058594 7.82210938 15.37117188 6.66796875 15.43359375 C5.19530016 15.51801424 3.72264456 15.60266149 2.25 15.6875 C1.51201172 15.72681641 0.77402344 15.76613281 0.01367188 15.80664062 C-5.16613269 16.11133501 -8.37837058 16.35190587 -11.9375 20.25 C-13.80263835 9.92391589 -13.80263835 9.92391589 -11.73828125 5.9296875 C-8.08822967 1.7051726 -5.6342409 0.09928178 0 0 Z " fill="#127C8D" transform="translate(486.9375,49.75)"/>
<path d="M0 0 C2.5 0.5625 2.5 0.5625 4.1328125 2.2578125 C6.59106739 6.40172789 6.00395918 10.89569993 5.5 15.5625 C4.3125 18.75 4.3125 18.75 2.5 20.5625 C0 21.125 0 21.125 -2.5 20.5625 C-5.43199353 17.51827705 -5.90968191 15.29260893 -5.875 11.125 C-5.57146703 1.25358008 -5.57146703 1.25358008 0 0 Z " fill="#F5F5F5" transform="translate(424.5,192.4375)"/>
<path d="M0 0 C1.44375 0.12375 2.8875 0.2475 4.375 0.375 C5.59316406 0.47941406 5.59316406 0.47941406 6.8359375 0.5859375 C9 1 9 1 11 3 C11.97423003 9.68043451 9.22884626 14.2687979 6 20 C4.35 19.67 2.7 19.34 1 19 C1.495 14.545 1.495 14.545 2 10 C1.01 9.67 0.02 9.34 -1 9 C-0.67 6.03 -0.34 3.06 0 0 Z " fill="#0B0B0B" transform="translate(453,139)"/>
<path d="M0 0 C2.46948242 1.16723633 2.46948242 1.16723633 5 3 C5.56762695 5.4519043 5.56762695 5.4519043 5.48828125 8.32421875 C5.47216797 9.35224609 5.45605469 10.38027344 5.43945312 11.43945312 C5.39755859 12.51130859 5.35566406 13.58316406 5.3125 14.6875 C5.27866211 16.31268555 5.27866211 16.31268555 5.24414062 17.97070312 C5.1851579 20.64851905 5.10290307 23.32357027 5 26 C7.31 26 9.62 26 12 26 C12 26.99 12 27.98 12 29 C6.72 29 1.44 29 -4 29 C-4 28.34 -4 27.68 -4 27 C-3.01 26.67 -2.02 26.34 -1 26 C-1.00523682 25.2479126 -1.01047363 24.4958252 -1.01586914 23.72094727 C-1.03657227 20.33480658 -1.04963877 16.94867916 -1.0625 13.5625 C-1.07087891 12.37849609 -1.07925781 11.19449219 -1.08789062 9.97460938 C-1.09111328 8.84990234 -1.09433594 7.72519531 -1.09765625 6.56640625 C-1.10289307 5.52427979 -1.10812988 4.48215332 -1.11352539 3.40844727 C-1 1 -1 1 0 0 Z " fill="#0B8092" transform="translate(457,50)"/>
<path d="M0 0 C2.64 0 5.28 0 8 0 C8.66 1.98 9.32 3.96 10 6 C9.67 6.33 9.34 6.66 9 7 C8.91314397 8.56172745 8.89297781 10.12729344 8.90234375 11.69140625 C8.90556641 12.63564453 8.90878906 13.57988281 8.91210938 14.55273438 C8.92048828 15.54595703 8.92886719 16.53917969 8.9375 17.5625 C8.94201172 18.55958984 8.94652344 19.55667969 8.95117188 20.58398438 C8.96299993 23.05604849 8.97948151 25.52799518 9 28 C6.69 28 4.38 28 2 28 C2.33 20.41 2.66 12.82 3 5 C1.68 4.67 0.36 4.34 -1 4 C-0.67 2.68 -0.34 1.36 0 0 Z " fill="#0E8293" transform="translate(553,50)"/>
<path d="M0 0 C0 5.61 0 11.22 0 17 C-7 17 -7 17 -8.91015625 15.3125 C-10.8141051 11.27257987 -10.64357967 7.36043307 -10 3 C-7.00634915 -1.95103794 -6.05079087 -1.00846514 0 0 Z " fill="#F0F0F0" transform="translate(395,124)"/>
<path d="M0 0 C3.3 0 6.6 0 10 0 C10 13.2 10 26.4 10 40 C11.32 40 12.64 40 14 40 C14 41.32 14 42.64 14 44 C9.05 44 4.1 44 -1 44 C-1 42.68 -1 41.36 -1 40 C0.32 40 1.64 40 3 40 C2.67 28.78 2.34 17.56 2 6 C1.01 5.67 0.02 5.34 -1 5 C-0.67 3.35 -0.34 1.7 0 0 Z M0 1 C1.485 1.99 1.485 1.99 3 3 C3.26653946 5.9795099 3.34767784 8.7488582 3.29296875 11.7265625 C3.28872391 12.58937836 3.28447906 13.45219421 3.28010559 14.34115601 C3.26328392 17.10275197 3.22562598 19.86362383 3.1875 22.625 C3.17245764 24.49478114 3.15876846 26.3645737 3.14648438 28.234375 C3.11336906 32.82319658 3.06156339 37.41147544 3 42 C5.47266765 41.65555119 5.47266765 41.65555119 8 41 C9.63945963 37.72108075 9.12030178 34.09386466 9.09765625 30.4921875 C9.09553383 29.23125778 9.09553383 29.23125778 9.09336853 27.94485474 C9.08776237 25.25486725 9.07520886 22.56496241 9.0625 19.875 C9.05748579 18.05338662 9.05292275 16.23177193 9.04882812 14.41015625 C9.03779094 9.94007223 9.0205222 5.47005014 9 1 C6.03 1 3.06 1 0 1 Z " fill="#3B8E9C" transform="translate(363,36)"/>
<path d="M0 0 C2 2 2 2 2.265625 4.71484375 C2.26046875 5.77832031 2.2553125 6.84179688 2.25 7.9375 C2.25515625 8.99839844 2.2603125 10.05929688 2.265625 11.15234375 C2 14 2 14 0 17 C-2.31 17 -4.62 17 -7 17 C-7 11.39 -7 5.78 -7 0 C-4.29393021 -1.35303489 -2.8671629 -0.7884698 0 0 Z " fill="#F9F9F9" transform="translate(655,124)"/>
<path d="M0 0 C2.64 0 5.28 0 8 0 C8 1.65 8 3.3 8 5 C7.01 5.495 7.01 5.495 6 6 C5.34786708 8.02463255 5.34786708 8.02463255 5 10 C5.99 9.67 6.98 9.34 8 9 C8 14.94 8 20.88 8 27 C5.69 27.33 3.38 27.66 1 28 C1.66 27.67 2.32 27.34 3 27 C3 19.74 3 12.48 3 5 C1.68 4.67 0.36 4.34 -1 4 C-0.67 2.68 -0.34 1.36 0 0 Z " fill="#167789" transform="translate(736,50)"/>
<path d="M0 0 C1.35700647 2.71401294 1.1123861 4.84846316 1.09765625 7.8828125 C1.09443359 9.04941406 1.09121094 10.21601563 1.08789062 11.41796875 C1.07951172 12.64128906 1.07113281 13.86460937 1.0625 15.125 C1.05798828 16.35605469 1.05347656 17.58710938 1.04882812 18.85546875 C1.0370133 21.90369392 1.02054028 24.95182314 1 28 C0.01 28 -0.98 28 -2 28 C-2 25.69 -2 23.38 -2 21 C-2.99 21 -3.98 21 -5 21 C-5 14.4 -5 7.8 -5 1 C-3 0 -3 0 0 0 Z " fill="#F3F3F3" transform="translate(592,123)"/>
<path d="M0 0 C3.3 0 6.6 0 10 0 C10 12.87 10 25.74 10 39 C9.34 39 8.68 39 8 39 C8 26.79 8 14.58 8 2 C6.68 2 5.36 2 4 2 C4.33 2.66 4.66 3.32 5 4 C5.08658569 6.55362604 5.11562516 9.0795442 5.09765625 11.6328125 C5.0962413 12.38464813 5.09482635 13.13648376 5.09336853 13.91110229 C5.08776465 16.3157751 5.07521157 18.72035527 5.0625 21.125 C5.0574855 22.75390491 5.0529225 24.38281127 5.04882812 26.01171875 C5.03779397 30.00784827 5.02052679 34.00390842 5 38 C4.67 38 4.34 38 4 38 C3.67 27.11 3.34 16.22 3 5 C2.01 4.67 1.02 4.34 0 4 C0 2.68 0 1.36 0 0 Z " fill="#147383" transform="translate(415,37)"/>
<path d="M0 0 C0.99 0 1.98 0 3 0 C3 10.56 3 21.12 3 32 C0.03 32 -2.94 32 -6 32 C-5.02776489 31.43925781 -5.02776489 31.43925781 -4.03588867 30.8671875 C-1.75381278 29.14394013 -1.75381278 29.14394013 -1.4699707 26.3203125 C-1.45538818 25.26585938 -1.44080566 24.21140625 -1.42578125 23.125 C-1.38420898 21.40023437 -1.38420898 21.40023437 -1.34179688 19.640625 C-1.33212891 18.43921875 -1.32246094 17.2378125 -1.3125 16 C-1.27045217 13.62493498 -1.22503701 11.24992647 -1.17578125 8.875 C-1.16458252 7.82054687 -1.15338379 6.76609375 -1.1418457 5.6796875 C-1 3 -1 3 0 0 Z " fill="#068095" transform="translate(532,46)"/>
<path d="M0 0 C0.433125 0.598125 0.86625 1.19625 1.3125 1.8125 C1.869375 2.534375 2.42625 3.25625 3 4 C3.391875 4.5775 3.78375 5.155 4.1875 5.75 C7.181195 7.81461724 10.52176673 7.30793212 14 7 C16.35529281 6.58268982 16.35529281 6.58268982 18 6 C18.33 7.65 18.66 9.3 19 11 C14.00837359 13.98542249 8.63675593 13.62463383 3 13 C0.31302455 11.97663036 -0.86265365 11.02181412 -3 9 C-3.33 8.01 -3.66 7.02 -4 6 C-3.01 5.67 -2.02 5.34 -1 5 C-0.67 3.35 -0.34 1.7 0 0 Z " fill="#157E8D" transform="translate(479,67)"/>
<path d="M0 0 C0.99 0.66 1.98 1.32 3 2 C3.3984375 4.05859375 3.3984375 4.05859375 3.375 6.4375 C3.38273438 7.21996094 3.39046875 8.00242187 3.3984375 8.80859375 C2.90886125 11.50126312 2.14919537 12.35026553 0 14 C-3.36150452 15.12050151 -5.96286726 15.13296652 -9.5 15.125 C-10.6446875 15.12757812 -11.789375 15.13015625 -12.96875 15.1328125 C-16 15 -16 15 -19 14 C-19 11.36 -19 8.72 -19 6 C-17.35 6 -15.7 6 -14 6 C-14 7.32 -14 8.64 -14 10 C-8.5610835 10.21755666 -4.12919186 10.10428384 1 8 C1.08226668 4.95613276 0.97608217 2.92824652 0 0 Z " fill="#167786" transform="translate(634,65)"/>
<path d="M0 0 C6.25925926 -0.48148148 6.25925926 -0.48148148 9.5 1.625 C11 4 11 4 11.0625 7.0625 C10 10 10 10 7.75 11.875 C5 13 5 13 0 13 C0 8.71 0 4.42 0 0 Z " fill="#F5F5F5" transform="translate(305,129)"/>
<path d="M0 0 C11.55 0 23.1 0 35 0 C35 3.63 35 7.26 35 11 C33.35 11 31.7 11 30 11 C29.67 9.35 29.34 7.7 29 6 C26.36 5.67 23.72 5.34 21 5 C21 4.67 21 4.34 21 4 C24.465 3.505 24.465 3.505 28 3 C14.14 2.01 14.14 2.01 0 1 C0 0.67 0 0.34 0 0 Z " fill="#42929E" transform="translate(516,38)"/>
<path d="M0 0 C0.33 0 0.66 0 1 0 C1 10.56 1 21.12 1 32 C3.31 32 5.62 32 8 32 C8 33.32 8 34.64 8 36 C1.07 36 -5.86 36 -13 36 C-13 34.68 -13 33.36 -13 32 C-11.02 32 -9.04 32 -7 32 C-7 32.33 -7 32.66 -7 33 C-5.02 33.33 -3.04 33.66 -1 34 C-0.67 22.78 -0.34 11.56 0 0 Z " fill="#2D8493" transform="translate(536,44)"/>
<path d="M0 0 C0.33 0 0.66 0 1 0 C1.01458252 0.89307861 1.02916504 1.78615723 1.04418945 2.70629883 C1.10527077 6.02217278 1.17942478 9.33721899 1.26245117 12.65258789 C1.29569001 14.08704628 1.32372535 15.52163513 1.34643555 16.95629883 C1.38000271 19.01960807 1.43231413 21.08172303 1.48828125 23.14453125 C1.51446533 24.38565674 1.54064941 25.62678223 1.56762695 26.90551758 C2.02537865 30.18163431 2.45347386 31.03282656 5 33 C5 33.33 5 33.66 5 34 C2.1875 34.25 2.1875 34.25 -1 34 C-2.875 32.1875 -2.875 32.1875 -4 30 C-4 29.01 -4 28.02 -4 27 C-3.01 27 -2.02 27 -1 27 C-1.0407666 26.43079834 -1.0815332 25.86159668 -1.12353516 25.27514648 C-1.30337017 22.66329495 -1.46430645 20.05059626 -1.625 17.4375 C-1.68945312 16.54224609 -1.75390625 15.64699219 -1.8203125 14.72460938 C-2.13783653 9.30685566 -1.83935647 5.11790408 0 0 Z " fill="#078296" transform="translate(404,44)"/>
<path d="M0 0 C6.75 0.75 6.75 0.75 9 3 C8.875 6.5 8.875 6.5 8 10 C5.17700309 12.23892859 3.7208921 12 0 12 C0 8.04 0 4.08 0 0 Z " fill="#F3F3F3" transform="translate(305,109)"/>
<path d="M0 0 C2.9375 2.3125 2.9375 2.3125 5 5 C4.8125 7.3125 4.8125 7.3125 4 9 C3.484375 8.319375 2.96875 7.63875 2.4375 6.9375 C0.02745496 4.57571378 0.02745496 4.57571378 -3.75 5.25 C-5.35875 5.62125 -5.35875 5.62125 -7 6 C-7 5.34 -7 4.68 -7 4 C-10.53372712 5.96318174 -13.24479785 8.04070881 -16 11 C-14.67761712 5.31375361 -12.55651636 3.32245984 -8 0 C-4.99054157 -1.50472922 -3.20590237 -0.88005163 0 0 Z " fill="#ECECEC" transform="translate(176,139)"/>
<path d="M0 0 C4.55279242 0.79873551 6.42253545 2.26596815 9.5625 5.625 C10.9375 8.9375 10.9375 8.9375 11.5625 11.625 C8.0975 8.655 8.0975 8.655 4.5625 5.625 C3.4178125 6.181875 3.4178125 6.181875 2.25 6.75 C1.363125 7.03875 0.47625 7.3275 -0.4375 7.625 C-1.4275 6.965 -2.4175 6.305 -3.4375 5.625 C-4.365625 6.615 -4.365625 6.615 -5.3125 7.625 C-7.4375 9.625 -7.4375 9.625 -9.4375 9.625 C-9.10344467 6.61850204 -8.19861354 5.31585282 -6.3125 2.875 C-3.4375 0.625 -3.4375 0.625 0 0 Z " fill="#EAEAEA" transform="translate(102.4375,137.375)"/>
<path d="M0 0 C1.134375 0.020625 2.26875 0.04125 3.4375 0.0625 C4.0975 1.7125 4.7575 3.3625 5.4375 5.0625 C7.0875 5.0625 8.7375 5.0625 10.4375 5.0625 C9.1175 5.3925 7.7975 5.7225 6.4375 6.0625 C6.7675 7.3825 7.0975 8.7025 7.4375 10.0625 C5.64370902 9.61255243 3.85251072 9.15225857 2.0625 8.6875 C1.06476562 8.43226562 0.06703125 8.17703125 -0.9609375 7.9140625 C-3.5625 7.0625 -3.5625 7.0625 -5.5625 5.0625 C-4.90400312 0.71642062 -4.57278902 0.08022437 0 0 Z " fill="#E8F9FA" transform="translate(626.5625,53.9375)"/>
<path d="M0 0 C1.46162662 2.71942096 2.407571 5.21041115 3.0703125 8.22265625 C3.33134766 9.40118164 3.33134766 9.40118164 3.59765625 10.60351562 C3.85869141 11.82071289 3.85869141 11.82071289 4.125 13.0625 C4.30675781 13.87783203 4.48851562 14.69316406 4.67578125 15.53320312 C5.61527847 19.83157949 6 23.58292855 6 28 C7.32 28.66 8.64 29.32 10 30 C10 30.33 10 30.66 10 31 C7.03 31 4.06 31 1 31 C2.485 25.555 2.485 25.555 4 20 C3.34 20 2.68 20 2 20 C1.34 15.05 0.68 10.1 0 5 C-0.99 5 -1.98 5 -3 5 C-2.67 4.01 -2.34 3.02 -2 2 C-1.34 2 -0.68 2 0 2 C0 1.34 0 0.68 0 0 Z " fill="#1D7C8C" transform="translate(297,49)"/>
<path d="M0 0 C1.8871875 0.061875 1.8871875 0.061875 3.8125 0.125 C3.8125 3.095 3.8125 6.065 3.8125 9.125 C1.8325 9.125 -0.1475 9.125 -2.1875 9.125 C-2.1875 7.805 -2.1875 6.485 -2.1875 5.125 C-3.8375 5.455 -5.4875 5.785 -7.1875 6.125 C-7.1875 4.805 -7.1875 3.485 -7.1875 2.125 C-4.09861478 0.06574319 -3.47814073 -0.1140374 0 0 Z " fill="#187181" transform="translate(754.1875,49.875)"/>
<path d="M0 0 C0.33 0 0.66 0 1 0 C1 3.63 1 7.26 1 11 C2.65 11 4.3 11 6 11 C5.979375 10.195625 5.95875 9.39125 5.9375 8.5625 C6 6 6 6 7 5 C9.64 5 12.28 5 15 5 C15 15.89 15 26.78 15 38 C13.68 37.67 12.36 37.34 11 37 C11.99 37 12.98 37 14 37 C14 27.1 14 17.2 14 7 C12.02 7 10.04 7 8 7 C7.67 8.65 7.34 10.3 7 12 C4.69 12 2.38 12 0 12 C0 8.04 0 4.08 0 0 Z " fill="#DBF8FA" transform="translate(515,38)"/>
<path d="M0 0 C1.32 0 2.64 0 4 0 C4 11.22 4 22.44 4 34 C3.34 34 2.68 34 2 34 C1.97494385 33.07662842 1.9498877 32.15325684 1.92407227 31.2019043 C1.82890955 27.77453584 1.72967786 24.34733539 1.62768555 20.92016602 C1.5843867 19.43713985 1.54270801 17.95406546 1.50268555 16.47094727 C1.44486042 14.33855661 1.38120168 12.20640758 1.31640625 10.07421875 C1.26141968 8.14968872 1.26141968 8.14968872 1.20532227 6.1862793 C1.13438766 2.97888449 1.13438766 2.97888449 0 0 Z " fill="#048296" transform="translate(419,39)"/>
<path d="M0 0 C1.98 0 3.96 0 6 0 C6 4.95 6 9.9 6 15 C5.01 14.67 4.02 14.34 3 14 C2.67 15.98 2.34 17.96 2 20 C1.67 20 1.34 20 1 20 C0.67 13.4 0.34 6.8 0 0 Z " fill="#1A8A9C" transform="translate(599,51)"/>
<path d="M0 0 C3.0625 0.4375 3.0625 0.4375 4.9375 2.8125 C6.0625 5.4375 6.0625 5.4375 6.0625 7.4375 C2.1025 7.4375 -1.8575 7.4375 -5.9375 7.4375 C-4.58662281 0.68311404 -4.58662281 0.68311404 0 0 Z " fill="#EAFCFC" transform="translate(486.9375,54.5625)"/>
<path d="M0 0 C3.3 0 6.6 0 10 0 C10 8.58 10 17.16 10 26 C9.67 26 9.34 26 9 26 C9 17.75 9 9.5 9 1 C7.02 1 5.04 1 3 1 C3 1.99 3 2.98 3 4 C3.66 4 4.32 4 5 4 C5 11.26 5 18.52 5 26 C4.67 26 4.34 26 4 26 C4 19.07 4 12.14 4 5 C2.68 4.67 1.36 4.34 0 4 C0 2.68 0 1.36 0 0 Z " fill="#157181" transform="translate(433,50)"/>
<path d="M0 0 C0.99 0 1.98 0 3 0 C4.7479503 5.24385089 5.19392201 9.47322267 5 15 C5.66 15 6.32 15 7 15 C6.67 17.64 6.34 20.28 6 23 C3.08092388 20.08092388 2.75153428 16.53369359 1.875 12.625 C1.69324219 11.85671875 1.51148438 11.0884375 1.32421875 10.296875 C0.49441933 6.69067902 0 3.74628759 0 0 Z " fill="#058294" transform="translate(294,54)"/>
<path d="M0 0 C2.64 0 5.28 0 8 0 C8 2.97 8 5.94 8 9 C6.35 9 4.7 9 3 9 C2.67 7.68 2.34 6.36 2 5 C1.01 5.33 0.02 5.66 -1 6 C-0.67 4.02 -0.34 2.04 0 0 Z " fill="#137A8A" transform="translate(567,50)"/>
<path d="M0 0 C1.12148437 0.00322266 2.24296875 0.00644531 3.3984375 0.00976562 C4.5740625 0.01814453 5.7496875 0.02652344 6.9609375 0.03515625 C8.14429688 0.03966797 9.32765625 0.04417969 10.546875 0.04882812 C13.47661257 0.06064158 16.40625022 0.07711367 19.3359375 0.09765625 C15.35694022 4.07665353 9.60917466 3.28026557 4.2734375 3.28515625 C3.56638672 3.29740234 2.85933594 3.30964844 2.13085938 3.32226562 C-1.63320771 3.33286863 -4.47203162 3.19527654 -7.6640625 1.09765625 C-5.00228029 -0.23323485 -2.97666854 -0.01503368 0 0 Z " fill="#C0C0C0" transform="translate(130.6640625,234.90234375)"/>
<path d="M0 0 C2.97 0 5.94 0 9 0 C9 0.66 9 1.32 9 2 C10.41543415 2.19658808 11.83244031 2.38187546 13.25 2.5625 C14.03890625 2.66691406 14.8278125 2.77132812 15.640625 2.87890625 C18.00532874 3.00027349 19.7511037 2.69633257 22 2 C22 3.32 22 4.64 22 6 C19.03 6 16.06 6 13 6 C12.67 5.01 12.34 4.02 12 3 C8.535 4.485 8.535 4.485 5 6 C4.67 5.34 4.34 4.68 4 4 C1.98330173 2.86649466 1.98330173 2.86649466 0 2 C0 1.34 0 0.68 0 0 Z " fill="#1E7F8E" transform="translate(589,74)"/>
<path d="M0 0 C2.3073257 3.46098855 2.03861971 4.93125589 1.42578125 8.92578125 C0.85426645 11.70994966 -0.00301524 14.34137398 -1 17 C-2.98 17 -4.96 17 -7 17 C-6.34 16.34 -5.68 15.68 -5 15 C-5.3185177 12.89179203 -5.3185177 12.89179203 -6 11 C-5.34 11 -4.68 11 -4 11 C-4 10.01 -4 9.02 -4 8 C-3.34 8 -2.68 8 -2 8 C-1.855625 6.865625 -1.71125 5.73125 -1.5625 4.5625 C-1 1 -1 1 0 0 Z " fill="#0B7D91" transform="translate(308,62)"/>
<path d="M0 0 C2 0 2 0 3.54296875 1.42578125 C4.08566406 2.04839844 4.62835938 2.67101562 5.1875 3.3125 C5.73792969 3.92738281 6.28835938 4.54226562 6.85546875 5.17578125 C7.42201172 6.07876953 7.42201172 6.07876953 8 7 C7.67 7.99 7.34 8.98 7 10 C1.6179402 10.35880399 1.6179402 10.35880399 -0.9375 8.875 C-2.53943488 6.04805609 -1.79584319 4.05073223 -1 1 C-0.67 0.67 -0.34 0.34 0 0 Z " fill="#F0F0F0" transform="translate(300,202)"/>
<path d="M0 0 C0 5.94 0 11.88 0 18 C-2.31 18.33 -4.62 18.66 -7 19 C-6.34 18.34 -5.68 17.68 -5 17 C-4.4711059 13.55851546 -4.11245421 10.14221778 -3.7890625 6.67773438 C-3.58885455 4.77748474 -3.30090507 2.88692556 -3 1 C-1 0 -1 0 0 0 Z " fill="#078194" transform="translate(744,59)"/>
<path d="M0 0 C1 1 1 1 1.25 3.4375 C1.1675 4.283125 1.085 5.12875 1 6 C-2 8 -2 8 -4.125 7.6875 C-6 7 -6 7 -7 6 C-7.04080783 4.00041636 -7.04254356 1.99954746 -7 0 C-4.31633121 -1.3418344 -2.84719317 -0.73004953 0 0 Z " fill="#307E8C" transform="translate(354,37)"/>
<path d="M0 0 C4.55555556 0.55555556 4.55555556 0.55555556 6 2 C6.1875 4.4375 6.1875 4.4375 6 7 C5.34 7.66 4.68 8.32 4 9 C-0.55555556 8.44444444 -0.55555556 8.44444444 -2 7 C-2.1875 4.5625 -2.1875 4.5625 -2 2 C-1.34 1.34 -0.68 0.68 0 0 Z " fill="#1B7E8E" transform="translate(437,36)"/>
<path d="M0 0 C0.66 0 1.32 0 2 0 C2.66 1.98 3.32 3.96 4 6 C6.76276177 5.47731534 9.3260876 4.89130413 12 4 C12 5.32 12 6.64 12 8 C9.03 8 6.06 8 3 8 C3 7.01 3 6.02 3 5 C1.02 5.66 -0.96 6.32 -3 7 C-3.33 6.34 -3.66 5.68 -4 5 C-6.52733235 4.34444881 -6.52733235 4.34444881 -9 4 C-9 3.67 -9 3.34 -9 3 C-8.43410156 2.86722656 -7.86820312 2.73445313 -7.28515625 2.59765625 C-6.18494141 2.33275391 -6.18494141 2.33275391 -5.0625 2.0625 C-4.33160156 1.88847656 -3.60070312 1.71445313 -2.84765625 1.53515625 C-1.00030102 1.16112431 -1.00030102 1.16112431 0 0 Z " fill="#197C8D" transform="translate(399,72)"/>
<path d="M0 0 C0.33 0 0.66 0 1 0 C1.04254356 1.99954746 1.04080783 4.00041636 1 6 C0 7 0 7 -1.84765625 7.09765625 C-3.8984375 7.06510417 -5.94921875 7.03255208 -8 7 C-7.97679687 8.04800781 -7.95359375 9.09601562 -7.9296875 10.17578125 C-7.91092697 11.55468037 -7.89272707 12.9335872 -7.875 14.3125 C-7.85824219 15.00279297 -7.84148438 15.69308594 -7.82421875 16.40429688 C-7.78782206 20.17135396 -7.85621136 21.78431704 -10 25 C-10 18.4 -10 11.8 -10 5 C-6.7 5 -3.4 5 0 5 C0 3.35 0 1.7 0 0 Z " fill="#D4F1F4" transform="translate(700,50)"/>
<path d="M0 0 C5.28 0 10.56 0 16 0 C16 1.32 16 2.64 16 4 C15.34 4 14.68 4 14 4 C14 3.34 14 2.68 14 2 C11.36 2 8.72 2 6 2 C6 4.31 6 6.62 6 9 C5.62875 8.0409375 5.62875 8.0409375 5.25 7.0625 C4.18437567 4.81258459 4.18437567 4.81258459 1.875 4.25 C1.25625 4.1675 0.6375 4.085 0 4 C0 2.68 0 1.36 0 0 Z " fill="#318997" transform="translate(285,38)"/>
<path d="M0 0 C4.455 0.99 4.455 0.99 9 2 C9.33 3.32 9.66 4.64 10 6 C9 7 9 7 6.93359375 7.09765625 C6.10988281 7.08605469 5.28617188 7.07445312 4.4375 7.0625 C3.61121094 7.05347656 2.78492188 7.04445312 1.93359375 7.03515625 C1.29550781 7.02355469 0.65742187 7.01195312 0 7 C-1.125 2.25 -1.125 2.25 0 0 Z " fill="#F3F3F3" transform="translate(684,208)"/>
<path d="M0 0 C2.64 0 5.28 0 8 0 C8.33 1.65 8.66 3.3 9 5 C8.34 4.34 7.68 3.68 7 3 C4.03 2.505 4.03 2.505 1 2 C1 11.9 1 21.8 1 32 C2.65 32 4.3 32 6 32 C6 32.33 6 32.66 6 33 C4.02 33 2.04 33 0 33 C0 22.11 0 11.22 0 0 Z " fill="#D7F8FA" transform="translate(537,43)"/>
<path d="M0 0 C4.455 0.99 4.455 0.99 9 2 C9.33 3.32 9.66 4.64 10 6 C9 7 9 7 6.93359375 7.09765625 C6.10988281 7.08605469 5.28617187 7.07445312 4.4375 7.0625 C3.61121094 7.05347656 2.78492188 7.04445312 1.93359375 7.03515625 C1.29550781 7.02355469 0.65742188 7.01195312 0 7 C-1.125 2.25 -1.125 2.25 0 0 Z " fill="#F6F6F6" transform="translate(425,137)"/>
<path d="M0 0 C1.98 0 3.96 0 6 0 C5.67 6.27 5.34 12.54 5 19 C4.34 19 3.68 19 3 19 C2.67 13.72 2.34 8.44 2 3 C1.34 3 0.68 3 0 3 C0 2.01 0 1.02 0 0 Z " fill="#058094" transform="translate(436,51)"/>
<path d="M0 0 C0 2.64 0 5.28 0 8 C-8.415 8.495 -8.415 8.495 -17 9 C-16.67 8.01 -16.34 7.02 -16 6 C-15.22914063 5.97421875 -14.45828125 5.9484375 -13.6640625 5.921875 C-12.66117187 5.86515625 -11.65828125 5.8084375 -10.625 5.75 C-9.62726563 5.70359375 -8.62953125 5.6571875 -7.6015625 5.609375 C-6.74304688 5.40828125 -5.88453125 5.2071875 -5 5 C-3.72354306 3.07255538 -3.72354306 3.07255538 -3 1 C-1 0 -1 0 0 0 Z " fill="#058094" transform="translate(497,57)"/>
<path d="M0 0 C0.9075 0.12375 1.815 0.2475 2.75 0.375 C2.75 0.705 2.75 1.035 2.75 1.375 C1.1 1.375 -0.55 1.375 -2.25 1.375 C-2.58 2.695 -2.91 4.015 -3.25 5.375 C-3.91 5.375 -4.57 5.375 -5.25 5.375 C-4.92 9.665 -4.59 13.955 -4.25 18.375 C-1.28 18.045 1.69 17.715 4.75 17.375 C3.76 18.365 2.77 19.355 1.75 20.375 C-1.9375 20.0625 -1.9375 20.0625 -5.25 19.375 C-7.00954753 14.86615945 -7.76828487 11.21232548 -7.25 6.375 C-4.48076923 0.51701183 -4.48076923 0.51701183 0 0 Z " fill="#CCEFF3" transform="translate(394.25,54.625)"/>
<path d="M0 0 C2.31 0.33 4.62 0.66 7 1 C7 1.66 7 2.32 7 3 C7.66 3.33 8.32 3.66 9 4 C8.67 6.31 8.34 8.62 8 11 C7.77441406 10.37351562 7.54882812 9.74703125 7.31640625 9.1015625 C5.55006046 6.28169889 4.12216779 6.13565447 0.9375 5.375 C-0.72230399 4.97016976 -2.37328812 4.52215443 -4 4 C-4.33 3.34 -4.66 2.68 -5 2 C-3.68 2 -2.36 2 -1 2 C-0.67 1.34 -0.34 0.68 0 0 Z " fill="#1C8394" transform="translate(624,63)"/>
<path d="M0 0 C0.495 0.165 0.99 0.33 1.5 0.5 C5.03444089 1.20688818 8.39690701 1.06005155 12 1 C12 0.67 12 0.34 12 0 C14.31 0 16.62 0 19 0 C19 1.32 19 2.64 19 4 C12.73 4 6.46 4 0 4 C0 2.68 0 1.36 0 0 Z " fill="#2F8694" transform="translate(679,76)"/>
<path d="M0 0 C0.68449219 0.65484375 1.36898437 1.3096875 2.07421875 1.984375 C5.6426265 4.44271732 7.53453856 4.42284693 11.8125 4.25 C12.97394531 4.21390625 14.13539062 4.1778125 15.33203125 4.140625 C16.65267578 4.07101563 16.65267578 4.07101563 18 4 C17.67 4.99 17.34 5.98 17 7 C13.28458682 8.23847106 9.86060413 8.54936472 6 8 C2.96034366 6.1891409 1.39577769 5.09599977 0.1875 1.75 C0.125625 1.1725 0.06375 0.595 0 0 Z " fill="#E3E3E3" transform="translate(96,150)"/>
<path d="M0 0 C0.33 0 0.66 0 1 0 C1.33 2.64 1.66 5.28 2 8 C2.66 7.01 3.32 6.02 4 5 C6.15478516 4.65942383 6.15478516 4.65942383 8.7890625 4.70703125 C9.73007812 4.71669922 10.67109375 4.72636719 11.640625 4.73632812 C12.62546875 4.76146484 13.6103125 4.78660156 14.625 4.8125 C16.11386719 4.83280273 16.11386719 4.83280273 17.6328125 4.85351562 C20.08908072 4.88894257 22.54427285 4.93833804 25 5 C25 5.33 25 5.66 25 6 C19.06 6 13.12 6 7 6 C6.67 6.66 6.34 7.32 6 8 C4.68671343 9.35308313 3.35500919 10.68870078 2 12 C0 10 0 10 -0.1953125 7.6171875 C-0.17210937 6.71226563 -0.14890625 5.80734375 -0.125 4.875 C-0.10695313 3.96492188 -0.08890625 3.05484375 -0.0703125 2.1171875 C-0.04710937 1.41851562 -0.02390625 0.71984375 0 0 Z " fill="#318896" transform="translate(474,61)"/>
<path d="M0 0 C0.66 0.33 1.32 0.66 2 1 C1.67 2.65 1.34 4.3 1 6 C-1.64 6.33 -4.28 6.66 -7 7 C-7.33 12.28 -7.66 17.56 -8 23 C-8.33 23 -8.66 23 -9 23 C-9 17.06 -9 11.12 -9 5 C-6.03 5 -3.06 5 0 5 C0 3.35 0 1.7 0 0 Z " fill="#D1F0F2" transform="translate(661,50)"/>
<path d="M0 0 C2.31 0 4.62 0 7 0 C7.66 1.98 8.32 3.96 9 6 C1.25 5.125 1.25 5.125 -1 4 C-0.67 2.68 -0.34 1.36 0 0 Z " fill="#F0F0F0" transform="translate(688,121)"/>
<path d="M0 0 C2.31 0 4.62 0 7 0 C7.66 1.98 8.32 3.96 9 6 C1.25 5.125 1.25 5.125 -1 4 C-0.67 2.68 -0.34 1.36 0 0 Z " fill="#F0F0F0" transform="translate(428,121)"/>
<path d="M0 0 C0.53625 0.144375 1.0725 0.28875 1.625 0.4375 C4.39915827 1.09453748 7.18525388 1.55219948 10 2 C10 1.34 10 0.68 10 0 C11.65 0 13.3 0 15 0 C15 1.32 15 2.64 15 4 C10.05 4 5.1 4 0 4 C0 2.68 0 1.36 0 0 Z " fill="#2A8393" transform="translate(432,76)"/>
<path d="M0 0 C0.33 0.66 0.66 1.32 1 2 C-0.25 4.5 -0.25 4.5 -3 7 C-7.02994957 7.45551292 -10.96067147 7.28580155 -15 7 C-15.33 5.68 -15.66 4.36 -16 3 C-15.25234375 3.08378906 -14.5046875 3.16757813 -13.734375 3.25390625 C-12.74953125 3.35574219 -11.7646875 3.45757812 -10.75 3.5625 C-9.28820312 3.71912109 -9.28820312 3.71912109 -7.796875 3.87890625 C-5.20003537 3.99133925 -3.391493 4.00376885 -1 3 C-0.67 2.01 -0.34 1.02 0 0 Z " fill="#E5E5E5" transform="translate(177,151)"/>
<path d="M0 0 C0.99 0 1.98 0 3 0 C2.67 2.31 2.34 4.62 2 7 C1.67 7 1.34 7 1 7 C0.95101563 7.63808594 0.90203125 8.27617188 0.8515625 8.93359375 C0.77679688 9.75988281 0.70203125 10.58617187 0.625 11.4375 C0.52058594 12.67306641 0.52058594 12.67306641 0.4140625 13.93359375 C0.27742188 14.61550781 0.14078125 15.29742187 0 16 C-0.66 16.33 -1.32 16.66 -2 17 C-2.05418326 14.91695462 -2.09287551 12.83350232 -2.125 10.75 C-2.14820313 9.58984375 -2.17140625 8.4296875 -2.1953125 7.234375 C-2.0103949 4.17213954 -1.60823023 2.55797249 0 0 Z " fill="#068195" transform="translate(385,53)"/>
<path d="M0 0 C2.31 0 4.62 0 7 0 C7.66 1.98 8.32 3.96 9 6 C5.7 5.34 2.4 4.68 -1 4 C-0.67 2.68 -0.34 1.36 0 0 Z " fill="#F7F7F7" transform="translate(687,192)"/>
<path d="M0 0 C2 3 2 3 2 6 C-1.96 6 -5.92 6 -10 6 C-9.67 5.01 -9.34 4.02 -9 3 C-6.93359375 2.05078125 -6.93359375 2.05078125 -4.4375 1.3125 C-3.61121094 1.06113281 -2.78492188 0.80976562 -1.93359375 0.55078125 C-1.29550781 0.36902344 -0.65742187 0.18726562 0 0 Z " fill="#1C8294" transform="translate(720,74)"/>
<path d="M0 0 C0.66 0.66 1.32 1.32 2 2 C1.8125 4.0625 1.8125 4.0625 1 6 C-2.01490557 7.00496852 -4.04181692 7.10335303 -7.1875 7.0625 C-8.53908203 7.04896484 -8.53908203 7.04896484 -9.91796875 7.03515625 C-10.60503906 7.02355469 -11.29210937 7.01195313 -12 7 C-12 6.67 -12 6.34 -12 6 C-7.545 5.505 -7.545 5.505 -3 5 C-3 4.34 -3 3.68 -3 3 C-5.64 3 -8.28 3 -11 3 C-11 2.67 -11 2.34 -11 2 C-9.21128822 1.61114961 -7.41887126 1.23930804 -5.625 0.875 C-4.62726563 0.66617188 -3.62953125 0.45734375 -2.6015625 0.2421875 C-1.74304688 0.16226563 -0.88453125 0.08234375 0 0 Z " fill="#187884" transform="translate(496,73)"/>
<path d="M0 0 C0.33 0 0.66 0 1 0 C1.33 7.59 1.66 15.18 2 23 C4.31 23 6.62 23 9 23 C7 25 7 25 3.9375 25.1875 C1 25 1 25 0 24 C-0.08726223 22.21928754 -0.10699041 20.4351686 -0.09765625 18.65234375 C-0.09443359 17.57275391 -0.09121094 16.49316406 -0.08789062 15.38085938 C-0.07951172 14.24455078 -0.07113281 13.10824219 -0.0625 11.9375 C-0.05798828 10.79732422 -0.05347656 9.65714844 -0.04882812 8.48242188 C-0.03699747 5.65489649 -0.0205141 2.8274736 0 0 Z " fill="#DEF9FB" transform="translate(589,50)"/>
<path d="M0 0 C1.32 1.65 2.64 3.3 4 5 C3.34 5 2.68 5 2 5 C2 10.94 2 16.88 2 23 C1.67 23 1.34 23 1 23 C0.67 17.72 0.34 12.44 0 7 C-0.99 7.33 -1.98 7.66 -3 8 C-2.67 6.35 -2.34 4.7 -2 3 C-1.34 3 -0.68 3 0 3 C0 2.01 0 1.02 0 0 Z " fill="#3193A3" transform="translate(744,52)"/>
<path d="M0 0 C0.33 0 0.66 0 1 0 C1 3.63 1 7.26 1 11 C4.3 11 7.6 11 11 11 C11.66 12.32 12.32 13.64 13 15 C12.01 15.495 12.01 15.495 11 16 C10.67 14.68 10.34 13.36 10 12 C8.72125 12.103125 7.4425 12.20625 6.125 12.3125 C5.40570312 12.37050781 4.68640625 12.42851563 3.9453125 12.48828125 C1.60480784 12.87393036 1.60480784 12.87393036 0 16 C0 15.01 0 14.02 0 13 C-1.65 12.67 -3.3 12.34 -5 12 C-5 11.67 -5 11.34 -5 11 C-3.35 11 -1.7 11 0 11 C0 7.37 0 3.74 0 0 Z " fill="#E1FCFC" transform="translate(551,38)"/>
<path d="M0 0 C1.4540625 0.0309375 1.4540625 0.0309375 2.9375 0.0625 C2.9375 2.0425 2.9375 4.0225 2.9375 6.0625 C0.6275 6.0625 -1.6825 6.0625 -4.0625 6.0625 C-4.105221 4.39638095 -4.10313832 2.72867115 -4.0625 1.0625 C-3.0625 0.0625 -3.0625 0.0625 0 0 Z " fill="#EBEBEB" transform="translate(577.0625,206.9375)"/>
<path d="M0 0 C1.4540625 0.0309375 1.4540625 0.0309375 2.9375 0.0625 C2.9375 2.0425 2.9375 4.0225 2.9375 6.0625 C0.6275 6.0625 -1.6825 6.0625 -4.0625 6.0625 C-4.105221 4.39638095 -4.10313832 2.72867115 -4.0625 1.0625 C-3.0625 0.0625 -3.0625 0.0625 0 0 Z " fill="#F0F0F0" transform="translate(548.0625,135.9375)"/>
<path d="M0 0 C4.75 -0.125 4.75 -0.125 7 1 C9.32914823 1.36141955 11.66253478 1.69699525 14 2 C14.33 1.34 14.66 0.68 15 0 C15 1.32 15 2.64 15 4 C10.05 4 5.1 4 0 4 C0 2.68 0 1.36 0 0 Z " fill="#318896" transform="translate(414,76)"/>
<path d="M0 0 C0.99 0.33 1.98 0.66 3 1 C9.08568662 1.23294845 9.08568662 1.23294845 15 0 C15 1.32 15 2.64 15 4 C10.05 4 5.1 4 0 4 C0 2.68 0 1.36 0 0 Z " fill="#2C8292" transform="translate(344,76)"/>
<path d="M0 0 C0.33 0.66 0.66 1.32 1 2 C3.64 2 6.28 2 9 2 C9 2.66 9 3.32 9 4 C7.5422647 4.335939 6.08378894 4.66866624 4.625 5 C3.40683594 5.2784375 3.40683594 5.2784375 2.1640625 5.5625 C0 6 0 6 -2 6 C-2.33 4.35 -2.66 2.7 -3 1 C-2.01 0.67 -1.02 0.34 0 0 Z " fill="#0D8094" transform="translate(484,74)"/>
<path d="M0 0 C4.95 0 9.9 0 15 0 C15 1.32 15 2.64 15 4 C14.34 4 13.68 4 13 4 C13 3.34 13 2.68 13 2 C11.58297487 2.14230808 10.1663904 2.28900746 8.75 2.4375 C7.96109375 2.51871094 7.1721875 2.59992187 6.359375 2.68359375 C4.17635361 2.97634993 2.1226818 3.42064419 0 4 C0 2.68 0 1.36 0 0 Z " fill="#3B8E99" transform="translate(327,38)"/>
<path d="M0 0 C0.33 0 0.66 0 1 0 C3.42857143 7.42857143 3.42857143 7.42857143 2 11 C3.32 11.66 4.64 12.32 6 13 C6 13.33 6 13.66 6 14 C3.03 14 0.06 14 -3 14 C-2.67 13.154375 -2.34 12.30875 -2 11.4375 C-0.93954941 7.79220111 -0.92602008 4.77297595 -1 1 C-0.67 0.67 -0.34 0.34 0 0 Z " fill="#278B9B" transform="translate(301,66)"/>
<path d="M0 0 C1.98 0 3.96 0 6 0 C6 2.31 6 4.62 6 7 C4.35 7.33 2.7 7.66 1 8 C0.67 5.36 0.34 2.72 0 0 Z " fill="#0D8294" transform="translate(751,51)"/>
<path d="M0 0 C3.56144099 -0.19785783 6.04454879 -0.11103658 9 2 C9.609375 4.078125 9.609375 4.078125 10 6 C8.35232753 5.71890887 6.70686855 5.42481474 5.0625 5.125 C4.14597656 4.96257812 3.22945313 4.80015625 2.28515625 4.6328125 C1.15400391 4.31957031 1.15400391 4.31957031 0 4 C-0.33 3.34 -0.66 2.68 -1 2 C-0.67 1.34 -0.34 0.68 0 0 Z " fill="#0B8095" transform="translate(386,74)"/>
<path d="M0 0 C2.0625 0.4375 2.0625 0.4375 4 1 C4.33 2.65 4.66 4.3 5 6 C2.69 6 0.38 6 -2 6 C-1.125 1.125 -1.125 1.125 0 0 Z " fill="#F3F3F3" transform="translate(349,122)"/>
<path d="M0 0 C0.66 0.33 1.32 0.66 2 1 C2.05418326 3.08304538 2.09287551 5.16649768 2.125 7.25 C2.14820313 8.41015625 2.17140625 9.5703125 2.1953125 10.765625 C2.0103949 13.82786046 1.60823023 15.44202751 0 18 C1.32 18.66 2.64 19.32 4 20 C2.35 20.66 0.7 21.32 -1 22 C-1 21.34 -1 20.68 -1 20 C-1.66 19.67 -2.32 19.34 -3 19 C-2.505 18.278125 -2.01 17.55625 -1.5 16.8125 C1.14167704 11.69037503 0.22390866 5.58942357 0 0 Z " fill="#147683" transform="translate(723,57)"/>
<path d="M0 0 C2.31 0 4.62 0 7 0 C6.34 1.32 5.68 2.64 5 4 C4.34 4 3.68 4 3 4 C3 5.32 3 6.64 3 8 C2.01 8 1.02 8 0 8 C0 5.36 0 2.72 0 0 Z " fill="#0A8092" transform="translate(517,40)"/>
<path d="M0 0 C0.33 0 0.66 0 1 0 C2.28571429 8.57142857 2.28571429 8.57142857 1 12 C-0.65 12 -2.3 12 -4 12 C-4 10.35 -4 8.7 -4 7 C-2.68 7 -1.36 7 0 7 C0 4.69 0 2.38 0 0 Z " fill="#207E8B" transform="translate(455,43)"/>
<path d="M0 0 C0.33 0.99 0.66 1.98 1 3 C0.31292969 3.04898438 -0.37414062 3.09796875 -1.08203125 3.1484375 C-2.43361328 3.26058594 -2.43361328 3.26058594 -3.8125 3.375 C-4.70582031 3.44460937 -5.59914063 3.51421875 -6.51953125 3.5859375 C-9.24398499 3.86645036 -9.24398499 3.86645036 -12 6 C-10.9802352 3.21882328 -10.33608762 2.18166898 -7.6875 0.75 C-4.98166314 -0.00511726 -2.79292118 -0.1595955 0 0 Z " fill="#D1D1D1" transform="translate(133,206)"/>
<path d="M0 0 C0.99 0 1.98 0 3 0 C3 1.65 3 3.3 3 5 C2.34 5 1.68 5 1 5 C1.226875 5.763125 1.45375 6.52625 1.6875 7.3125 C1.790625 8.199375 1.89375 9.08625 2 10 C0.51953125 11.66796875 0.51953125 11.66796875 -1 13 C-1.0272415 11.58344207 -1.04650467 10.16672955 -1.0625 8.75 C-1.07410156 7.96109375 -1.08570313 7.1721875 -1.09765625 6.359375 C-1.00385306 4.09308998 -0.63241063 2.1711105 0 0 Z " fill="#058093" transform="translate(476,57)"/>
<path d="M0 0 C3.3 0.66 6.6 1.32 10 2 C10 2.66 10 3.32 10 4 C4.06 4.495 4.06 4.495 -2 5 C-1.34 3.35 -0.68 1.7 0 0 Z " fill="#108394" transform="translate(620,75)"/>
<path d="M0 0 C0.7425 0.185625 1.485 0.37125 2.25 0.5625 C4.94990963 0.99203108 6.44631077 0.85122974 9 0 C9 1.32 9 2.64 9 4 C6.03 4 3.06 4 0 4 C0 2.68 0 1.36 0 0 Z " fill="#2C8694" transform="translate(602,76)"/>
<path d="M0 0 C1.65 0.33 3.3 0.66 5 1 C5 2.98 5 4.96 5 7 C4.06027344 6.87431641 4.06027344 6.87431641 3.1015625 6.74609375 C1.87566406 6.59333984 1.87566406 6.59333984 0.625 6.4375 C-0.59316406 6.28087891 -0.59316406 6.28087891 -1.8359375 6.12109375 C-4.04899186 5.81762672 -4.04899186 5.81762672 -6 7 C-5.67 6.01 -5.34 5.02 -5 4 C-1.535 3.505 -1.535 3.505 2 3 C1.34 2.01 0.68 1.02 0 0 Z " fill="#1C7B89" transform="translate(395,50)"/>
<path d="M0 0 C1.5 1.25 1.5 1.25 3 3 C3 4.32 3 5.64 3 7 C1.02 7 -0.96 7 -3 7 C-3.33 6.01 -3.66 5.02 -4 4 C-3.01 3.67 -2.02 3.34 -1 3 C-0.67 2.01 -0.34 1.02 0 0 Z " fill="#268190" transform="translate(701,37)"/>
<path d="M0 0 C0.99 1.485 0.99 1.485 2 3 C5.07921132 3.25660094 7.21136993 3.39431504 10 2 C10 3.32 10 4.64 10 6 C7.03 6 4.06 6 1 6 C0.67 4.02 0.34 2.04 0 0 Z " fill="#2A8492" transform="translate(319,74)"/>
<path d="M0 0 C0.33 0 0.66 0 1 0 C1.33 2.97 1.66 5.94 2 9 C2.99 9.33 3.98 9.66 5 10 C5 10.66 5 11.32 5 12 C6.98 12 8.96 12 11 12 C11 12.33 11 12.66 11 13 C3.54062751 13.36685438 3.54062751 13.36685438 1.25 11.8125 C-0.43344122 9.37151024 -0.30187345 7.74808519 -0.1875 4.8125 C-0.16042969 3.91144531 -0.13335938 3.01039062 -0.10546875 2.08203125 C-0.07066406 1.39496094 -0.03585937 0.70789063 0 0 Z " fill="#0F7585" transform="translate(583,67)"/>
<path d="M0 0 C0.33 0 0.66 0 1 0 C1 6.6 1 13.2 1 20 C-0.32 20.33 -1.64 20.66 -3 21 C-2.505 19.515 -2.505 19.515 -2 18 C-1.67 18 -1.34 18 -1 18 C-0.505 9.09 -0.505 9.09 0 0 Z " fill="#D2F3FA" transform="translate(683,55)"/>
<path d="M0 0 C0.99 0 1.98 0 3 0 C2.67 3.3 2.34 6.6 2 10 C0.68 9.34 -0.64 8.68 -2 8 C-1.33333333 5.33333333 -0.66666667 2.66666667 0 0 Z " fill="#068195" transform="translate(687,39)"/>
<path d="M0 0 C0 2.64 0 5.28 0 8 C-1.32 8 -2.64 8 -4 8 C-4 5.69 -4 3.38 -4 1 C-1 0 -1 0 0 0 Z " fill="#097D8C" transform="translate(550,40)"/>
<path d="M0 0 C2 1 2 1 3 3 C2.2575 3.4125 1.515 3.825 0.75 4.25 C-1.90171685 5.93745618 -3.86674014 7.70872089 -6 10 C-4.79157144 5.56909529 -3.48331435 3.01887244 0 0 Z " fill="#DEDEDE" transform="translate(166,140)"/>
<path d="M0 0 C0.33 0.66 0.66 1.32 1 2 C3.76276177 1.47731534 6.3260876 0.89130413 9 0 C9 1.32 9 2.64 9 4 C6.03 4 3.06 4 0 4 C0 2.68 0 1.36 0 0 Z " fill="#2B8290" transform="translate(402,76)"/>
<path d="M0 0 C2.97 0.495 2.97 0.495 6 1 C6 1.66 6 2.32 6 3 C6.66 3.66 7.32 4.32 8 5 C5.36 5 2.72 5 0 5 C0 3.35 0 1.7 0 0 Z " fill="#1C8495" transform="translate(711,50)"/>
<path d="M0 0 C2.31 0 4.62 0 7 0 C7.66 2.31 8.32 4.62 9 7 C8.34 7 7.68 7 7 7 C6.67 5.68 6.34 4.36 6 3 C4.02 3 2.04 3 0 3 C0 2.01 0 1.02 0 0 Z " fill="#378A98" transform="translate(310,46)"/>
<path d="M0 0 C0.66 0 1.32 0 2 0 C1.34 2.64 0.68 5.28 0 8 C-1.98 8 -3.96 8 -6 8 C-3.25 4.125 -3.25 4.125 -1 3 C-0.67 2.01 -0.34 1.02 0 0 Z " fill="#147A8A" transform="translate(307,71)"/>
<path d="M0 0 C3 3.625 3 3.625 3 7 C1.35 7 -0.3 7 -2 7 C-1.125 1.125 -1.125 1.125 0 0 Z " fill="#078093" transform="translate(323,71)"/>
<path d="M0 0 C0.33 0.66 0.66 1.32 1 2 C1.99 1.67 2.98 1.34 4 1 C4 1.99 4 2.98 4 4 C3.01 4.495 3.01 4.495 2 5 C1.34444881 7.52733235 1.34444881 7.52733235 1 10 C-0.98 10 -2.96 10 -5 10 C-5 9.67 -5 9.34 -5 9 C-3.35 9 -1.7 9 0 9 C0 6.03 0 3.06 0 0 Z " fill="#CAEBEF" transform="translate(575,50)"/>
<path d="M0 0 C1.32 0 2.64 0 4 0 C3.01 4.95 2.02 9.9 1 15 C0.67 15 0.34 15 0 15 C0.08378906 14.16855469 0.16757812 13.33710937 0.25390625 12.48046875 C0.35574219 11.39378906 0.45757812 10.30710937 0.5625 9.1875 C0.66691406 8.10855469 0.77132813 7.02960937 0.87890625 5.91796875 C1.17577609 2.93517546 1.17577609 2.93517546 0 0 Z " fill="#CBF0F3" transform="translate(328,42)"/>
<path d="M0 0 C1.60080151 4.00200378 0.29279692 7.04556236 -1 11 C-2.32 10.34 -3.64 9.68 -5 9 C-5.33 9.66 -5.66 10.32 -6 11 C-6 10.01 -6 9.02 -6 8 C-4.35 7.67 -2.7 7.34 -1 7 C-0.67 4.69 -0.34 2.38 0 0 Z " fill="#147788" transform="translate(334,51)"/>
<path d="M0 0 C1.32 0 2.64 0 4 0 C3.67 3.63 3.34 7.26 3 11 C1.04783565 7.09567131 0.49360009 4.27786748 0 0 Z " fill="#D7F5F8" transform="translate(296,42)"/>
<path d="M0 0 C3.625 -0.1875 3.625 -0.1875 7 0 C6.67 0.99 6.34 1.98 6 3 C3.36 3 0.72 3 -2 3 C-1.34 2.01 -0.68 1.02 0 0 Z " fill="#0F778A" transform="translate(524,40)"/>
<path d="M0 0 C1.32 0 2.64 0 4 0 C4 1.65 4 3.3 4 5 C2.35 5 0.7 5 -1 5 C-0.67 3.35 -0.34 1.7 0 0 Z " fill="#078195" transform="translate(349,38)"/>
<path d="M0 0 C1.32 0.66 2.64 1.32 4 2 C3.67 3.98 3.34 5.96 3 8 C1.35 6.35 -0.3 4.7 -2 3 C-1 1 -1 1 0 0 Z " fill="#1F8395" transform="translate(329,60)"/>
<path d="M0 0 C0.99 0 1.98 0 3 0 C3.33 1.32 3.66 2.64 4 4 C2.35 4.33 0.7 4.66 -1 5 C-1 1 -1 1 0 0 Z " fill="#0F7585" transform="translate(748,51)"/>
<path d="M0 0 C2.97 0 5.94 0 9 0 C9 0.33 9 0.66 9 1 C7.02 1 5.04 1 3 1 C3 2.32 3 3.64 3 5 C2.01 4.67 1.02 4.34 0 4 C0 2.68 0 1.36 0 0 Z " fill="#257C8B" transform="translate(433,50)"/>
<path d="M0 0 C2.64 0 5.28 0 8 0 C8.33 1.65 8.66 3.3 9 5 C8.34 4.34 7.68 3.68 7 3 C4.68234271 2.28072705 2.34904126 1.6090107 0 1 C0 0.67 0 0.34 0 0 Z " fill="#C6EDF2" transform="translate(537,43)"/>
<path d="M0 0 C0.33 0 0.66 0 1 0 C1 1.98 1 3.96 1 6 C-0.98 6.33 -2.96 6.66 -5 7 C-4.67 6.34 -4.34 5.68 -4 5 C-3.34 5 -2.68 5 -2 5 C-1.34 3.35 -0.68 1.7 0 0 Z " fill="#038293" transform="translate(604,68)"/>
<path d="M0 0 C2.31 0 4.62 0 7 0 C6.67 1.32 6.34 2.64 6 4 C5.38125 3.835 4.7625 3.67 4.125 3.5 C2.03936614 2.92365356 2.03936614 2.92365356 0 3 C0 2.01 0 1.02 0 0 Z " fill="#117C8A" transform="translate(554,50)"/>
<path d="M0 0 C1.4606285 2.64738916 2 3.89448334 2 7 C1.34 7 0.68 7 0 7 C0 6.34 0 5.68 0 5 C-0.99 5 -1.98 5 -3 5 C-2.67 4.01 -2.34 3.02 -2 2 C-1.34 2 -0.68 2 0 2 C0 1.34 0 0.68 0 0 Z " fill="#1E8494" transform="translate(297,49)"/>
<path d="M0 0 C2.0625 0.4375 2.0625 0.4375 4 1 C3.01 1.495 3.01 1.495 2 2 C1.67 2.99 1.34 3.98 1 5 C0.67 4.67 0.34 4.34 0 4 C-1.34747084 3.76924918 -2.70377565 3.58846937 -4.0625 3.4375 C-5.361875 3.293125 -6.66125 3.14875 -8 3 C-8 2.67 -8 2.34 -8 2 C-6.865625 1.855625 -5.73125 1.71125 -4.5625 1.5625 C-1.19222799 1.38828522 -1.19222799 1.38828522 0 0 Z " fill="#107686" transform="translate(545,40)"/>
<path d="M0 0 C0.99 0.33 1.98 0.66 3 1 C0.03 4.96 0.03 4.96 -3 9 C-3 5.30581799 -1.71820705 3.22163822 0 0 Z " fill="#D8D8D8" transform="translate(212,68)"/>
<path d="M0 0 C0 0.66 0 1.32 0 2 C-0.928125 2.4021875 -0.928125 2.4021875 -1.875 2.8125 C-4.2995233 3.95556848 -4.2995233 3.95556848 -6 7 C-6 5.02 -6 3.04 -6 1 C-4 0 -4 0 0 0 Z " fill="#217C8A" transform="translate(353,36)"/>
<path d="M0 0 C1.42944945 2.35438733 2.08661261 3.48032433 1.625 6.25 C1.41875 6.8275 1.2125 7.405 1 8 C0.01 8 -0.98 8 -2 8 C-1.34 5.36 -0.68 2.72 0 0 Z " fill="#CEF6F9" transform="translate(313,56)"/>
<path d="M0 0 C2.05078125 0.03255208 4.1015625 0.06510417 6.15234375 0.09765625 C6.15234375 0.42765625 6.15234375 0.75765625 6.15234375 1.09765625 C5.03859375 1.20078125 3.92484375 1.30390625 2.77734375 1.41015625 C1.58109375 1.63703125 0.38484375 1.86390625 -0.84765625 2.09765625 C-1.83765625 3.58265625 -1.83765625 3.58265625 -2.84765625 5.09765625 C-3.50765625 5.09765625 -4.16765625 5.09765625 -4.84765625 5.09765625 C-2.44354091 0.12915121 -2.44354091 0.12915121 0 0 Z " fill="#DDFAFC" transform="translate(714.84765625,54.90234375)"/>
<path d="M0 0 C1.4540625 0.0309375 1.4540625 0.0309375 2.9375 0.0625 C2.9375 0.3925 2.9375 0.7225 2.9375 1.0625 C1.2875 1.0625 -0.3625 1.0625 -2.0625 1.0625 C-2.165625 1.701875 -2.26875 2.34125 -2.375 3 C-2.601875 3.680625 -2.82875 4.36125 -3.0625 5.0625 C-4.0525 5.3925 -5.0425 5.7225 -6.0625 6.0625 C-3.76028481 0.07674051 -3.76028481 0.07674051 0 0 Z " fill="#DCFAFC" transform="translate(394.0625,54.9375)"/>
<path d="M0 0 C1.32 0 2.64 0 4 0 C4 2.31 4 4.62 4 7 C2 5.1875 2 5.1875 0 3 C0 2.01 0 1.02 0 0 Z " fill="#137884" transform="translate(648,42)"/>
</svg>
