<?xml version="1.0" encoding="UTF-8" standalone="no"?>
<svg
   xmlns:dc="http://purl.org/dc/elements/1.1/"
   xmlns:cc="http://creativecommons.org/ns#"
   xmlns:rdf="http://www.w3.org/1999/02/22-rdf-syntax-ns#"
   xmlns:svg="http://www.w3.org/2000/svg"
   xmlns="http://www.w3.org/2000/svg"
   viewBox="0 0 1931.9067 742.97333"
   height="742.97333"
   width="1931.9067"
   xml:space="preserve"
   id="svg2"
   version="1.1"><metadata
     id="metadata8"><rdf:RDF><cc:Work
         rdf:about=""><dc:format>image/svg+xml</dc:format><dc:type
           rdf:resource="http://purl.org/dc/dcmitype/StillImage" /></cc:Work></rdf:RDF></metadata><defs
     id="defs6" /><g
     transform="matrix(1.3333333,0,0,-1.3333333,0,742.97333)"
     id="g10"><g
       transform="scale(0.1)"
       id="g12"><path
         id="path14"
         style="fill:#100f0d;fill-opacity:1;fill-rule:nonzero;stroke:none"
         d="m 6540.78,3297.02 v -125.03 c 0,-26.68 1.67,-30.01 26.67,-33.35 l 120.04,-13.32 v -156.73 h -598.52 v 156.73 l 105.04,11.66 c 23.33,3.34 26.68,8.33 26.68,33.33 v 803.59 c 0,25 -3.35,30.01 -26.68,33.33 l -105.04,11.68 v 156.7 h 590.19 v -156.7 l -111.71,-13.34 c -25,-3.33 -26.67,-6.67 -26.67,-31.67 v -380.12 l 351.77,410.13 -103.37,13.34 v 158.36 h 473.47 v -158.36 l -61.68,-10.02 c -30.01,-4.99 -36.66,-9.99 -51.67,-28.33 l -273.42,-321.77 286.75,-481.81 c 13.34,-23.34 26.68,-30.01 51.68,-33.34 l 105.04,-16.66 v -156.73 h -438.48 l -250.06,438.48 -90.03,-110.05" /><path
         id="path16"
         style="fill:#100f0d;fill-opacity:1;fill-rule:nonzero;stroke:none"
         d="m 7752.81,3647.13 c -46.68,0 -85.02,-25 -91.69,-140.04 h 176.73 c 0,120.03 -36.7,140.04 -85.04,140.04 z m 25,-698.55 c -333.43,0 -448.47,200.08 -448.47,463.48 0,305.09 193.41,450.13 433.47,450.13 228.42,0 380.13,-116.7 380.13,-415.12 0,-18.34 -1.7,-51.68 -5.02,-90.03 h -476.8 c 6.67,-125.03 55.01,-176.71 158.4,-176.71 48.34,0 126.69,11.66 255.05,53.35 l 70.04,-193.4 c -116.72,-53.35 -238.42,-91.7 -366.8,-91.7" /><path
         id="path18"
         style="fill:#100f0d;fill-opacity:1;fill-rule:nonzero;stroke:none"
         d="m 8634.96,3136.98 71.7,-11.66 v -156.73 h -506.81 v 158.39 l 70,10 c 23.35,3.34 26.68,8.33 26.68,33.33 v 445.15 c 0,18.33 -4.99,28.34 -21.66,35 l -85.04,31.69 21.7,161.71 h 335.1 l 13.3,-78.35 h 11.68 c 63.35,44.99 143.4,96.68 281.77,96.68 170.05,0 243.41,-93.36 243.41,-286.74 v -405.14 c 0,-26.66 1.66,-29.99 26.65,-33.33 l 76.68,-11.66 v -156.73 h -415.11 v 546.84 c 0,75.02 -11.68,106.7 -63.35,106.7 -48.34,0 -88.37,-20.02 -113.35,-36.68 v -415.14 c 0,-26.66 1.66,-29.99 26.65,-33.33" /><path
         id="path20"
         style="fill:#100f0d;fill-opacity:1;fill-rule:nonzero;stroke:none"
         d="m 9599.1,2948.58 c -220.05,0 -298.44,83.36 -298.44,295.1 v 385.12 c 0,10 0,16.67 -13.3,16.67 h -115.05 v 178.38 c 146.72,28.34 216.72,105.03 246.73,293.43 h 193.4 v -256.75 c 0,-11.66 0,-16.67 13.34,-16.67 h 230.07 V 3645.47 H 9612.44 V 3303.7 c 0,-95.02 20,-130.04 108.37,-130.04 43.35,0 88.36,10 123.36,21.67 l 50.01,-171.72 c -75.03,-40.01 -193.37,-75.03 -295.08,-75.03" /><path
         id="path22"
         style="fill:#3875c3;fill-opacity:1;fill-rule:nonzero;stroke:none"
         d="m 6826.32,1512.08 -151.3,549.17 h -3.92 l -148.7,-549.17 h -193.07 l -207.39,824.39 c -5.22,15.66 -11.74,20.88 -28.71,23.48 l -71.73,13.04 13.04,83.49 h 356.11 v -83.49 l -113.48,-11.73 159.13,-695.25 h 5.22 l 163.05,606.55 h 160.44 l 166.97,-614.39 h 6.53 l 160.43,703.09 -114.78,11.73 13.04,83.49 H 7322 v -83.49 l -65.22,-11.73 c -18.26,-3.91 -24.77,-6.53 -29.99,-24.79 l -199.58,-824.39 h -200.89" /><path
         id="path24"
         style="fill:#3875c3;fill-opacity:1;fill-rule:nonzero;stroke:none"
         d="m 7512.59,2314.3 c -62.6,0 -97.82,35.21 -97.82,97.84 0,61.31 35.22,95.21 97.82,95.21 61.31,0 97.83,-33.9 97.83,-95.21 0,-62.63 -36.52,-97.84 -97.83,-97.84 z m -157.82,-802.22 v 82.18 l 78.26,10.44 c 18.27,2.6 20.87,6.52 20.87,26.08 v 420.03 c 0,14.35 -3.91,23.48 -16.95,27.39 l -71.76,24.79 13.04,83.49 h 225.68 v -555.7 c 0,-20.86 1.31,-23.48 20.86,-26.08 l 76.97,-9.14 v -83.48 h -346.97" /><path
         id="path26"
         style="fill:#3875c3;fill-opacity:1;fill-rule:nonzero;stroke:none"
         d="m 7765.57,1512.08 v 82.18 l 74.33,10.44 c 18.27,2.6 20.88,6.52 20.88,26.08 v 730.48 c 0,14.35 -3.89,23.48 -16.95,27.39 l -74.35,24.79 13.04,83.49 h 228.28 v -866.15 c 0,-20.86 1.31,-23.48 20.88,-26.08 l 73.04,-9.14 v -83.48 h -339.15" /><path
         id="path28"
         style="fill:#3875c3;fill-opacity:1;fill-rule:nonzero;stroke:none"
         d="m 8622.36,2016.89 c -37.83,31.3 -93.92,62.62 -151.32,62.62 -112.19,0 -156.53,-99.14 -156.53,-238.72 0,-160.43 48.27,-221.74 135.65,-221.74 63.94,0 126.55,39.12 172.2,87.39 z m 27.39,-504.81 -11.75,76.96 -7.82,1.3 c -57.4,-57.38 -122.62,-93.92 -221.75,-93.92 -150.01,0 -249.14,96.54 -249.14,340.46 0,259.58 122.63,362.64 273.91,362.64 78.28,0 143.51,-22.17 193.05,-58.71 v 221.76 c 0,13.04 -3.89,22.17 -16.95,26.08 l -74.35,24.79 13.06,83.49 h 224.36 v -866.15 c 0,-20.86 1.31,-23.48 20.85,-26.08 l 63.95,-9.14 v -83.48 h -207.42" /><path
         id="path30"
         style="fill:#3875c3;fill-opacity:1;fill-rule:nonzero;stroke:none"
         d="m 8928.02,1512.08 v 82.18 l 74.35,10.44 c 18.26,2.6 20.88,6.52 20.88,26.08 v 730.48 c 0,14.35 -3.89,23.48 -16.95,27.39 l -74.36,24.79 13.06,83.49 h 228.26 v -866.15 c 0,-20.86 1.31,-23.48 20.88,-26.08 l 73.05,-9.14 v -83.48 h -339.17" /><path
         id="path32"
         style="fill:#3875c3;fill-opacity:1;fill-rule:nonzero;stroke:none"
         d="m 9488.86,2314.3 c -62.6,0 -97.85,35.21 -97.85,97.84 0,61.31 35.25,95.21 97.85,95.21 61.3,0 97.82,-33.9 97.82,-95.21 0,-62.63 -36.52,-97.84 -97.82,-97.84 z m -157.83,-802.22 v 82.18 l 78.24,10.44 c 18.26,2.6 20.88,6.52 20.88,26.08 v 420.03 c 0,14.35 -3.89,23.48 -16.95,27.39 l -71.73,24.79 13.02,83.49 h 225.68 v -555.7 c 0,-20.86 1.31,-23.48 20.88,-26.08 l 76.93,-9.14 v -83.48 h -346.95" /><path
         id="path34"
         style="fill:#3875c3;fill-opacity:1;fill-rule:nonzero;stroke:none"
         d="m 9747.42,1512.08 v 84.79 l 79.59,7.83 c 18.26,1.3 20.84,6.52 20.84,26.08 v 435.67 c 0,7.84 0,13.06 -10.44,13.06 h -91.3 v 106.97 h 101.74 v 87.39 c 0,163.06 84.79,237.41 254.35,237.41 112.2,0 210,-27.41 211.3,-168.28 l -139.5,-16.97 c 0,67.84 -24.8,80.89 -78.3,80.89 -83.5,0 -97.83,-46.97 -97.83,-120.01 v -87.39 c 0,-9.13 0,-13.04 10.43,-13.04 h 210 v -106.97 h -220.43 v -444.8 c 0,-20.88 1.31,-24.79 20.83,-26.1 l 155.3,-13.05 v -83.48 h -426.58" /><path
         id="path36"
         style="fill:#3875c3;fill-opacity:1;fill-rule:nonzero;stroke:none"
         d="m 10702.2,1917.77 c 0,127.82 -58.7,168.25 -129.2,168.25 -74.3,0 -138.2,-49.56 -144.7,-168.25 z m 138.2,-360.04 c -71.7,-36.52 -155.2,-61.31 -250.4,-61.31 -242.6,0 -322.2,155.24 -322.2,356.12 0,236.1 137,346.98 307.9,346.98 164.3,0 276.5,-87.4 276.5,-314.37 0,-16.96 -1.3,-50.87 -3.9,-75.66 H 10427 c 6.5,-121.31 53.4,-193.05 180,-193.05 63.9,0 113.4,13.05 191.7,45.66 l 41.7,-104.37" /><path
         id="path38"
         style="fill:#3875c3;fill-opacity:1;fill-rule:nonzero;stroke:none"
         d="m 11380.6,1512.08 v 84.79 l 134.4,9.13 c 18.2,1.3 20.8,6.52 20.8,26.09 v 712.22 H 11361 c -14.3,0 -18.2,-1.31 -20.9,-14.35 l -20.8,-113.49 h -109.6 v 240.01 h 804.9 v -240.01 h -108.3 l -20.9,113.49 c -2.6,13.04 -6.5,14.35 -20.9,14.35 h -176.1 v -712.22 c 0,-18.26 1.4,-23.48 20.9,-24.79 l 143.5,-10.43 v -84.79 h -472.2" /><path
         id="path40"
         style="fill:#3875c3;fill-opacity:1;fill-rule:nonzero;stroke:none"
         d="m 12009.8,1512.08 v 84.79 l 62.6,7.83 c 18.3,2.6 20.9,6.52 20.9,26.08 v 420.03 c 0,14.35 -3.9,22.17 -17,27.39 l -71.7,24.79 13,83.49 h 194.4 l 14.4,-95.24 3.9,-1.31 c 43,56.1 104.3,109.59 191.7,109.59 30,0 78.3,-5.22 101.8,-11.75 v -213.93 l -117.4,5.22 -15.7,80.88 c -1.3,11.73 -3.9,14.35 -15.6,14.35 -49.6,0 -105.7,-43.05 -131.8,-67.84 v -374.36 c 0,-20.87 2.6,-24.79 22.2,-26.09 l 122.6,-10.44 v -83.48 h -378.3" /><path
         id="path42"
         style="fill:#3875c3;fill-opacity:1;fill-rule:nonzero;stroke:none"
         d="m 13128.7,1512.08 -11.8,79.57 -3.9,1.31 c -57.4,-45.67 -130.4,-96.54 -243.9,-96.54 -140.9,0 -187.8,71.75 -187.8,221.77 v 339.13 c 0,20.88 -1.4,24.79 -20.9,28.7 l -66.5,15.66 11.7,84.8 h 225.7 V 1750.8 c 0,-87.41 14.3,-134.36 87.4,-134.36 75.6,0 140.8,49.57 181.3,91.31 v 349.57 c 0,20.88 -1.3,24.79 -20.9,28.7 l -62.6,15.66 11.7,84.8 h 221.8 v -555.7 c 0,-16.95 2.6,-23.48 16.9,-26.08 l 67.9,-9.14 v -83.48 h -206.1" /><path
         id="path44"
         style="fill:#3875c3;fill-opacity:1;fill-rule:nonzero;stroke:none"
         d="m 13808.4,1992.1 -14.3,75.66 c -1.3,9.13 -4,14.35 -14.4,18.26 -17,5.22 -53.5,13.04 -93.9,13.04 -83.5,0 -123.9,-29.99 -123.9,-82.17 0,-69.13 73,-84.79 155.2,-104.34 103,-24.79 219.1,-56.1 219.1,-204.8 0,-153.93 -127.8,-211.33 -276.5,-211.33 -112.2,0 -221.8,30.01 -245.2,45.67 v 177.39 l 108.2,-6.51 13.1,-79.57 c 2.6,-10.44 3.9,-14.35 15.6,-18.27 17,-5.21 58.7,-18.26 117.4,-18.26 80.9,0 130.5,23.48 130.5,90 0,73.06 -83.5,84.79 -170.9,104.36 -99.2,22.17 -203.5,53.47 -203.5,191.74 0,157.84 131.7,216.55 272.6,216.55 96.6,0 187.9,-24.79 219.2,-37.83 v -176.1 l -108.3,6.51" /><path
         id="path46"
         style="fill:#3875c3;fill-opacity:1;fill-rule:nonzero;stroke:none"
         d="m 14489.3,1542.09 c -53.5,-24.79 -124,-45.67 -193.1,-45.67 -137,0 -194.4,60 -194.4,189.16 v 380.87 c 0,7.84 0,13.06 -10.4,13.06 h -93.9 v 92.62 c 101.7,13.04 142.2,82.17 159.1,196.95 h 95.3 v -169.56 c 0,-9.13 0,-13.04 10.4,-13.04 h 189.1 v -106.97 h -199.5 V 1724.7 c 0,-80.86 20.8,-110.87 93.9,-110.87 39.1,0 79.5,10.44 113.4,22.17 l 30.1,-93.91" /><path
         id="path48"
         style="fill:#100f0d;fill-opacity:1;fill-rule:nonzero;stroke:none"
         d="m 5435,2786.2 c -0.1,-718 -277.4,-1392 -781.5,-1899.501 C 4149.3,379.102 3480.3,100.102 2767.5,100 H 100 v 2686.2 c 0.102,717.9 277.398,1391.8 781.398,1899.4 504.202,507.6 1173.302,786.6 1886.102,786.7 712.8,-0.1 1381.8,-279.1 1886,-786.7 C 5157.6,4178 5434.9,3504.1 5435,2786.2" /><path
         id="path50"
         style="fill:#100f0d;fill-opacity:1;fill-rule:nonzero;stroke:none"
         d="M 5535,2786.2 C 5535.1,2042.4 5247,1342.1 4724.5,816.199 4202.1,290 3506.5,-0.101563 2767.5,0 H 0 v 2786.2 c -0.101563,743.7 288,1443.9 810.5,1969.9 522.3,526.1 1218,816.3 1957,816.2 739,0.1 1434.6,-290.1 1957,-816.2 522.5,-526 810.6,-1226.2 810.5,-1969.9" /><path
         id="path52"
         style="fill:#ffffff;fill-opacity:1;fill-rule:nonzero;stroke:none"
         d="M 5495.8,2314.3 C 5377,2184.2 5200.5,2020.1 4886.3,1747.6 4685.7,1574 4477.6,1454.4 4340.2,1375.3 c -176.8,-102.1 -351.5,-184.5 -467.3,-220.5 -57.8,-17.9 -112.6,-27 -162.7,-27 -7.4,0 -14.6,0.2 -21.7,0.5 C 3657,969 3471.3,819.801 3265.7,654.5 3071.3,498.301 2785.5,371.898 2654.8,341 c -56.2,-13.699 -104.2,-20.301 -146.5,-20.301 -123.67,0 -193.26,58.871 -229.67,108.16 -107.59,145.672 -77.85,374.782 -21.43,533.141 11.4,32 23.7,61.2 36.9,87.4 -12.9,9.8 -23.7,20.9 -32.7,32.9 -36.8,-25.1 -81,-48.5 -134.1,-68.5 -103.1,-38.8 -403.4,-92.902 -658,-92.902 -51.7,0 -100.2,2.204 -144.3,6.602 -330.5,32.699 -608.398,296.6 -720.602,447.4 -251.796,339.1 -255.199,639.1 -230,862.1 27.704,253.1 160.102,457.1 265,554.8 44.602,41.6 93.704,76 146.5,103 -154.296,96.1 -241.597,234.3 -260,412.3 -3.199,29.9 -5.597,56.4 -7.199,80.9 -2.301,19 -3.699,38.5 -4.199,57.9 -4.102,85.5 0.5,172.5 5,256.7 1.199,20.8 2.301,41.7 3.301,62.5 12,260.8 91.898,689.4 221.301,1004.2 l 2.199,5.4 2.699,5.2 c 42.898,84.6 92.602,167.3 148.199,246.4 31.102,43.6 62.102,79.7 93.301,108.8 82.1,78.7 172.8,121.7 268.6,127.8 12.5,0.9 25.1,1.3 37.8,1.3 176,0 368.3,-84.2 605.1,-265 190.5,-145.7 401.8,-352.5 627.9,-614.4 282.6,-327.1 565.8,-896.1 703.3,-1196.7 -16.9,117.3 -44,250 -87.5,373.7 -94.5,268.9 -216.2,509.5 -280.9,630 -36.1,67.4 -38.2,141.1 -5.7,202.2 29.8,56 84.4,93 144.9,99.1 7.4,0.8 14.6,1.2 21.8,1.2 139.3,0 199.9,-135.3 225.7,-193 113,-251.7 234.5,-585.2 295.6,-811.2 36.6,-136.9 57.8,-296.6 69.7,-420.6 133.5,80.1 325.6,191.8 472.6,262.3 296.1,141.9 608.1,202 682.4,202 214.1,0 225,-145.8 225,-175.1 0,-93.4 -74.3,-165 -190.6,-182.6 -217.9,-31.2 -386.4,-82 -600.8,-181.3 -95,-44.2 -217.6,-119.8 -320.8,-187.3 36.2,11.7 74.8,24 116.2,37.1 448.7,142.7 708,157.5 776.4,158.6 0,0 87.49,1.7 87.5,1.7 184.82,3.54 370.76,17.81 555,-3.9 l 60.6,-15.7 c 26.2,-8.6 50.3,-19.5 72.4,-32.7 67.2,-40.2 114.3,-100.4 136.2,-174.3 l 2.2,-7.3 1.4,-7.5 C 5724.7,2593.3 5617,2447 5495.8,2314.3" /><path
         id="path54"
         style="fill:#47a6e1;fill-opacity:1;fill-rule:evenodd;stroke:none"
         d="m 5193.55,2737.1 c -17.31,76.08 -90.6,78.5 -186.35,85.87 -95.74,7.36 -343.7,-7.37 -417.35,-22.09 -73.65,-14.73 -731.58,-176.77 -844.52,-233.23 -112.92,-56.46 -257.76,-144.83 -326.51,-225.85 -68.74,-81.02 -130.11,-240.59 -88.37,-370.7 41.73,-130.12 112.92,-355.97 127.66,-400.16 14.73,-44.19 128.2,-139.7 284.77,-73.66 156.58,66.03 743.85,419.8 849.43,505.73 105.56,85.92 525.37,510.63 554.83,562.18 29.46,51.56 58.68,117.9 46.41,171.91" /><path
         id="path56"
         style="fill:#47a6e1;fill-opacity:1;fill-rule:evenodd;stroke:none"
         d="m 3192.96,1922 c 0,0 -216.04,-351.06 -287.23,-429.62 -70.18,-77.45 -266.48,-281.33 -326.49,-336.34 -58.92,-54.01 -238.14,-282.329 -169.38,-402.63 68.72,-120.281 279.86,-46.629 341.23,-17.18 61.36,29.461 549.89,407.53 598.99,446.81 49.11,39.29 85.93,132.57 51.56,206.22 -34.37,73.65 -159.57,412.44 -166.94,459.08 -7.37,46.65 -14.72,95.75 -41.74,73.66" /><path
         id="path58"
         style="fill:#47a6e1;fill-opacity:1;fill-rule:evenodd;stroke:none"
         d="m 1323.93,2742.78 c -76.92,18 -216.03,-6.55 -271.68,-37.65 -55.645,-31.1 -263.508,-147.31 -325.703,-410.81 -62.188,-263.49 31.105,-505.72 72.016,-574.46 40.91,-68.74 273.317,-369.88 646.477,-456.63 373.16,-86.75 473.01,-72.01 579.38,-62.19 106.38,9.83 196.4,70.38 235.68,180.03 39.28,109.66 273.69,644.23 425.53,829.79 44.19,54.01 83.48,165.3 -62.2,207.85 -145.65,42.56 -1299.5,324.07 -1299.5,324.07" /><path
         id="path60"
         style="fill:#47a6e1;fill-opacity:1;fill-rule:evenodd;stroke:none"
         d="m 1446.67,5030.82 c -107.84,6 -209.48,-94.92 -274.96,-212.76 -65.45,-117.85 -196.405,-530.29 -225.851,-680.84 -29.464,-150.58 -42.554,-805.25 -16.367,-955.81 26.188,-150.59 88.388,-219.32 206.228,-252.05 117.84,-32.74 1525.36,-402.62 1603.92,-418.99 78.52,-16.37 163.62,-6.55 186.55,36.01 22.92,42.55 150.58,183.31 176.76,212.76 26.18,29.46 52.35,137.48 16.37,222.59 -36,85.11 -382.96,815.05 -602.27,1096.56 -219.31,281.51 -493.47,652.03 -916.53,887.07 -29.46,16.37 -94.93,62.19 -153.85,65.46" /><path
         id="path62"
         style="fill:#100f0d;fill-opacity:1;fill-rule:evenodd;stroke:none"
         d="m 3009.3,4346.15 c -24.58,-2.52 -52.03,-34.46 -25.03,-84.59 26.97,-50.11 176.93,-328.83 290.03,-650.86 124.31,-353.93 124.2,-768.27 124.2,-768.27 0,0 -101.74,-20.72 -246.77,-174.37 -56.27,-59.63 -138.75,-157.89 -208.01,-258.97 -62.2,-90.76 -135.36,-219.38 -171.81,-271.05 -177.82,-252.06 -286.58,-476.5 -324.57,-564.55 -57.22,-132.64 -124.75,-378.29 -70.79,-409.17 47.98,-27.45 105.81,24.44 186.46,101.86 76.45,73.39 324.72,349.08 379.82,429.89 57.83,84.82 117.4,167.47 183,317.66 76.88,175.98 171.79,336.71 229.62,402.26 57.82,65.54 158.49,148.4 202.5,196.81 34.52,37.99 40.93,88.06 22.9,173.35 0,0 335.73,242.06 551.64,342.3 215.9,100.25 396.37,158.81 642.1,193.93 27,3.86 63.88,16.98 63.88,36.25 0,19.28 -27.42,27.2 -77.56,27.2 -50.11,0 -339.85,-53.78 -618.2,-187.28 -240.6,-115.38 -616.34,-350.94 -616.34,-350.94 l -53.52,10.35 c 0,0 -12.09,343.56 -79.41,593.9 -60.96,226.66 -183.85,557.65 -287.44,788.99 -36.76,82.07 -63.03,108.77 -96.7,105.3" /><path
         id="path64"
         style="fill:#1d1c1a;fill-opacity:1;fill-rule:evenodd;stroke:none"
         d="m 2784.41,2533.35 c -14.51,4.15 -176.96,46.68 -401.79,105.56 -480.98,125.95 -1263.8,338.95 -1326.26,359.03 l -8.63,2.77 c -95.128,30.33 -315.269,91.25 -338.535,318.15 -23.168,225.94 -30.281,562.35 19.278,828.88 64.449,346.74 160.918,601.53 286.677,757.26 106.31,131.61 201.01,147.81 227.5,149.63 130.47,9 327.73,-71.97 536.74,-231.74 189.08,-144.53 299.31,-246.8 566.64,-547.9 233.04,-262.47 627.97,-977.86 762.36,-1342.54 27.1,-73.56 6.65,-108.47 -15.01,-137.36 v 0.01 c -14.64,-19.55 -58.28,-70.11 -101.79,-119.78 -41.98,-47.9 -81.62,-93.15 -99.35,-115.72 -14.55,-18.5 -51.2,-42.44 -107.83,-26.25 z M 1258.55,5115.61 c -42.31,-2.92 -140.65,-18.09 -251.85,-175.08 -121.895,-172.1 -260.653,-439.02 -327.063,-796.3 -43.141,-232.02 -48.067,-522.54 -17.461,-820.94 27.527,-268.5 259.316,-346.54 358.944,-378.31 l 8.48,-2.72 c 64.14,-20.62 800.56,-223.02 1314.8,-351.59 130.82,-32.71 423.19,-102.76 437.04,-106.71 67.31,-19.25 103.31,-22.94 142.23,26.59 16.69,21.24 67.19,84.02 106.74,129.18 46.36,52.88 82.47,96.97 98.58,118.45 l 5.68,5.42 c 31.23,41.64 67.3,81.33 33.04,180.3 -24.19,69.88 -402.22,929.68 -760.35,1344.23 -206.45,238.98 -413.09,446.25 -605.89,593.63 -224.69,171.75 -394.67,244.07 -542.92,233.85" /><path
         id="path66"
         style="fill:#181613;fill-opacity:1;fill-rule:evenodd;stroke:none"
         d="m 1335.24,1128.05 c -247.79,24.47 -495.185,242.12 -592.92,373.54 -371.004,498.93 -114.39,1014.49 15.821,1136.02 132.535,123.7 348.939,130.3 478.959,97.78 l 215.81,-44.89 c 345.29,-79.41 1177.56,-294.1 1222.33,-309.03 12.91,-4.3 31.29,-18.3 38.25,-37.7 2.13,-5.91 3.18,-12.36 3.18,-19.27 0,-17.98 -7.11,-38.96 -20.87,-61.02 -10.16,-15.98 -265.49,-405.99 -331.32,-529.42 -41.43,-77.7 -93.97,-205.92 -140.67,-342.66 -21.93,-64.25 -54.44,-126.36 -183.89,-180.56 -85.49,-35.78 -438.26,-109.1 -704.68,-82.79 z M 729.527,2683.6 C 646.27,2605.89 533.871,2433.37 510.273,2220.91 486.109,2003.38 499.715,1748.86 712.27,1463 c 104.25,-140.19 348.07,-361.94 616.34,-388.45 264.38,-26.12 640.52,41.44 735.94,77.4 156.01,58.79 202.81,147.45 227.42,219.55 45.65,133.69 93.23,271.06 146.74,364.28 68.53,119.39 292.91,488.84 295.13,492.33 l 0.12,0.21 c 29.66,47.45 60.98,95.83 46.59,135.89 -12.22,33.95 -37.99,55.24 -88.05,72.51 -41.33,14.25 -624.19,159.85 -1236.13,310.76 l -207.18,50.06 c -176.09,43.17 -368.557,27.08 -519.663,-113.94" /><path
         id="path68"
         style="fill:#181613;fill-opacity:1;fill-rule:evenodd;stroke:none"
         d="m 3535.42,1446.02 c -28.36,66.16 -113.06,317.81 -171.66,547.46 -31.87,124.99 -32.14,191.39 77.93,328.99 112.32,140.4 167.15,201.61 627.98,335.25 327.06,94.85 620.29,140.08 703.59,141.45 l 87.81,1.52 c 179.36,3.23 391.16,2.55 456.34,-5.6 v 0 c 89.86,-2.51 138.9,-32.08 147.48,-77.85 v 0 c 26.18,-139.56 -156.72,-311.73 -729.3,-807.96 -330.34,-286.27 -752.97,-503.37 -934.6,-559.94 -131.22,-40.87 -220.59,-8.35 -265.57,96.68 z m 1321.38,1408.75 -87.74,-1.54 c -98.5,-1.62 -344.27,-27.58 -733.74,-151.36 -385.94,-122.65 -491.45,-157.61 -624.69,-331.97 -132.47,-173.34 -147.17,-207.04 -119.39,-343.42 35.99,-176.61 166.17,-518.77 197.88,-587.08 42.52,-91.57 108.82,-209.96 328.7,-141.45 107.86,33.59 273.3,112.59 436.63,206.87 135.48,78.2 335.06,193.39 522.95,356.22 313.61,271.82 485.51,432.23 596.84,554.24 120.51,132.08 177.43,229.58 160.39,320.4 v 0 c -22.61,74.12 -91.61,120.17 -214.35,123.59 v 0 c -81.09,7.02 -273.15,-1.09 -463.48,-4.5" /><path
         id="path70"
         style="fill:#181613;fill-opacity:1;fill-rule:evenodd;stroke:none"
         d="m 3214.71,1884.33 c 49.18,-197.97 185.2,-568.65 231.49,-661.2 6.81,-13.62 10.21,-38.69 10.21,-56.67 0,-24.67 -10.02,-55.1 -39.98,-95.87 C 3361.85,996.32 3252.16,901.43 3071.28,771.988 2862.31,622.5 2704.11,563.629 2608.17,540.609 c -117.21,-28.168 -180.64,-11.839 -193.08,5.071 -29.82,40.429 -34.87,124 -13.84,229.211 14.26,71.418 57.54,189.589 91.96,232.049 49.06,60.51 93.58,148.13 294.36,335.98 v 0 c 219.54,223.63 332.38,364.68 392.48,541.29 9.71,31.56 33.11,17.17 34.66,0.12 z m -60.83,22.77 c -73.18,-159.03 -164.37,-308.03 -383.51,-518.98 l -9.76,-9.61 c -252.87,-245.59 -292.43,-317.6 -311.55,-341.4 -80.13,-99.751 -153.59,-396.989 -62.62,-520.45 35.89,-48.719 96.34,-62.672 222.88,-32.281 101.46,24.359 370.05,138.16 553.21,285.34 349.62,280.941 416.66,373.781 344.58,478.351 -95.25,138.18 -212.05,465.33 -268.19,701.15 -12.27,51.51 -7.36,73.99 -29.44,74.81 -12.28,0.45 -46.78,-97.76 -55.6,-116.93" /><path
         id="path72"
         style="fill:#181613;fill-opacity:1;fill-rule:evenodd;stroke:none"
         d="m 5140.21,2826.02 c 248.6,0 316.95,-31.06 338.69,-68.34 21.75,-37.28 6.22,-217.51 -226.84,-441.23 -233.03,-223.72 -826.51,-711.54 -1115.46,-854.47 -288.97,-142.93 -562.41,-320.05 -677.36,74.56 0,0 86.99,-124.29 366.63,9.33 279.66,133.61 649.41,394.61 783.01,478.51 133.62,83.88 518.9,490.93 562.41,590.36 43.5,99.43 -31.08,211.28 -31.08,211.28" /><path
         id="path74"
         style="fill:#181613;fill-opacity:1;fill-rule:evenodd;stroke:none"
         d="m 1071.36,2685.32 c 57.7,28.89 120.86,67.34 226.17,39.71 l 42.77,42.29 c -78.71,18.74 -192.32,10.63 -292.5,-30.48 v 0 c -72.706,-32.54 -265.823,-118.99 -348.484,-387.29 -34.718,-112.72 -49.82,-316.5 21.961,-519.87 60.903,-172.63 207.567,-406.54 560.223,-540.63 201.18,-76.51 383.58,-119.56 542.12,-127.98 130.39,-6.93 242.74,10.23 324.9,49.65 61.29,29.4 104.86,70.66 124.8,116.05 l -68.5,18.92 c -5.84,-11.04 -19.45,-50.7 -82.05,-82.95 -27.48,-14.16 -286.58,-98.41 -814.88,97.04 -114.15,42.23 -251.04,121.32 -341.831,215.45 -77.071,79.92 -132.684,167.51 -174.371,271.06 -53.528,132.93 -62.352,388.41 -31.086,492.02 60.433,200.27 239.128,314.93 310.758,347.01" /><path
         id="path76"
         style="fill:#181613;fill-opacity:1;fill-rule:evenodd;stroke:none"
         d="m 3434.38,1325.26 c 59.03,-124.29 130.49,-282.75 -332.48,-581.049 -462.96,-298.301 -860.66,-394.629 -723.95,65.258 0,0 40.39,-189.547 310.72,-102.547 270.3,87.019 657.85,488.458 664.91,497.158 33.19,40.87 80.8,121.18 80.8,121.18" /><path
         id="path78"
         style="fill:#181613;fill-opacity:1;fill-rule:evenodd;stroke:none"
         d="m 1952.27,1191.64 c -323.14,24.86 -820.28,136.72 -1006.719,348.01 -186.434,211.28 -285.867,537.55 -233.051,736.4 52.836,198.86 217.504,475.4 540.65,472.3 0,0 -382.173,105.64 -559.287,-136.71 C 516.75,2369.27 460.82,2049.23 569.574,1750.94 678.32,1452.65 1035.67,1123.29 1274.91,1098.43 c 239.26,-24.86 692.9,55.93 692.9,55.93 l -15.54,37.28" /><path
         id="path80"
         style="fill:#181613;fill-opacity:1;fill-rule:evenodd;stroke:none"
         d="m 1526.58,5013.49 c -205.07,80.8 -388.38,142.93 -556.174,-105.64 -167.797,-248.58 -295.179,-814.08 -310.722,-1149.66 -15.532,-335.57 -68.36,-674.26 403.936,-810.97 0,0 -116.718,35.71 -133.608,292.07 -16.895,256.34 -29.61,656.38 24.031,937.2 53.637,280.82 193.467,635.03 274.247,737.58 80.79,102.54 161.59,118.07 192.66,118.07 31.07,0 105.63,-18.65 105.63,-18.65" /><path
         id="path82"
         style="fill:#ffffff;fill-opacity:1;fill-rule:evenodd;stroke:none"
         d="m 1358.3,5051.83 c -62.04,31.96 -196.6,15.52 -246.93,-52.33 -37.64,-50.73 -42.53,-129.2 47.26,-163.43 l 96.55,126.02 103.12,89.74" /><path
         id="path84"
         style="fill:#ffffff;fill-opacity:1;fill-rule:evenodd;stroke:none"
         d="m 1152.24,4817.98 c -101.38,49.06 -199.502,4.91 -225.67,-85.04 -29.359,-100.92 45.735,-189.68 116.11,-209.32 l 63.58,176.59 45.98,117.77" /><path
         id="path86"
         style="fill:#ffffff;fill-opacity:1;fill-rule:evenodd;stroke:none"
         d="m 1034.5,4504 c -142.387,22.91 -214.203,-22.83 -238.754,-99.76 -24.547,-76.92 78.496,-179.88 163.211,-204.39 L 1034.5,4504" /><path
         id="path88"
         style="fill:#ffffff;fill-opacity:1;fill-rule:evenodd;stroke:none"
         d="m 952.738,4183.48 c -145.664,18 -212.324,-12.43 -230.578,-112.84 -19.656,-108.02 102.957,-170.08 189.692,-171.71 l 40.886,284.55" /><path
         id="path90"
         style="fill:#ffffff;fill-opacity:1;fill-rule:evenodd;stroke:none"
         d="m 918.395,3869.49 c -142.375,6.55 -232.215,-35.98 -233.856,-150.45 -1.754,-122.78 66.91,-173.32 227.313,-189.7 l 6.543,340.15" /><path
         id="path92"
         style="fill:#ffffff;fill-opacity:1;fill-rule:evenodd;stroke:none"
         d="m 908.586,3508.09 c -139.004,3.27 -196.231,-37.56 -206.051,-121.02 -9.812,-83.48 67.399,-172.08 212.586,-199.51 l -6.535,320.53" /><path
         id="path94"
         style="fill:#ffffff;fill-opacity:1;fill-rule:evenodd;stroke:none"
         d="m 916.758,3179.38 c -134.195,18 -125.938,-8.15 -134.102,-35.97 -8.191,-27.82 35.985,-81.77 174.989,-127.56 0,0 0,0 -1.637,3.28 l -39.25,160.25" /><path
         id="path96"
         style="fill:#ffffff;fill-opacity:1;fill-rule:evenodd;stroke:none"
         d="m 1155.52,2765.65 c -101.39,49.06 -257.973,23.71 -147.59,-71.96 l 72.14,24.53 75.45,47.43" /><path
         id="path98"
         style="fill:#ffffff;fill-opacity:1;fill-rule:evenodd;stroke:none"
         d="m 982.176,2672.85 c -33.117,60.09 -129.156,100.37 -229.356,-24.53 -89.531,-111.61 -34.769,-174.15 -3.679,-198.7 l 124.711,136.03 109.644,75.29 -1.32,11.91" /><path
         id="path100"
         style="fill:#ffffff;fill-opacity:1;fill-rule:evenodd;stroke:none"
         d="m 745.461,2433.68 c -137.367,29.43 -175.32,-51.36 -182.746,-130.01 -8.184,-86.73 42.027,-169.26 123.875,-164.35 l 31.754,204.11 27.117,90.25" /><path
         id="path102"
         style="fill:#ffffff;fill-opacity:1;fill-rule:evenodd;stroke:none"
         d="m 692.723,2116.02 c -130.938,-4.91 -159.789,-78.07 -132.461,-207.28 26.984,-127.55 145.906,-140.65 199.918,-137.37 l -64.735,265.99 -2.722,78.66" /><path
         id="path104"
         style="fill:#ffffff;fill-opacity:1;fill-rule:evenodd;stroke:none"
         d="m 769.582,1738.66 c -88.309,-58.87 -96.148,-161.02 -24.121,-234.66 72,-73.66 156.894,-93.42 242.848,-36.8 l -153.754,169.19 -64.973,102.27" /><path
         id="path106"
         style="fill:#ffffff;fill-opacity:1;fill-rule:evenodd;stroke:none"
         d="m 1008.34,1459.02 c -70.375,-117.83 -19.68,-197.83 35.97,-228.94 55.65,-31.1 152.05,-31.16 210.96,78.5 l -141.42,72.87 -105.51,77.57" /><path
         id="path108"
         style="fill:#ffffff;fill-opacity:1;fill-rule:evenodd;stroke:none"
         d="m 1284.71,1302.03 c -26.16,-114.47 50.53,-172.31 106.32,-186.06 78.89,-19.46 196.2,9.37 220.75,94.49 l -14.54,23.31 -163.67,29.46 -139.11,55.63 -9.75,-16.83" /><path
         id="path110"
         style="fill:#ffffff;fill-opacity:1;fill-rule:evenodd;stroke:none"
         d="m 1670.24,1202.28 c -11.47,-63.84 25.21,-81.43 51.4,-84.68 26.18,-3.27 85.96,5.79 100.68,57.7 l -115.41,43.74 -36.67,-16.76" /><path
         id="path112"
         style="fill:#ffffff;fill-opacity:1;fill-rule:evenodd;stroke:none"
         d="m 5187.63,2795.01 c 172.3,13.16 240,-8.59 247.53,-42.44 7.5,-33.87 -107.84,-72.83 -204.42,-70.33 l -25.82,47.32 -17.29,65.45" /><path
         id="path114"
         style="fill:#ffffff;fill-opacity:1;fill-rule:evenodd;stroke:none"
         d="m 5216.02,2656.08 c 125.92,13.08 269.87,2.55 182.08,-134.15 -87.79,-136.69 -242.09,-114.66 -332.38,-95.85 l 46.41,107.85 56.44,70.22 47.45,51.93" /><path
         id="path116"
         style="fill:#ffffff;fill-opacity:1;fill-rule:evenodd;stroke:none"
         d="m 5062.89,2414.79 c 87.72,-62.88 79.8,-151.7 19.03,-228.05 -63.77,-80.13 -199.29,-119.32 -309.63,-52.85 l 80.25,94.05 171.47,145.46 38.88,41.39" /><path
         id="path118"
         style="fill:#ffffff;fill-opacity:1;fill-rule:evenodd;stroke:none"
         d="m 4753.23,2118.06 c 78.49,-52.33 97.31,-125.53 22.9,-197.87 -58.87,-57.24 -213.18,-74.97 -279.64,6.54 l 195.53,159.51 61.21,31.82" /><path
         id="path120"
         style="fill:#ffffff;fill-opacity:1;fill-rule:evenodd;stroke:none"
         d="m 4478.49,1900.56 c 73.59,-104.66 42.52,-188.06 -18.46,-233.17 -58.75,-43.45 -197.4,-64.46 -262.81,46.75 l 151.19,110.01 130.08,76.41" /><path
         id="path122"
         style="fill:#ffffff;fill-opacity:1;fill-rule:evenodd;stroke:none"
         d="m 4172.69,1705.96 c 42.65,-97.83 35.97,-174.98 -53.77,-220.41 -76.37,-38.65 -168.52,-3.38 -211.15,78.13 l 129.64,76.12 135.28,66.16" /><path
         id="path124"
         style="fill:#ffffff;fill-opacity:1;fill-rule:evenodd;stroke:none"
         d="m 3881.6,1547.33 c 49.06,-68.68 55.6,-140.64 1.57,-168.37 -43.98,-22.56 -161.82,4.84 -208.18,92.81 l 104.07,55.19 102.54,20.37" /><path
         id="path126"
         style="fill:#ffffff;fill-opacity:1;fill-rule:evenodd;stroke:none"
         d="m 3654.29,1463.93 c 46.39,-57.67 51.96,-121.67 13.09,-129.19 -38.9,-7.53 -102.54,27.52 -143.92,134.1 l 130.83,-4.91" /><path
         id="path128"
         style="fill:#ffffff;fill-opacity:1;fill-rule:evenodd;stroke:none"
         d="m 3417.18,1208.82 c 68.72,-58.91 32.7,-125.92 -9.82,-166.8 -42.25,-40.64 -143.91,-78.5 -206.05,-9.81 l 119.31,128.73 96.56,47.88" /><path
         id="path130"
         style="fill:#ffffff;fill-opacity:1;fill-rule:evenodd;stroke:none"
         d="m 3170.24,1012.58 c 66.28,-82.228 33.72,-161.158 -22.89,-209.318 -46.99,-39.961 -165.51,-80.223 -225.68,17.988 l 248.57,191.33" /><path
         id="path132"
         style="fill:#ffffff;fill-opacity:1;fill-rule:evenodd;stroke:none"
         d="m 2905.31,799.988 c 55.61,-101.386 -5.66,-157.777 -67.04,-194.597 -61.35,-36.821 -172.91,-44.661 -210.96,52.328 l 143.42,83.422 134.58,58.847" /><path
         id="path134"
         style="fill:#ffffff;fill-opacity:1;fill-rule:evenodd;stroke:none"
         d="m 2596.24,649.539 c -7.37,-111.687 -75.23,-142.269 -127.56,-129.187 -60.2,15.046 -94.17,75.886 -80.13,217.5 l 98.64,-77.731 109.05,-10.582" /><path
         id="path136"
         style="fill:#1d1c1a;fill-opacity:1;fill-rule:evenodd;stroke:none"
         d="M 1203.21,4946.95 C 1087.8,4813.5 944.672,4313.13 911.027,4092.92 c -37.129,-243.06 -45.273,-755.6 -3.015,-966.88 22.574,-112.89 106.958,-178.46 223.068,-212.06 l 26.27,55.1 c -93.97,27.22 -164.596,75.28 -178.444,166.15 -52.336,343.42 -37.023,714.89 -1.406,948.06 35.04,229.32 181.2,730.71 279.41,844.25 94.38,109.14 182.9,94.26 280.6,48.64 l 18.4,55.12 c -130.97,48.26 -235.65,50.97 -352.7,-84.35" /><path
         id="path138"
         style="fill:#181613;fill-opacity:1;fill-rule:evenodd;stroke:none"
         d="m 3398.36,1335.97 c 11.77,-27.29 15.52,-53.95 -10.62,-83 -23.45,-25.89 -392.49,-367.939 -677.02,-503.669 -95.9,-45.75 -189.81,-50.922 -237.13,-9.813 -22.63,19.66 -55.61,57.231 -36.77,151.762 l -51.54,21.582 c -35.71,-120.48 -11.85,-185.504 25.11,-217.582 78.09,-67.84 215.28,-50.219 316.62,-2.641 165.92,77.903 641.49,461.721 674.6,498.531 47.92,53.23 44.84,163.08 42.14,168.97 l -45.39,-24.14" /><path
         id="path140"
         style="fill:#181613;fill-opacity:1;fill-rule:evenodd;stroke:none"
         d="m 5088.63,2802.39 c 34.4,-1.56 66.75,-14.96 77.14,-30.21 20.23,-29.66 20.83,-74.07 2.42,-112.83 -69.91,-147.18 -343.01,-464.43 -753.48,-740.8 -363.16,-244.5 -566.87,-352.16 -680.29,-385.94 -76.86,-22.89 -218.02,-37.69 -250.01,58.23 l -50.76,-14.74 c 41.51,-124.51 165.6,-149.84 284.03,-114.3 119.4,35.81 357.71,172 728.51,416.35 412.4,271.73 721.7,634.63 765.01,744.93 23.66,60.2 18.43,124.55 -14,172.11 -26.94,39.55 -68.55,61.33 -117.15,62.88 l 8.58,-55.68" /></g></g></svg>